<svg width="67" height="66" viewBox="0 0 67 66" fill="none" xmlns="http://www.w3.org/2000/svg">
<g clip-path="url(#clip0_1_501)">
<path d="M53.5163 11.2625H13.167V47.959H53.5163V11.2625Z" fill="white"/>
<path fill-rule="evenodd" clip-rule="evenodd" d="M66.0117 32.7378C66.0117 50.7718 51.3925 65.3908 33.3583 65.3908C15.3244 65.3908 0.704956 50.7718 0.704956 32.7378C0.704956 14.7041 15.3244 0.0848389 33.3583 0.0848389C51.3925 0.0848389 66.0117 14.7041 66.0117 32.7378ZM24.1053 45.7321H17.7682C16.4366 45.7321 15.7788 45.7321 15.3778 45.4756C14.9446 45.1947 14.6799 44.7295 14.6478 44.216C14.6237 43.7429 14.9526 43.1651 15.6104 42.01L31.2575 14.4302C31.9233 13.259 32.2602 12.6735 32.6853 12.4569C33.1425 12.2243 33.688 12.2243 34.1453 12.4569C34.5704 12.6735 34.9073 13.259 35.5731 14.4302L38.7898 20.0453L38.8062 20.074C39.5253 21.3304 39.89 21.9675 40.0492 22.6362C40.2257 23.3662 40.2257 24.1363 40.0492 24.8663C39.8888 25.5401 39.5278 26.1818 38.7978 27.4572L30.5788 41.986L30.5575 42.0232C29.8337 43.29 29.4668 43.932 28.9584 44.4164C28.4049 44.946 27.7391 45.3308 27.0091 45.5477C26.3433 45.7321 25.5974 45.7321 24.1053 45.7321ZM40.1086 45.7321H49.1889C50.5285 45.7321 51.2025 45.7321 51.6038 45.4677C52.0369 45.1869 52.3095 44.7134 52.3338 44.2003C52.3569 43.7425 52.0351 43.1872 51.4047 42.0993C51.3829 42.0622 51.3612 42.0245 51.339 41.9862L46.7906 34.2053L46.7388 34.1177C46.0997 33.0368 45.7771 32.4911 45.3627 32.2801C44.9057 32.0474 44.3679 32.0474 43.9109 32.2801C43.4937 32.4967 43.1568 33.0662 42.491 34.2133L37.9588 41.9942L37.9432 42.021C37.2798 43.1662 36.9482 43.7386 36.9721 44.2081C37.0042 44.7216 37.2689 45.1947 37.7021 45.4756C38.0952 45.7321 38.769 45.7321 40.1086 45.7321Z" fill="#E84142"/>
</g>
<defs>
<clipPath id="clip0_1_501">
<rect width="65.3502" height="65.393" fill="white" transform="translate(0.682739 0.0438232)"/>
</clipPath>
</defs>
</svg>
