<svg width="66" height="66" viewBox="0 0 66 66" fill="none" xmlns="http://www.w3.org/2000/svg">
<g clip-path="url(#clip0_1_507)">
<path fill-rule="evenodd" clip-rule="evenodd" d="M33.1297 0.0655518C51.177 0.0655518 65.8048 14.6933 65.8048 32.7403C65.8048 50.7873 51.177 65.415 33.1297 65.415C15.0825 65.415 0.45459 50.7873 0.45459 32.7403C0.45459 14.6933 15.0825 0.0655518 33.1297 0.0655518Z" fill="#F0B90B"/>
<path d="M18.413 32.7403L18.4365 41.3802L25.778 45.7002V50.7585L14.1401 43.9329V30.2137L18.413 32.7403ZM18.413 24.1003V29.135L14.1375 26.6059V21.5711L18.413 19.042L22.7094 21.5711L18.413 24.1003ZM28.8439 21.5711L33.1194 19.042L37.4158 21.5711L33.1194 24.1003L28.8439 21.5711Z" fill="white"/>
<path d="M21.5024 39.5894V34.5311L25.778 37.0602V42.095L21.5024 39.5894ZM28.8439 47.512L33.1194 50.0411L37.4158 47.512V52.5467L33.1194 55.0758L28.8439 52.5467V47.512ZM43.5477 21.5711L47.8232 19.042L52.1196 21.5711V26.6059L47.8232 29.135V24.1003L43.5477 21.5711ZM47.8232 41.3802L47.8467 32.7402L52.1223 30.2111V43.9303L40.4844 50.7559V45.6976L47.8232 41.3802Z" fill="white"/>
<path d="M44.7573 39.5895L40.4818 42.0951V37.0604L44.7573 34.5312V39.5895Z" fill="white"/>
<path d="M44.757 25.8916L44.7806 30.9499L37.4182 35.2699V43.9308L33.1427 46.4364L28.8672 43.9308V35.2699L21.5048 30.9499V25.8916L25.7987 23.3625L33.1165 27.7034L40.4789 23.3625L44.7754 25.8916H44.757ZM21.5022 17.2543L33.1191 10.4052L44.757 17.2543L40.4815 19.7834L33.1191 15.4425L25.7777 19.7834L21.5022 17.2543Z" fill="white"/>
</g>
<defs>
<clipPath id="clip0_1_507">
<rect width="65.3502" height="65.3495" fill="white" transform="translate(0.45459 0.0655518)"/>
</clipPath>
</defs>
</svg>
