<svg width="93" height="92" viewBox="0 0 93 92" fill="none" xmlns="http://www.w3.org/2000/svg">
<g clip-path="url(#clip0_14_382)">
<path d="M46.2558 91.9998C71.6608 91.9998 92.2557 71.405 92.2557 45.9999C92.2557 20.5949 71.6608 0 46.2558 0C20.8507 0 0.255859 20.5949 0.255859 45.9999C0.255859 71.405 20.8507 91.9998 46.2558 91.9998Z" fill="#4A5370"/>
<path d="M79.2226 78.078C78.6161 78.7013 77.9928 79.3059 77.3526 79.8935C77.3432 79.9029 77.3339 79.9104 77.3243 79.9198C76.5901 80.5957 75.8337 81.2453 75.0544 81.8706C73.971 82.7437 72.8446 83.568 71.6823 84.3395C71.5679 84.4165 71.4532 84.4916 71.3368 84.5667C64.1232 89.268 55.509 91.9998 46.2565 91.9998C46.0894 91.9998 45.9205 91.998 45.7534 91.996H45.6407C44.7394 91.9847 43.8458 91.9472 42.9576 91.8816C42.1127 91.8234 41.2754 91.7407 40.4436 91.6356C40.2145 91.6074 39.9854 91.5774 39.7583 91.5436C39.0054 91.4385 38.2581 91.3127 37.5183 91.17C37.0752 91.0856 36.634 90.9936 36.1945 90.8958C36.1739 90.892 36.1552 90.8865 36.1345 90.8827H36.1327C35.5356 90.7494 34.9442 90.6029 34.3565 90.4452L33.9396 90.3325C33.3876 90.1805 32.8412 90.0171 32.2987 89.8425C32.124 89.788 31.9514 89.7318 31.7767 89.6736C31.5909 89.6136 31.4069 89.5516 31.2229 89.4858C30.9582 89.3956 30.6934 89.3018 30.4307 89.2042C30.1509 89.1009 29.8731 88.9958 29.5951 88.8889L3.98924 27.8234L0.419922 19.3143L13.2962 13.9145L46.4782 0H46.48L48.7631 5.4431L50.3554 9.24135L51.204 11.2636L52.4883 14.3278L52.8507 15.1933L54.1462 18.28L66.3185 47.3088L66.6302 48.0523L72.7754 62.7048L73.38 64.1448V64.1466L76.938 72.6293L79.2226 78.078Z" fill="#43C970"/>
<path d="M75.0544 81.8706C73.9711 82.7437 72.8446 83.568 71.6824 84.3395C71.5679 84.4164 71.4533 84.4916 71.3368 84.5667C64.1233 89.268 55.509 91.9998 46.2566 91.9998C46.0895 91.9998 45.9205 91.998 45.7534 91.996H45.6408C44.7395 91.9847 43.8459 91.9472 42.9577 91.8816C42.1128 91.8233 41.2754 91.7407 40.4437 91.6356C40.2146 91.6074 39.9855 91.5774 39.7583 91.5436C39.0054 91.4385 38.2581 91.3127 37.5183 91.17C37.0752 91.0856 36.6341 90.9936 36.1946 90.8958L30.4306 77.1522L10.7407 30.1985C11.4898 29.8681 12.1696 29.4456 12.7723 28.9499C13.1403 28.6456 13.4801 28.3152 13.788 27.9585C15.0685 26.4959 15.8252 24.6352 15.9323 22.6938C16.0018 21.4172 15.7914 20.1065 15.2638 18.8467L27.8961 13.5501L33.0574 11.3852L35.5921 10.3225C35.6934 10.5647 35.8061 10.8012 35.9263 11.0303C36.497 12.1118 37.2706 13.0281 38.1774 13.7545C38.8665 14.3065 39.6306 14.7459 40.4437 15.065C40.7892 15.2021 41.1439 15.3166 41.5063 15.4086C41.7937 15.4819 42.0846 15.5381 42.3794 15.5795C43.8815 15.8028 45.4605 15.6321 46.9626 15.0124C46.9777 15.0068 46.9926 14.9992 47.0077 14.9937L47.0132 15.0068L50.6481 23.6773L59.7373 45.348L60.0922 46.1929L61.1135 48.63L66.1097 60.5393C66.1097 60.5411 66.1097 60.5411 66.1097 60.5411L70.1615 70.2049L72.6586 76.1567L75.0544 81.8706Z" fill="#3AB760"/>
<path d="M43.462 72.3878C51.7506 72.3878 58.4699 65.6685 58.4699 57.3799C58.4699 49.0913 51.7506 42.372 43.462 42.372C35.1734 42.372 28.4541 49.0913 28.4541 57.3799C28.4541 65.6685 35.1734 72.3878 43.462 72.3878Z" fill="#53D37A"/>
<path d="M81.6466 75.3837C81.3312 75.7648 81.0101 76.1384 80.6797 76.5084C80.2084 77.0435 79.7203 77.5673 79.2228 78.078C78.6163 78.7013 77.993 79.3059 77.3528 79.8935C77.3434 79.9029 77.3341 79.9104 77.3246 79.9198C76.5904 80.5957 75.8339 81.2453 75.0546 81.8706C73.9712 82.7437 72.8448 83.568 71.6825 84.3395C71.5681 84.4165 71.4534 84.4916 71.337 84.5667C64.1234 89.268 55.5092 91.9998 46.2567 91.9998C46.0896 91.9998 45.9207 91.998 45.7536 91.996H45.6409C44.7396 91.9847 43.846 91.9472 42.9578 91.8816C42.1129 91.8234 41.2756 91.7407 40.4438 91.6356C40.2147 91.6074 39.9856 91.5774 39.7585 91.5436C39.0056 91.4385 38.2583 91.3127 37.5185 91.17C37.0754 91.0856 36.6342 90.9936 36.1947 90.8958C36.1741 90.892 36.1554 90.8865 36.1347 90.8827H36.1329C35.5358 90.7494 34.9445 90.6029 34.3567 90.4452L33.9398 90.3325L30.4307 77.152L15.9324 22.694L13.8164 14.7464L48.7632 5.4431L60.6143 2.28689L62.0807 1.89642L62.3454 2.89333L63.5996 7.60043L64.5741 11.2635L65.9879 16.5713L66.3201 17.8162L75.3586 51.7699L79.5755 67.6108L79.6337 67.8286L81.6466 75.3837Z" fill="#43C970"/>
<path d="M77.3525 79.8935C77.3432 79.9029 77.3338 79.9104 77.3243 79.9198C76.5901 80.5958 75.8336 81.2453 75.0543 81.8706C73.971 82.7438 72.8445 83.568 71.6823 84.3396C71.5678 84.4165 71.4532 84.4916 71.3367 84.5667C64.1232 89.268 55.5089 91.9998 46.2564 91.9998C46.0893 91.9998 45.9204 91.998 45.7533 91.996H45.6407C44.7393 91.9847 43.8457 91.9472 42.9576 91.8816C42.1127 91.8234 41.2753 91.7407 40.4435 91.6356C40.2144 91.6074 39.9853 91.5774 39.7582 91.5436L35.6558 76.1364L33.6957 68.7784L29.321 52.3499V52.3481L22.5562 26.9374C23.3428 26.712 24.0733 26.3872 24.7379 25.978C25.1435 25.7265 25.5266 25.4449 25.8795 25.1349C27.3477 23.86 28.3522 22.1196 28.7221 20.21C28.9662 18.9558 28.9361 17.6285 28.585 16.3085L38.1775 13.7549L40.4437 13.1523L47.5371 11.2634L49.886 10.6382C49.9422 10.8505 50.0062 11.0589 50.0793 11.2636C50.4942 12.4614 51.1513 13.5167 51.9775 14.3916C52.2517 14.6789 52.5426 14.9473 52.8506 15.1933C53.5171 15.7284 54.2588 16.164 55.0511 16.4831C55.1262 16.5131 55.2031 16.5431 55.2802 16.5714C56.9137 17.1796 58.7462 17.3056 60.558 16.8229L68.9731 48.4297L69.2622 49.5148L72.7751 62.7046L73.2671 64.5484V64.5502L75.7529 73.8911L77.3525 79.8935Z" fill="#3AB760"/>
<path d="M51.2613 73.3358C59.5499 73.3358 66.2692 66.6166 66.2692 58.328C66.2692 50.0393 59.5499 43.3201 51.2613 43.3201C42.9727 43.3201 36.2534 50.0393 36.2534 58.328C36.2534 66.6166 42.9727 73.3358 51.2613 73.3358Z" fill="#53D37A"/>
<path d="M85.2701 70.38C85.2063 70.4813 85.1423 70.5826 85.0785 70.6822C84.0328 72.3231 82.8856 73.8929 81.6463 75.3836C81.331 75.7647 81.0099 76.1382 80.6794 76.5082C80.2081 77.0433 79.7201 77.5671 79.2225 78.0778C78.6161 78.7011 77.9927 79.3058 77.3525 79.8934C77.3432 79.9027 77.3338 79.9102 77.3243 79.9196C76.5901 80.5956 75.8336 81.2451 75.0543 81.8705C73.971 82.7436 72.8445 83.5678 71.6823 84.3394C71.5678 84.4163 71.4532 84.4914 71.3367 84.5665C64.1232 89.2679 55.5089 91.9996 46.2564 91.9996C46.0893 91.9996 45.9204 91.9978 45.7533 91.9959H45.6407C44.7393 91.9846 43.8458 91.947 42.9576 91.8814C42.1127 91.8232 41.2753 91.7405 40.4435 91.6354C40.2144 91.6072 39.9853 91.5772 39.7582 91.5434C39.0053 91.4383 38.258 91.3125 37.5182 91.1698L35.6558 76.1363L34.854 69.6756L32.1129 47.5542L28.722 20.2095L27.8958 13.5499L27.71 12.0479L33.0573 11.3852L35.9262 11.0303L50.3551 9.24099L63.5994 7.60008L70.291 6.77028L77.2774 5.90472L77.9421 11.2632L78.1374 12.8385L79.4236 23.2139L85.0787 68.8384L85.2701 70.38Z" fill="#43C970"/>
<path d="M80.6796 76.5084C80.2082 77.0435 79.7202 77.5673 79.2226 78.078C78.6162 78.7013 77.9929 79.306 77.3526 79.8935C77.3433 79.9029 77.3339 79.9104 77.3244 79.9198C76.5902 80.5958 75.8337 81.2453 75.0544 81.8706C73.9711 82.7437 72.8446 83.568 71.6824 84.3396C71.5679 84.4165 71.4533 84.4916 71.3369 84.5667C64.1233 89.268 55.5091 91.9998 46.2566 91.9998C46.0895 91.9998 45.9206 91.998 45.7534 91.996H45.6408C44.7395 91.9847 43.8459 91.9472 42.9577 91.8816L40.5057 72.094L40.4437 71.6002L40.0325 68.2864L37.941 51.4166L37.0023 43.8332L34.7061 25.3168C35.5152 25.2023 36.2832 24.9788 36.9985 24.6652C37.4341 24.4719 37.8509 24.2446 38.2434 23.9855C39.0958 23.4297 39.8394 22.7294 40.4438 21.9239C40.9958 21.1917 41.4334 20.3712 41.7318 19.4943C42.143 18.2852 42.2952 16.9652 42.1281 15.6116L42.3796 15.5797L46.9627 15.0126L47.0134 15.007L51.9776 14.3912L52.4883 14.3274L64.0033 12.9005C64.1722 14.2561 64.6417 15.499 65.3401 16.5712C65.6275 17.0181 65.9559 17.433 66.3202 17.8161C66.9059 18.4376 67.5819 18.9689 68.3235 19.3952C69.9044 20.302 71.7837 20.7245 73.7326 20.4823L77.9891 54.8152L79.5756 67.6108L79.6113 67.8943L80.6796 76.5084Z" fill="#3AB760"/>
<path d="M58.8595 75.3391C67.1481 75.3391 73.8673 68.6199 73.8673 60.3313C73.8673 52.0426 67.1481 45.3234 58.8595 45.3234C50.5708 45.3234 43.8516 52.0426 43.8516 60.3313C43.8516 68.6199 50.5708 75.3391 58.8595 75.3391Z" fill="#53D37A"/>
<path d="M90.3881 11.2634V59.0151C89.1959 63.0631 87.463 66.8802 85.2699 70.3799C85.2061 70.4813 85.1422 70.5826 85.0784 70.6822C84.0326 72.3231 82.8854 73.8928 81.6461 75.3835C81.3308 75.7647 81.0097 76.1382 80.6792 76.5082C80.2079 77.0433 79.7199 77.5671 79.2223 78.0778C78.6159 78.7011 77.9925 79.3058 77.3523 79.8933C77.343 79.9027 77.3336 79.9102 77.3241 79.9196C76.5899 80.5956 75.8334 81.2451 75.0541 81.8705C73.9708 82.7436 72.8443 83.5678 71.6821 84.3394C71.5676 84.4163 71.453 84.4914 71.3366 84.5665C64.123 89.2678 55.5087 91.9996 46.2563 91.9996C46.0892 91.9996 45.9202 91.9978 45.7531 91.9959H45.6405C44.7392 91.9846 43.8456 91.947 42.9574 91.8814C42.1125 91.8232 41.2751 91.7405 40.4434 91.6354V11.2634H90.3881Z" fill="#53D37A"/>
<path d="M85.079 25.2943V70.6822C84.0332 72.3231 82.8861 73.8928 81.6468 75.3835C81.3314 75.7647 81.0103 76.1382 80.6799 76.5082C80.2085 77.0433 79.7205 77.5671 79.2229 78.0778C78.6165 78.7011 77.9932 79.3058 77.3529 79.8933C77.3436 79.9027 77.3342 79.9102 77.3247 79.9196C76.5905 80.5956 75.834 81.2451 75.0547 81.8705C73.9714 82.7436 72.8449 83.5678 71.6827 84.3394C71.5682 84.4163 71.4536 84.4914 71.3372 84.5665C64.1236 89.2678 55.5094 91.9996 46.2569 91.9996C46.0898 91.9996 45.9209 91.9978 45.7537 91.9959V67.6464L45.752 53.0221V25.2905C46.5706 25.2774 47.3611 25.1496 48.1082 24.9243C48.5644 24.7872 49.0057 24.6126 49.4282 24.4043C49.8562 24.1959 50.2637 23.9518 50.6486 23.6776C51.8353 22.8327 52.8002 21.6987 53.4424 20.377C53.7615 19.7198 54 19.0158 54.1464 18.2798C54.2535 17.726 54.3117 17.1552 54.3117 16.5712H76.356C76.356 19.2316 77.5483 21.6143 79.424 23.2139C79.5591 23.3303 79.7 23.443 79.8427 23.5499C81.3012 24.6447 83.115 25.2943 85.079 25.2943Z" fill="#43C970"/>
<path d="M65.4161 78.0185C73.7047 78.0185 80.424 71.2992 80.424 63.0106C80.424 54.7219 73.7047 48.0027 65.4161 48.0027C57.1275 48.0027 50.4082 54.7219 50.4082 63.0106C50.4082 71.2992 57.1275 78.0185 65.4161 78.0185Z" fill="#53D37A"/>
</g>
<defs>
<clipPath id="clip0_14_382">
<rect width="92" height="92" fill="white" transform="translate(0.255859)"/>
</clipPath>
</defs>
</svg>
