<svg width="80" height="80" viewBox="0 0 80 80" fill="none" xmlns="http://www.w3.org/2000/svg">
<g clip-path="url(#clip0_67_482)">
<path d="M78.458 40.2433C78.458 46.308 77.0665 52.0476 74.5856 57.1606C68.3002 70.1132 55.0219 75.848 39.6581 75.848C18.2294 75.848 4.66211 61.672 4.66211 40.2433C4.66211 26.8505 7.64392 15.0424 17.9647 8.06986C24.1572 3.88617 31.6224 1.44345 39.6581 1.44345C61.0867 1.44345 78.458 18.8147 78.458 40.2433Z" fill="#AC66AA"/>
<path d="M52.9251 63.7661C31.4965 63.7661 14.1252 46.3949 14.1252 24.9662C14.1252 18.9008 15.5181 13.1613 17.9997 8.0481C15.1778 9.9502 12.6195 12.2134 10.391 14.7716L4.67768 23.4372C4.01686 24.81 3.43441 26.2277 2.93625 27.6845L0.903741 38.3507C0.873614 38.9777 0.858398 39.6087 0.858398 40.2433C0.858398 40.8638 0.873005 41.4811 0.901763 42.0945L2.86017 52.5782C3.3101 53.9208 3.83138 55.2309 4.41962 56.5035L9.5374 64.7028C16.6515 73.4529 27.5021 79.0432 39.6583 79.0432C55.0221 79.0432 68.2999 70.113 74.5852 57.1604C68.3991 61.3305 60.947 63.7661 52.9251 63.7661Z" fill="#8659B9"/>
<path d="M12.4256 32.3543C10.2358 34.2972 6.87736 33.7592 6.86062 33.7038C6.74042 33.7898 7.16463 28.195 10.0819 26.272C12.851 24.457 15.6846 26.7977 15.6887 26.72C15.599 26.7602 14.533 30.4629 12.4256 32.3543Z" fill="#E7A52E"/>
<path d="M11.219 42.1187C9.92993 44.8275 6.68261 45.9171 6.64807 45.8887C6.57717 46.0232 4.81474 40.7703 6.75686 37.6494C8.61348 34.6784 12.1376 35.5875 12.1084 35.5291C12.0431 35.6077 12.4495 39.4785 11.219 42.1187Z" fill="#E7A52E"/>
<path d="M7.51258 29.1079C7.4928 28.9871 10.2483 24.9915 11.1394 21.4351C11.8662 18.3346 10.7629 15.5491 10.3918 14.7723C8.12166 17.3782 6.19384 20.2897 4.67851 23.4375C4.39945 27.613 7.57466 29.1011 7.51258 29.1079Z" fill="#FA870A"/>
<path d="M5.48862 41.4335C5.41908 41.3332 6.42179 36.4087 5.86186 32.8064C5.41741 30.1867 3.83392 28.4591 2.93756 27.6848C1.78498 31.0551 1.08293 34.6341 0.904297 38.3505C2.40593 41.6047 5.53594 41.386 5.48862 41.4335Z" fill="#FA870A"/>
<path d="M13.6383 51.3149C13.4325 54.3143 10.9273 56.7592 10.8921 56.7615C10.8833 56.9135 7.34948 52.9251 7.94943 49.1824C8.53204 45.5959 12.1121 44.9179 12.0644 44.8922C12.0351 44.9923 13.8084 48.3886 13.6383 51.3149Z" fill="#E7A52E"/>
<path d="M19.3709 58.8848C20.2807 61.6533 18.9861 64.9651 18.9669 64.9951C19.0202 65.1326 14.386 63.1228 13.4831 59.4417C12.6223 55.8898 15.6082 53.7186 15.5609 53.7317C15.572 53.8331 18.4438 56.1833 19.3709 58.8848Z" fill="#E7A52E"/>
<path d="M2.86127 52.5778C5.45173 54.8902 8.2222 53.148 8.20592 53.2246C8.10169 53.1668 7.19042 48.196 5.34538 45.2014C4.02542 43.1208 2.04495 42.3551 0.90332 42.0943C1.07465 45.7435 1.74977 49.2606 2.86127 52.5778Z" fill="#FA870A"/>
<path d="M15.2556 63.0044C15.1399 63.0037 12.4369 58.8831 9.66519 57.0416C7.60438 55.7088 5.47358 56.127 4.42188 56.5025C5.78641 59.4548 7.51065 62.2064 9.5392 64.7013C9.60782 64.7322 9.67675 64.762 9.74628 64.7894C13.2734 66.2049 15.2265 62.9137 15.2556 63.0044Z" fill="#FA870A"/>
<path d="M22.4051 68.1931C13.6054 64.6089 6.74892 55.3363 5.34086 45.1169C3.69072 34.8855 7.55854 23.6832 14.967 17.2385L16.0656 18.5012C9.07493 24.5826 5.42957 35.1752 6.9948 44.8595L6.99769 44.8791C7.64938 49.6209 9.5416 54.2149 12.4697 58.1645C15.3701 62.0769 19.0241 65.0085 23.0365 66.6429L22.4051 68.1931Z" fill="#FA870A"/>
<path d="M17.0846 20.7325C14.5249 22.717 10.7785 23.0557 10.7256 23.0979C10.6496 23.2103 10.7721 18.2796 14.2927 15.645C17.7824 13.0778 21.4718 14.8898 21.3939 14.8796C21.2983 14.9247 19.5765 18.71 17.0846 20.7325Z" fill="#E7A52E"/>
<path d="M66.8901 32.3543C69.0799 34.2972 72.4383 33.7592 72.4551 33.7038C72.5753 33.7898 72.1511 28.195 69.2338 26.272C66.4647 24.457 63.6311 26.7977 63.627 26.72C63.7167 26.7602 64.7827 30.4629 66.8901 32.3543Z" fill="#E7A52E"/>
<path d="M68.0972 42.1187C69.3863 44.8275 72.6336 45.9171 72.6682 45.8887C72.7391 46.0232 74.5015 40.7703 72.5594 37.6494C70.7028 34.6784 67.1787 35.5875 67.2079 35.5291C67.2732 35.6077 66.8667 39.4785 68.0972 42.1187Z" fill="#E7A52E"/>
<path d="M74.6013 23.0414C75.1165 27.5194 71.739 29.1009 71.8029 29.1079C71.8226 28.9871 69.0671 24.9915 68.1761 21.4351C67.3212 17.7888 68.9982 14.5764 69.038 14.557C69.0154 14.3786 74.0736 18.3833 74.6013 23.0414Z" fill="#ECC32E"/>
<path d="M78.7472 37.4822C77.4463 41.6456 73.777 41.3822 73.8281 41.4335C73.8977 41.3332 72.895 36.4087 73.4549 32.8064C74.0803 29.1212 76.9607 27.1994 77.0094 27.2166C77.0707 27.0448 80.1233 33.1337 78.7472 37.4822Z" fill="#ECC32E"/>
<path d="M65.6775 51.3149C65.8832 54.3143 68.3885 56.7592 68.4236 56.7615C68.4325 56.9135 71.9663 52.9251 71.3663 49.1824C70.7837 45.5959 67.2036 44.9179 67.2514 44.8922C67.2806 44.9923 65.5074 48.3886 65.6775 51.3149Z" fill="#E7A52E"/>
<path d="M59.9448 58.8848C59.0351 61.6533 60.3296 64.9651 60.3488 64.9951C60.2955 65.1326 64.9298 63.1228 65.8327 59.4417C66.6934 55.8897 63.7075 53.7186 63.7548 53.7317C63.7437 53.833 60.8719 56.1832 59.9448 58.8848Z" fill="#E7A52E"/>
<path d="M76.97 52.0592C74.2464 55.1308 71.0929 53.1429 71.1104 53.2246C71.2147 53.1668 72.1259 48.196 73.971 45.2014C75.9097 42.1455 79.2754 41.925 79.3109 41.977C79.4424 41.853 79.8506 48.844 76.97 52.0592Z" fill="#ECC32E"/>
<path d="M69.5698 64.7894C66.0428 66.2049 64.0898 62.9138 64.0605 63.0044C64.1762 63.0037 66.8792 58.8831 69.6509 57.0416C72.5369 55.1752 75.5616 56.7424 75.5653 56.8179C75.7367 56.7736 73.3114 63.3113 69.5698 64.7894Z" fill="#ECC32E"/>
<path d="M56.9107 68.1931L56.2793 66.6429C60.2917 65.0086 63.9457 62.0769 66.8461 58.1645C69.7741 54.2149 71.6664 49.6209 72.318 44.8791L72.321 44.8595C73.8862 35.1752 70.241 24.5825 63.2503 18.5012L64.3488 17.2385C71.7573 23.6832 75.6251 34.8854 73.9749 45.1171C72.5667 55.3365 65.7103 64.6087 56.9107 68.1931Z" fill="#ECC32E"/>
<path d="M62.2313 20.7325C64.7911 22.717 68.5375 23.0557 68.5904 23.0979C68.6663 23.2103 68.5438 18.2796 65.0232 15.645C61.5335 13.0778 57.8442 14.8898 57.9221 14.8796C58.0177 14.9247 59.7395 18.71 62.2313 20.7325Z" fill="#E7A52E"/>
<path d="M42.9396 20.5735L46.9725 27.5226C47.5092 28.4474 48.4112 29.1027 49.4566 29.3273L57.3118 31.0154C60.1596 31.6273 61.2839 35.0874 59.3396 37.2564L53.9769 43.2391C53.2633 44.0354 52.9186 45.0958 53.028 46.1593L53.85 54.1517C54.1479 57.0492 51.2046 59.1876 48.5411 58.0088L41.1939 54.7574C40.2162 54.3246 39.1012 54.3246 38.1234 54.7574L30.7762 58.0088C28.1126 59.1876 25.1693 57.0492 25.4673 54.1517L26.2893 46.1593C26.3987 45.0958 26.0542 44.0354 25.3404 43.2391L19.9777 37.2564C18.0336 35.0874 19.1577 31.6273 22.0055 31.0154L29.8607 29.3273C30.906 29.1027 31.808 28.4473 32.3448 27.5226L36.3777 20.5735C37.8395 18.0542 41.4775 18.0542 42.9396 20.5735Z" fill="#ECC32E"/>
<path d="M57.3113 31.0155L49.4561 29.3275C48.4108 29.1027 47.5088 28.4474 46.972 27.5227L42.9391 20.5736C41.477 18.0544 37.8389 18.0544 36.3769 20.5736L32.344 27.5227C31.8073 28.4476 30.9053 29.1029 29.8599 29.3275L29.1123 29.4882C30.6138 39.3261 39.111 46.8627 49.3684 46.8627C50.6307 46.8627 51.8661 46.7479 53.0654 46.5294L53.0273 46.1596C52.9179 45.0961 53.2626 44.0357 53.9762 43.2394L59.3389 37.2567C61.2834 35.0875 60.1591 31.6275 57.3113 31.0155Z" fill="#F1D333"/>
<path d="M54.2059 47.1837C53.1964 47.2956 52.1864 47.3965 51.1731 47.4407L52.0323 55.7965C52.1163 56.6128 51.2921 57.2257 50.5296 56.8884L42.556 53.3597C41.6376 52.9533 40.6627 52.7471 39.6583 52.7471C38.6541 52.7471 37.6791 52.9531 36.7607 53.3597L28.7872 56.8884C28.3102 57.0994 27.8393 56.943 27.5444 56.6161C27.3393 56.389 27.2519 56.1131 27.2845 55.7965L28.1764 47.1228C28.3825 45.1197 27.7297 43.1107 26.3856 41.6112L20.5659 35.1183C20.2068 34.7176 20.2728 34.2893 20.3442 34.0696C20.4156 33.85 20.6138 33.4646 21.1398 33.3516L29.2633 31.6059C29.0536 30.7523 28.8505 29.8972 28.6816 29.0341C28.6551 28.8987 28.6363 28.7645 28.6223 28.6311L20.5005 30.3765C17.41 31.0406 16.1899 34.7957 18.2998 37.1496L24.1198 43.6424C24.8943 44.5065 25.2683 45.6572 25.1494 46.8115L24.2575 55.4852C23.934 58.6304 27.1289 60.9502 30.0189 59.6711L37.9924 56.1425C38.5229 55.9077 39.0906 55.7902 39.6585 55.7902C40.2262 55.7902 40.794 55.9077 41.3246 56.1425L49.298 59.6711C52.1892 60.9506 55.3828 58.629 55.0594 55.4852L54.2059 47.1837Z" fill="#E7A52E"/>
<path d="M58.8162 30.3765L50.2913 28.5445C49.1549 28.3003 48.1769 27.5877 47.5956 26.5859L43.2189 19.0444C43.0228 18.7065 42.7903 18.4106 42.5309 18.1562C42.528 18.1534 42.5254 18.1502 42.5225 18.1473C42.1566 17.7905 41.7362 17.5185 41.2879 17.3272C41.2243 17.3001 41.1604 17.2746 41.0957 17.2507C40.7233 17.1136 40.3343 17.0307 39.9416 17.004C39.931 17.0033 39.9205 17.0022 39.9098 17.0016C39.826 16.9966 39.7422 16.9938 39.6583 16.9938C38.2746 16.9938 36.8909 17.6773 36.0976 19.0443L31.7209 26.5858C31.1732 27.5298 30.248 28.2485 29.1274 28.5195C29.0933 28.5278 29.0596 28.537 29.0252 28.5443L28.2139 28.7187C28.3686 29.7328 28.5923 30.7241 28.8791 31.6883L29.6645 31.5196C31.6333 31.0965 33.3421 29.855 34.3529 28.1133L38.7296 20.5718C38.9996 20.1065 39.4273 20.037 39.6583 20.037C39.8893 20.037 40.317 20.1065 40.5871 20.5718L44.9637 28.1133C45.9745 29.855 47.6834 31.0965 49.6521 31.5196L58.1768 33.3516C58.7028 33.4646 58.9011 33.85 58.9725 34.0696C59.0438 34.2893 59.11 34.7175 58.7508 35.1183L52.9308 41.6111C51.5866 43.1106 50.9339 45.1195 51.1399 47.1226L51.1842 47.5523C52.2118 47.5071 53.2214 47.3924 54.2084 47.2126C54.2253 47.1277 53.7559 45.2497 55.1968 43.6422L57.9477 40.5732L61.0167 37.1494C63.123 34.7998 61.9129 31.0418 58.8162 30.3765Z" fill="#ECC32E"/>
</g>
<defs>
<clipPath id="clip0_67_482">
<rect width="78.55" height="78.55" fill="white" transform="translate(0.858398 0.968262)"/>
</clipPath>
</defs>
</svg>
