<svg width="79" height="80" viewBox="0 0 79 80" fill="none" xmlns="http://www.w3.org/2000/svg">
<g clip-path="url(#clip0_66_407)">
<g clip-path="url(#clip1_66_407)">
<path d="M65.7208 11.0601L63.3663 11.5016L62.3499 8.43435C56.2836 4.23637 48.9238 1.77509 40.9881 1.77509C20.229 1.77493 3.40039 18.6035 3.40039 39.3626C3.40039 60.1218 20.229 76.9504 40.9881 76.9504C42.0619 76.9504 43.1243 76.9028 44.1752 76.8146L53.164 69.0717L61.4646 70.8857C71.7645 64.1815 78.5758 52.5682 78.5758 39.3626C78.5758 28.0746 73.5988 17.9499 65.7208 11.0601Z" fill="#FEF156"/>
<path d="M22.1593 34.0308L15.3851 23.6147L3.07809 34.7075C-0.404957 37.8469 -0.982883 43.0981 1.734 46.9199C4.5911 50.9388 10.1013 52.0047 14.2511 49.3413C18.1796 46.8217 17.9171 46.9832 18.1048 46.8746C18.3022 46.7603 18.5047 46.6666 18.71 46.5919L22.1593 34.0308Z" fill="#391A6F"/>
<path d="M43.4655 63.9264C43.4661 64.1488 43.4471 64.3755 43.4066 64.6042C43.3713 64.8038 43.4382 64.4804 42.4089 69.0573C41.7736 71.878 42.5045 74.6986 44.1752 76.8144C50.5173 76.2818 56.4109 74.1753 61.4648 70.8856L66.196 59.1927L54.3838 56.2831L43.4655 63.9264Z" fill="#5A3F8F"/>
<path d="M62.3493 8.4342C62.1802 9.21633 62.1373 9.91714 62.0988 10.5511C62.0216 11.8198 61.9607 12.822 60.8918 14.3485C59.8231 15.8748 58.9021 16.2749 57.7363 16.7814C56.3861 17.3677 54.7057 18.0977 53.0466 20.4671C52.4692 21.2919 52.6695 22.4287 53.4943 23.0062C54.3191 23.5836 55.4559 23.3833 56.0334 22.5585C57.1022 21.0321 58.0231 20.632 59.1889 20.1256C60.5391 19.5392 62.2195 18.8092 63.8786 16.4397C65.4312 14.2225 65.6281 12.4788 65.7202 11.06C64.6487 10.1229 63.5229 9.2464 62.3493 8.4342Z" fill="#FE3D97"/>
<path d="M47.7983 44.1425C52.4553 33.534 49.7901 22.1068 49.7901 22.1068C48.4153 21.3687 46.9827 20.7316 45.5027 20.203C38.6086 17.733 36.892 17.1654 34.6912 16.2456C30.0761 14.3168 24.721 15.1999 20.9613 18.5886L15.3852 23.6146C14.0753 27.1323 11.7521 36.4535 18.7102 46.5917C20.7443 45.8505 23.0618 47.0021 23.6162 49.193L24.2647 51.7551C25.6797 57.3458 30.9777 61.0555 36.7152 60.4731L37.212 60.4226C37.212 60.4229 43.1413 54.7512 47.7983 44.1425Z" fill="#5A3F8F"/>
<path d="M55.4671 20.4431C53.795 19.2722 51.4902 19.6786 50.3195 21.3508L49.79 22.1069L51.0544 26.7452L55.8453 26.347L56.3747 25.5908C57.5455 23.9185 57.1392 21.6139 55.4671 20.4431Z" fill="#391A6F"/>
<path d="M62.4231 46.8872L64.1094 35.7656C63.0161 34.4594 61.5385 32.6604 59.1003 29.7246C56.5083 26.5967 53.3429 24.0144 49.7896 22.1068C49.7892 22.1071 44.8061 24.7623 46.5697 28.8443L44.0226 32.4817C44.0226 32.4817 38.6414 31.7249 36.1689 35.256C33.6964 38.787 29.824 43.1714 34.4514 47.8358L36.0957 52.014C36.0957 52.014 32.1631 57.1042 37.2115 60.4228L39.3323 60.2076C41.5825 59.9791 43.459 61.7609 43.4647 63.9264C55.3723 66.9984 63.3375 61.6268 66.1952 59.1927L62.4231 46.8872Z" fill="#775BBC"/>
<path d="M35.716 55.841C39.2026 55.4941 41.7479 52.3863 41.401 48.8997C41.0541 45.413 37.9463 42.8677 34.4597 43.2146C30.973 43.5615 28.4277 46.6693 28.7746 50.156C29.1215 53.6426 32.2293 56.1879 35.716 55.841Z" fill="#391A6F"/>
<path d="M66.5171 38.5306C65.7489 37.6976 65.081 36.9262 64.1097 35.7657C62.3342 36.4753 57.9978 38.7551 59.868 43.5766L60.8782 49.8469C60.8782 49.8469 57.361 56.7954 66.1955 59.1927L69.0112 52.2338C70.9098 47.5418 69.9079 42.2078 66.5171 38.5306Z" fill="#856BD6"/>
<path d="M35.9982 49.4602L37.1704 46.536C35.5273 45.3998 33.2729 45.8021 32.1255 47.4406C30.974 49.0851 31.3736 51.3518 33.0183 52.5034C34.6074 53.6161 36.7773 53.2801 37.9606 51.7723L35.9982 49.4602Z" fill="#02C0FC"/>
<path d="M61.6077 47.8058L61.0367 44.5672C60.452 41.2515 57.2902 39.0375 53.9745 39.6222L50.7359 40.1932C47.4202 40.7779 45.2062 43.9397 45.7909 47.2554L46.3619 50.494C46.9466 53.8097 50.1084 56.0237 53.4241 55.439L56.6627 54.868C59.9784 54.2834 62.1924 51.1217 61.6077 47.8058Z" fill="#391A6F"/>
<path d="M50.2753 47.1229C51.4905 46.9573 52.3414 45.838 52.1759 44.6228C52.0103 43.4077 50.8911 42.5568 49.6759 42.7223C48.4607 42.8878 47.6098 44.0071 47.7753 45.2223C47.9409 46.4375 49.0602 47.2884 50.2753 47.1229Z" fill="#02C0FC"/>
<path d="M59.1711 51.5237C59.9191 50.5525 59.7381 49.1589 58.767 48.4109C57.7958 47.6629 56.4022 47.8438 55.6542 48.8149C54.9062 49.7861 55.0871 51.1798 56.0583 51.9278C57.0294 52.6758 58.4231 52.4948 59.1711 51.5237Z" fill="#6AD9FB"/>
<path d="M51.4996 53.4424C52.7075 53.2291 53.5136 52.077 53.3003 50.8691C53.0869 49.6613 51.9348 48.8551 50.727 49.0685C49.5192 49.2819 48.713 50.434 48.9264 51.6418C49.1397 52.8496 50.2918 53.6558 51.4996 53.4424Z" fill="#02C0FC"/>
<path d="M56.7262 45.9731C57.934 45.7598 58.7402 44.6077 58.5268 43.3998C58.3135 42.192 57.1614 41.3858 55.9536 41.5992C54.7457 41.8126 53.9396 42.9647 54.1529 44.1725C54.3663 45.3803 55.5184 46.1865 56.7262 45.9731Z" fill="#6AD9FB"/>
<path d="M38.5266 31.644L37.9556 28.4054C37.3709 25.0897 34.2091 22.8757 30.8935 23.4604L27.6548 24.0314C24.3392 24.6161 22.1252 27.7779 22.7099 31.0936L23.2809 34.3322C23.8656 37.6479 27.0273 39.8619 30.343 39.2772L33.5817 38.7062C36.8973 38.1215 39.1113 34.9597 38.5266 31.644Z" fill="#391A6F"/>
<path d="M27.2868 30.938C28.4946 30.7247 29.3008 29.5726 29.0874 28.3647C28.874 27.1569 27.7219 26.3508 26.5141 26.5641C25.3063 26.7775 24.5001 27.9296 24.7135 29.1374C24.9268 30.3452 26.0789 31.1514 27.2868 30.938Z" fill="#FE3D97"/>
<path d="M35.6239 32.1638C36.6283 32.8671 36.8724 34.2515 36.1691 35.2561C35.4658 36.2605 34.0814 36.5046 33.0768 35.8013C32.0724 35.0981 31.8283 33.7136 32.5316 32.709C33.235 31.7046 34.6194 31.4605 35.6239 32.1638Z" fill="#FD77A6"/>
<path d="M26.1849 33.8282C26.8883 32.8238 28.2726 32.5797 29.2772 33.283C30.2816 33.9863 30.5257 35.3707 29.8224 36.3753C29.1192 37.3797 27.7347 37.6238 26.7301 36.9205C25.7257 36.2171 25.4816 34.8327 26.1849 33.8282Z" fill="#FE3D97"/>
<path d="M33.6344 29.8164C34.8422 29.6031 35.6484 28.451 35.4351 27.2431C35.2217 26.0353 34.0696 25.2291 32.8618 25.4425C31.6539 25.6559 30.8478 26.808 31.0611 28.0158C31.2745 29.2236 32.4266 30.0298 33.6344 29.8164Z" fill="#FD77A6"/>
<path d="M50.6155 31.677L46.5701 28.8445C45.5657 28.1412 44.1813 28.3853 43.4779 29.3897C42.7746 30.3941 43.0187 31.7786 44.0231 32.4818L48.0684 35.3144C49.0729 36.0177 50.4573 35.7736 51.1606 34.7692C51.864 33.7647 51.6199 32.3803 50.6155 31.677Z" fill="#FE3D97"/>
<path d="M37.1884 46.548C37.1824 46.5438 37.1764 46.5402 37.1704 46.536C36.3274 46.5371 35.4982 46.9346 34.9778 47.6776C34.1294 48.8891 34.4238 50.5592 35.6355 51.4075C36.3395 51.9006 37.1982 52.0069 37.9607 51.7723C38.0019 51.7197 38.0421 51.666 38.0809 51.6106C39.2327 49.9661 38.833 47.6995 37.1884 46.548Z" fill="#6AD9FB"/>
</g>
</g>
<defs>
<clipPath id="clip0_66_407">
<rect width="78.5542" height="78.5542" fill="white" transform="translate(0 0.626953)"/>
</clipPath>
<clipPath id="clip1_66_407">
<rect width="78.55" height="78.55" fill="white" transform="translate(0.0253906 0.0876465)"/>
</clipPath>
</defs>
</svg>
