<svg width="80" height="80" viewBox="0 0 80 80" fill="none" xmlns="http://www.w3.org/2000/svg">
<g clip-path="url(#clip0_65_258)">
<path d="M39.6688 4.31531C18.9096 4.31531 2.08105 21.1439 2.08105 41.903C2.08105 50.0701 4.68701 57.6279 9.11113 63.7927L40.3061 79.4826C60.771 79.142 77.2565 62.4491 77.2565 41.903C77.2565 21.1439 60.4279 4.31531 39.6688 4.31531Z" fill="#1D2E79"/>
<path d="M62.3292 10.7861C60.0224 10.7861 57.8308 11.2792 55.8537 12.1651C55.7081 12.6118 55.4272 13.742 55.9326 14.679C56.2539 15.2744 56.8289 15.6762 57.6435 15.875C57.5374 16.3799 57.3638 17.6679 58.0162 18.8291C58.4832 19.6604 59.2745 20.25 60.3707 20.5834C60.2292 21.0354 59.9792 22.0993 60.4076 22.9898C60.6783 23.5524 61.1686 23.9431 61.865 24.1513C64.0081 24.7917 63.3296 28.5512 63.2864 28.7785C63.243 28.9174 62.9476 29.9551 63.5127 30.842C63.8948 31.4414 64.572 31.8228 65.5281 31.9776C65.3583 32.5103 65.0636 33.7884 65.6585 34.953C66.1166 35.8494 66.9973 36.474 68.2783 36.811C68.158 37.2619 67.9679 38.3102 68.4954 39.1654C68.864 39.7631 69.5072 40.139 70.403 40.2901C75.0614 37.5283 78.1851 32.4504 78.1851 26.6422C78.1851 17.8851 71.0862 10.7861 62.3292 10.7861Z" fill="#FEF156"/>
<path d="M68.5424 36.6609C64.1842 35.6571 65.8115 31.8056 65.8115 31.8056C62.6172 31.4406 63.4891 28.83 63.4891 28.83C63.4891 28.83 64.3347 24.671 61.925 23.951C59.5151 23.231 60.6406 20.443 60.6406 20.443C56.7957 19.4256 57.897 15.7163 57.897 15.7163C54.8438 15.1304 56.1166 12.0499 56.1166 12.0499C50.4476 14.4667 46.4736 20.0899 46.4736 26.6418C46.4736 35.3988 53.5726 42.4977 62.3295 42.4977C65.3944 42.4977 68.2553 41.6272 70.6807 40.1214C67.4132 39.7452 68.5424 36.6609 68.5424 36.6609Z" fill="#FFC242"/>
<path d="M57.6433 15.8747C57.5372 16.3796 57.3637 17.6676 58.016 18.8288C58.483 19.6602 59.2743 20.2497 60.3705 20.5831C60.229 21.0351 59.979 22.099 60.4075 22.9895C60.6781 23.5521 61.1684 23.9428 61.8648 24.151C64.0079 24.7914 63.3295 28.5509 63.2862 28.7783C63.2428 28.9171 62.9475 29.9548 63.5125 30.8417C63.8947 31.4411 64.5719 31.8225 65.528 31.9773C65.3581 32.51 65.0634 33.7881 65.6584 34.9527C66.1165 35.8491 66.9971 36.4737 68.2781 36.8108C68.2775 36.8132 68.2767 36.8163 68.2761 36.8187C71.7695 34.7729 74.1172 30.9827 74.1172 26.6421C74.1172 20.1316 68.8395 14.8539 62.329 14.8539C60.6367 14.8539 59.0292 15.2132 57.5746 15.8552C57.5979 15.8612 57.6196 15.8689 57.6433 15.8747Z" fill="#FFC242"/>
<path d="M68.54 36.6604C64.1843 35.6558 65.8112 31.8055 65.8112 31.8055C62.6168 31.4405 63.4887 28.83 63.4887 28.83C63.4887 28.83 64.3344 24.671 61.9246 23.951C59.5147 23.231 60.6402 20.4429 60.6402 20.4429C56.8236 19.4331 57.8802 15.7727 57.896 15.7189C53.5833 17.4711 50.541 21.7 50.541 26.6419C50.541 33.1524 55.8187 38.4301 62.3292 38.4301C64.6088 38.4301 66.7363 37.7811 68.54 36.6604Z" fill="#FC753F"/>
<path d="M62.3292 0.940796C60.0224 0.940796 57.8308 1.43388 55.8537 2.31972C55.7081 2.76647 55.4272 3.8967 55.9326 4.83362C56.2539 5.42904 56.8289 5.83084 57.6435 6.02967C57.5374 6.53457 57.3638 7.82251 58.0162 8.98373C58.4832 9.81511 59.2745 10.4047 60.3707 10.7381C60.2292 11.19 59.9792 12.254 60.4076 13.1444C60.6783 13.707 61.1686 14.0978 61.865 14.3058C64.0081 14.9462 63.3296 18.7057 63.2864 18.933C63.243 19.0719 62.9476 20.1098 63.5127 20.9965C63.8948 21.5959 64.572 21.9773 65.5281 22.1321C65.3583 22.6648 65.0636 23.9429 65.6585 25.1075C66.1166 26.0041 66.9973 26.6283 68.2783 26.9655C68.158 27.4164 67.9679 28.4647 68.4954 29.3199C68.864 29.9176 69.5072 30.2935 70.403 30.4446C75.0614 27.6828 78.1851 22.6049 78.1851 16.7967C78.1851 8.03975 71.0862 0.940796 62.3292 0.940796Z" fill="#3FEADD"/>
<path d="M68.5425 26.8156C64.1844 25.8118 65.8117 21.9602 65.8117 21.9602C62.6173 21.5952 63.4892 18.9846 63.4892 18.9846C63.4892 18.9846 64.3349 14.8256 61.9251 14.1057C59.5152 13.3857 60.6407 10.5976 60.6407 10.5976C56.7959 9.58028 57.8971 5.87094 57.8971 5.87094C54.8438 5.28519 56.1166 2.20471 56.1166 2.20471C50.4476 4.62151 46.4736 10.2447 46.4736 16.7966C46.4736 25.5535 53.5726 32.6525 62.3295 32.6525C65.3944 32.6525 68.2553 31.782 70.6807 30.2762C67.4133 29.8999 68.5425 26.8156 68.5425 26.8156Z" fill="#02C0FC"/>
<path d="M57.6433 6.02942C57.5372 6.53432 57.3637 7.82226 58.016 8.98348C58.483 9.81486 59.2743 10.4044 60.3705 10.7378C60.229 11.1898 59.979 12.2537 60.4075 13.1442C60.6781 13.7068 61.1684 14.0975 61.8648 14.3056C64.0079 14.9459 63.3295 18.7054 63.2862 18.9328C63.2428 19.0716 62.9475 20.1095 63.5125 20.9963C63.8947 21.5957 64.5719 21.9771 65.528 22.1319C65.3581 22.6645 65.0634 23.9427 65.6584 25.1073C66.1165 26.0038 66.9971 26.6281 68.2781 26.9653C68.2775 26.9678 68.2767 26.9708 68.2761 26.9733C71.7695 24.9275 74.1172 21.1373 74.1172 16.7966C74.1172 10.2862 68.8395 5.00842 62.329 5.00842C60.6367 5.00842 59.0292 5.36773 57.5746 6.00978C57.5979 6.01592 57.6196 6.02359 57.6433 6.02942Z" fill="#02C0FC"/>
<path d="M68.54 26.8152C64.1843 25.8108 65.8112 21.9604 65.8112 21.9604C62.6168 21.5954 63.4887 18.9849 63.4887 18.9849C63.4887 18.9849 64.3344 14.8259 61.9246 14.1059C59.5147 13.3859 60.6402 10.5978 60.6402 10.5978C56.8236 9.58803 57.8802 5.92763 57.896 5.87378C53.5833 7.62597 50.541 11.8549 50.541 16.7968C50.541 23.3073 55.8187 28.585 62.3292 28.585C64.6088 28.5849 66.7363 27.9359 68.54 26.8152Z" fill="#1D8DF2"/>
<path d="M60.4071 13.1442C60.6777 13.7068 61.1681 14.0975 61.8644 14.3055C64.0075 14.9459 63.3291 18.7054 63.2858 18.9328C63.2424 19.0716 62.9471 20.1095 63.5121 20.9963C63.8928 21.5934 64.5667 21.9738 65.517 22.1299L67.3483 21.0725C68.0866 20.6462 68.5415 19.8584 68.5415 19.0058V14.5874C68.5415 13.7348 68.0866 12.947 67.3483 12.5207L63.5218 10.3115C62.7834 9.88511 61.8738 9.88511 61.1354 10.3115L60.3643 10.7567C60.2222 11.218 59.9843 12.2652 60.4071 13.1442Z" fill="#3FEADD"/>
<path d="M63.5222 23.2818L65.811 21.9603C62.6167 21.5953 63.4886 18.9847 63.4886 18.9847C63.4886 18.9847 64.3342 14.8257 61.9245 14.1057C59.5146 13.3857 60.64 10.5977 60.64 10.5977L57.3093 12.5208C56.5711 12.9469 56.1162 13.7347 56.1162 14.5874V19.0059C56.1162 19.8584 56.5711 20.6462 57.3093 21.0726L61.1359 23.2818C61.8741 23.7081 62.7839 23.7081 63.5222 23.2818Z" fill="#02C0FC"/>
<path d="M62.3288 14.0496C61.5103 14.0496 60.8408 14.7192 60.8408 15.5376V18.0558C60.8408 18.8742 61.5105 19.5438 62.3288 19.5438C63.1473 19.5438 63.8168 18.8741 63.8168 18.0558V15.5376C63.8168 14.7192 63.1472 14.0496 62.3288 14.0496Z" fill="#64F9EA"/>
<path d="M37.514 32.1975H21.7954C21.1652 32.9985 20.2146 34.7424 22.2 36.3396C22.2 36.3396 18.3346 40.4741 22.288 44.4275C26.2414 48.381 23.9508 58.324 23.9508 58.324C23.9508 58.324 20.2994 61.5252 23.3507 64.5764C23.3507 64.5764 20.8577 66.9587 23.3507 68.9147V70.0654C23.3507 70.0654 20.9053 72.1238 21.7276 74.9395C27.0592 77.8417 33.1712 79.4908 39.6689 79.4908C39.882 79.4908 40.094 79.4862 40.3062 79.4826C41.1132 78.7315 41.6204 77.6622 41.6204 76.4795V36.3039C41.6204 34.0454 39.7724 32.1975 37.514 32.1975Z" fill="#E8F8FC"/>
<path d="M23.6577 70.0656V68.915C21.1646 66.9589 23.6577 64.5766 23.6577 64.5766C20.6063 61.5253 24.2577 58.3242 24.2577 58.3242C24.2577 58.3242 26.5484 48.3812 22.5949 44.4278C18.6415 40.4743 22.5069 36.3399 22.5069 36.3399C20.5215 34.7427 21.4721 32.9986 22.1023 32.1978H13.2177C10.9592 32.1978 9.11133 34.0457 9.11133 36.3041V63.793C12.4934 68.506 16.939 72.404 22.0966 75.1371C21.0966 72.2207 23.6577 70.0656 23.6577 70.0656Z" fill="#ADE9F7"/>
<path d="M36.0341 36.3398H22.2C22.2 36.3398 18.3346 40.4743 22.288 44.4277C26.2414 48.3812 23.9508 58.3242 23.9508 58.3242C23.9508 58.3242 20.2994 61.5254 23.3507 64.5766H36.0344C36.8317 64.5766 37.4782 63.9302 37.4782 63.1328V37.7835C37.4779 36.9862 36.8316 36.3398 36.0341 36.3398Z" fill="#9C58FE"/>
<path d="M14.6977 36.3398C13.9003 36.3398 13.2539 36.9862 13.2539 37.7837V63.1328C13.2539 63.9302 13.9003 64.5766 14.6977 64.5766H23.6579C20.6066 61.5252 24.258 58.3242 24.258 58.3242C24.258 58.3242 26.5486 48.3812 22.5952 44.4277C18.6418 40.4743 22.5072 36.3398 22.5072 36.3398H14.6977Z" fill="#8A37FF"/>
<path d="M25.1069 70.875H16.0156C15.1685 70.875 14.4814 70.188 14.4814 69.3408C14.4814 68.4935 15.1685 67.8066 16.0156 67.8066H25.1069C25.9542 67.8066 26.641 68.4935 26.641 69.3408C26.641 70.188 25.954 70.875 25.1069 70.875Z" fill="#6AD9FB"/>
<path d="M36.746 69.3408C36.746 68.4935 36.059 67.8066 35.2118 67.8066H31.8936C31.0464 67.8066 30.3594 68.4935 30.3594 69.3408C30.3594 70.188 31.0464 70.875 31.8936 70.875H35.2118C36.059 70.875 36.746 70.188 36.746 69.3408Z" fill="#FE3D97"/>
<path d="M20.9257 48.9459L21.0053 48.7476H15.9426C15.7641 48.7476 15.5882 48.7752 15.419 48.8232C15.39 49.1015 15.4669 49.3887 15.6562 49.6167L24.0391 59.7165C24.3312 60.0684 24.7284 60.2696 25.1416 60.3233L20.9257 48.9459Z" fill="#1D8DF2"/>
<path d="M35.3123 48.8232C35.143 48.7752 34.9672 48.7476 34.7886 48.7476H29.726L29.8056 48.9459L25.5898 60.3231C26.003 60.2694 26.4002 60.0683 26.6923 59.7163L35.0752 49.6165C35.2642 49.3887 35.3412 49.1016 35.3123 48.8232Z" fill="#3FEADD"/>
<path d="M29.8713 48.7476H20.8611L20.7822 48.9439L24.9893 60.2973C25.2373 60.3524 25.4951 60.3524 25.7432 60.2973L29.9502 48.9439L29.8713 48.7476Z" fill="#02C0FC"/>
<path d="M29.8051 48.9439H35.3216C35.3237 48.7032 35.2452 48.4619 35.085 48.2634L34.5476 47.5969L32.4562 45.004C32.1622 44.6395 31.719 44.4276 31.2508 44.4276H27.9922L29.8051 48.9439Z" fill="#64F9EA"/>
<path d="M22.7397 44.4276H19.4811C19.0128 44.4276 18.5697 44.6395 18.2756 45.004L16.1842 47.5969L15.6468 48.2634C15.4866 48.4619 15.4081 48.7032 15.4102 48.9439H20.9267L22.7397 44.4276Z" fill="#02C0FC"/>
<path d="M22.5953 44.4276L20.7822 48.9439H29.9502L28.1371 44.4276H22.5953Z" fill="#3FEADD"/>
<path d="M20.8372 24.4487C20.9627 24.8637 21.2624 25.2233 21.6906 25.4109C22.4667 25.7507 23.3714 25.3971 23.7114 24.621C25.2133 21.1907 28.131 18.6019 31.7164 17.5183L36.6941 16.0139C37.505 15.7688 37.9639 14.9125 37.7187 14.1016C37.4736 13.2906 36.6174 12.8317 35.8064 13.0769L30.8287 14.5813C26.3822 15.9251 22.7636 19.1358 20.9006 23.3901C20.7484 23.7381 20.7354 24.1116 20.8372 24.4487Z" fill="#2FD0E2"/>
<path d="M64.7442 51.3961C64.6187 50.9811 64.3191 50.6215 63.8909 50.4339C63.1148 50.0941 62.2101 50.4477 61.8701 51.2238C60.3681 54.6541 57.4504 57.2429 53.8652 58.3265L48.8876 59.8309C48.0766 60.0761 47.6177 60.9323 47.8629 61.7432C48.1081 62.5542 48.9643 63.0131 49.7752 62.7679L54.7529 61.2635C59.1994 59.9197 62.8181 56.709 64.681 52.4547C64.8331 52.1069 64.8461 51.7332 64.7442 51.3961Z" fill="#FFC242"/>
<path d="M55.8007 63.726C55.6871 63.3501 55.4302 63.0176 55.0568 62.8174L51.2083 60.7553L53.2704 56.9069C53.6703 56.1599 53.3894 55.2303 52.6426 54.8299C51.8957 54.4298 50.9659 54.7107 50.5656 55.4575L47.7788 60.6584C47.3788 61.4054 47.6597 62.3349 48.4064 62.7354L53.6073 65.5222C54.3541 65.9223 55.284 65.6414 55.6842 64.8946C55.8844 64.521 55.9142 64.102 55.8007 63.726Z" fill="#FEF156"/>
<path d="M29.7816 12.119C29.8952 12.4949 30.1522 12.8273 30.5256 13.0275L34.3741 15.0896L32.312 18.9383C31.912 19.6853 32.1929 20.6148 32.9396 21.0152C33.6864 21.4153 34.6163 21.1343 35.0166 20.3874L37.8034 15.1866C38.2034 14.4396 37.9225 13.51 37.1758 13.1096L31.9749 10.3228C31.2281 9.92265 30.2982 10.2037 29.8979 10.9506C29.698 11.324 29.6681 11.7431 29.7816 12.119Z" fill="#3FEADD"/>
</g>
<defs>
<clipPath id="clip0_65_258">
<rect width="78.55" height="78.55" fill="white" transform="translate(0.858398 0.940796)"/>
</clipPath>
</defs>
</svg>
