<svg width="79" height="80" viewBox="0 0 79 80" fill="none" xmlns="http://www.w3.org/2000/svg">
<g clip-path="url(#clip0_69_641)">
<path d="M3.25879 41.9335C3.25879 45.2587 3.69265 48.4821 4.50316 51.5525H77.1898C78.0003 48.482 78.4342 45.2585 78.4342 41.9335C78.4342 21.1743 61.6056 4.34576 40.8465 4.34576C20.0874 4.34576 3.25879 21.1743 3.25879 41.9335Z" fill="#FEF156"/>
<path d="M24.1439 34.1185C20.2163 34.1013 16.8787 36.6359 15.6953 40.161C15.396 41.0525 14.4995 41.6031 13.5697 41.4614C13.1603 41.3989 12.7353 41.3841 12.3004 41.4227C9.76543 41.6475 7.73664 43.7215 7.56312 46.2605C7.52875 46.7644 7.56711 47.254 7.66652 47.7208H24.1441L24.1439 34.1185Z" fill="#26B26F"/>
<path d="M69.3916 41.4226C68.9568 41.3841 68.5318 41.399 68.1226 41.4613C67.1929 41.603 66.2962 41.0524 65.9969 40.1609C64.8153 36.6413 61.4862 34.1087 57.5664 34.1181V47.7207H74.0259C74.1253 47.2537 74.1638 46.764 74.1293 46.2599C73.9554 43.7211 71.9265 41.6474 69.3916 41.4226Z" fill="#94DC79"/>
<path d="M50.4766 31.4832H34.0435V12.1405C34.0435 10.3803 35.4755 8.94829 37.2357 8.94829H57.8735V3.8855H23.8369V47.8733H50.4766V31.4832Z" fill="#ADE9F7"/>
<path d="M57.8736 47.8734V8.7182H37.2358C35.3457 8.7182 33.8135 10.2504 33.8135 12.1405V31.7134H50.2467V47.8734H57.8736Z" fill="#E8F8FC"/>
<path d="M33.5283 25.5207H42.6559C42.9672 25.5207 43.2194 25.2684 43.2194 24.9572V9.21786C43.2194 8.90658 42.9672 8.65436 42.6559 8.65436H33.5283V25.5207Z" fill="#02C0FC"/>
<path d="M23.8369 8.65436H33.6747V25.5207H23.8369V8.65436Z" fill="#27A6FF"/>
<path d="M45.3343 47.8734H36.3594V37.5298C36.3594 36.9411 36.8365 36.464 37.4252 36.464H44.2684C44.857 36.464 45.3342 36.9411 45.3342 37.5298V47.8734H45.3343Z" fill="#8C3D2F"/>
<path d="M29.582 32.6339H33.9816V47.8734H29.582V32.6339Z" fill="#02C0FC"/>
<path d="M48.0469 32.6339H52.4464V47.8734H48.0469V32.6339Z" fill="#02C0FC"/>
<path d="M49.0869 9.94556V23.9865C49.0869 24.8339 48.3999 25.5207 47.5527 25.5207C46.7054 25.5207 46.0186 24.8339 46.0186 23.9865V9.94556C46.0186 9.09823 46.7054 8.41138 47.5527 8.41138C48.3999 8.41138 49.0869 9.09838 49.0869 9.94556Z" fill="#B66651"/>
<path d="M54.7832 9.94556V23.9865C54.7832 24.8339 54.0964 25.5207 53.249 25.5207C52.4018 25.5207 51.7148 24.8339 51.7148 23.9865V9.94556C51.7148 9.09823 52.4018 8.41138 53.249 8.41138C54.0962 8.41138 54.7832 9.09838 54.7832 9.94556Z" fill="#B66651"/>
<path d="M43.915 44.8465C43.0712 44.8465 42.3809 44.1561 42.3809 43.3123V41.6388C42.3809 40.795 43.0712 40.1046 43.915 40.1046C44.7588 40.1046 45.4492 40.795 45.4492 41.6388V43.3123C45.4492 44.1561 44.7588 44.8465 43.915 44.8465Z" fill="#CE7867"/>
<path d="M28.7393 32.1736C28.7393 33.2752 29.6322 34.1681 30.7337 34.1681H50.9781C52.0797 34.1681 52.9725 33.2752 52.9725 32.1736C52.9725 31.0721 52.0797 30.1792 50.9781 30.1792H30.7337C29.6322 30.1792 28.7393 31.0721 28.7393 32.1736Z" fill="#3F57A0"/>
<path d="M22.5039 2.96563C22.5039 4.06717 23.3968 4.96006 24.4983 4.96006H57.2132C58.3147 4.96006 59.2076 4.06717 59.2076 2.96563C59.2076 1.86408 58.3147 0.971191 57.2132 0.971191H24.4983C23.3968 0.971191 22.5039 1.86408 22.5039 2.96563Z" fill="#3F57A0"/>
<path d="M4.50293 51.5526C8.23958 65.708 20.0256 76.5926 34.6686 79.0143L50.3103 78.3175L50.3112 78.3193C63.4124 74.9206 73.7369 64.6323 77.1896 51.5526H4.50293Z" fill="#FEF156"/>
<path d="M65.8047 55.6911C65.7535 55.6398 65.7058 55.5888 65.6572 55.5375C65.6552 55.5375 65.6533 55.5377 65.6513 55.5377C62.5989 55.5377 59.0841 54.6121 56.4277 53.7299C53.5968 52.79 50.5266 52.872 47.7573 53.9803C46.9551 54.3014 46.1264 54.5365 45.2851 54.686C46.9646 57.0116 48.623 61.2164 45.848 67.334C44.9046 69.4137 44.2406 71.2589 43.7793 72.8777C44.3991 73.8268 44.7997 74.9366 44.7997 76.3344V79.3138C46.6814 79.1165 48.5219 78.7814 50.3106 78.3172L52.2371 74.8243C53.2096 73.0612 54.7281 71.6613 56.5644 70.8348L60.371 69.1219C61.8278 63.7087 69.7639 59.6502 65.8047 55.6911Z" fill="#B66651"/>
<path d="M78.3878 52.0765C74.0283 52.9223 69.8397 55.5376 65.6509 55.5376C65.6012 55.5376 65.5506 55.5353 65.5007 55.5349C65.5501 55.5869 65.5987 55.6389 65.6509 55.6911C69.629 59.6692 61.597 63.7477 60.1963 69.2007L70.0856 64.7505C72.1044 63.842 73.6971 62.1926 74.5343 60.1431L78.3878 52.0765Z" fill="#CE7867"/>
<path d="M45.5544 54.6334C43.6635 55.0124 41.7007 54.9562 39.8182 54.451L32.8892 52.5911C32.3848 52.4557 31.8727 52.353 31.3564 52.2814C31.4253 52.3615 31.4985 52.4411 31.5777 52.5201C34.3706 55.3132 36.8991 57.7708 36.8991 63.6774C36.8991 68.4127 41.9765 69.6974 43.9906 73.222C44.4542 71.522 45.1444 69.5625 46.1554 67.3338C48.9512 61.1703 47.2464 56.948 45.5544 54.6334Z" fill="#8C3D2F"/>
<path d="M45.1063 76.3346C45.1063 70.1211 37.2053 69.5842 37.2053 63.6776C37.2053 57.771 34.677 55.3132 31.8838 52.5203C31.8225 52.4589 31.7654 52.3972 31.7102 52.3352C31.0219 52.2197 30.3248 52.1609 29.6257 52.1609H3.32324L4.81615 56.5551C5.12851 57.7306 6.05715 58.6424 7.23847 58.933L20.3818 62.1667C22.7995 62.7615 24.9042 64.2454 26.2769 66.3227L34.6636 79.0146C36.6751 79.3475 38.7404 79.5212 40.8464 79.5212C42.2868 79.5212 43.7082 79.4396 45.1063 79.2816C45.1063 78.3973 45.1063 77.4171 45.1063 76.3346Z" fill="#9E533B"/>
<path d="M65.8019 55.6882C62.5257 52.4089 64.5493 49.2578 66.4308 47.4141H31.4995C30.659 48.6523 29.8084 50.6839 31.5184 52.4591C31.9796 52.5292 32.4374 52.6234 32.8887 52.7446L39.8177 54.6045C42.4454 55.3099 45.2311 55.1446 47.7572 54.1338C50.5266 53.0255 53.5968 52.9434 56.4276 53.8834C59.0841 54.7654 62.5989 55.6911 65.6513 55.6911C65.7016 55.6911 65.7518 55.689 65.8019 55.6882Z" fill="#EEB88B"/>
<path d="M78.4232 52.0022C79.3178 49.8121 77.7069 47.4141 75.3412 47.4141H66.277C64.3949 49.2585 62.3707 52.4109 65.6509 55.6911C69.8136 55.6911 73.9764 53.1088 78.3066 52.2464L78.4232 52.0022Z" fill="#FADCAC"/>
<path d="M6.34963 47.4141C4.16342 47.4141 2.57064 49.4855 3.13199 51.5984L3.37516 52.3144H29.6256C30.3838 52.3144 31.1394 52.3845 31.8839 52.5203C30.0944 50.7308 30.956 48.6664 31.8061 47.4141H6.34963Z" fill="#E2A77A"/>
</g>
<defs>
<clipPath id="clip0_69_641">
<rect width="78.55" height="78.55" fill="white" transform="translate(0.124023 0.971191)"/>
</clipPath>
</defs>
</svg>
