<svg width="79" height="79" viewBox="0 0 79 79" fill="none" xmlns="http://www.w3.org/2000/svg">
<g clip-path="url(#clip0_69_697)">
<path d="M39.3885 2.11407C18.6294 2.11407 1.80078 18.9426 1.80078 39.7018C1.80078 53.7219 9.47766 65.9475 20.8562 72.4087H57.9206C69.2993 65.9475 76.9762 53.7219 76.9762 39.7018C76.9762 18.9426 60.1476 2.11407 39.3885 2.11407Z" fill="#1D2E79"/>
<path d="M28.8526 4.44128H10.1196C9.45228 4.91749 8.7461 5.78032 8.7461 7.30161V15.2256C8.7461 15.2256 8.73474 16.7428 9.96623 17.3434C11.1977 17.9441 13.5171 34.0847 13.5171 34.0847C13.5171 34.0847 9.87034 36.2002 12.2716 39.6759V41.4495V46.7707C12.2716 46.7707 12.3669 48.6183 13.7017 49.7096H28.8524C29.9141 49.7096 30.7827 48.8409 30.7827 47.7793V6.37159C30.7829 5.30994 29.9142 4.44128 28.8526 4.44128Z" fill="#02C0FC"/>
<path d="M10.2929 4.44128H2.04359C0.981934 4.44128 0.113281 5.30994 0.113281 6.37159V47.7794C0.113281 48.8411 0.981934 49.7097 2.04359 49.7097H13.8749C12.5401 48.6185 12.4449 46.7708 12.4449 46.7708V41.4497V39.676C10.0436 36.2003 13.6903 34.0849 13.6903 34.0849C13.6903 34.0849 11.3708 17.9441 10.1393 17.3434C8.90781 16.7428 8.91917 15.2256 8.91917 15.2256C8.91917 15.2256 8.91917 10.1857 8.91917 7.30161C8.91932 5.78032 9.6255 4.91734 10.2929 4.44128Z" fill="#1D8DF2"/>
<path d="M22.1704 32.8721C21.1225 33.0169 20.4004 32.8647 20.0215 32.4202C19.4285 31.7243 19.8008 30.4746 19.8044 30.4628L19.9415 30.0211C19.7017 29.9665 18.0985 29.999 17.4782 28.9929C17.0988 28.3772 17.1875 27.5844 17.4427 26.8952L15.3615 23.2905C15.2434 23.2641 13.8923 23.2948 13.2267 22.3781C12.6147 21.5359 12.8846 20.3578 12.8872 20.3472L12.9823 19.9556C12.803 19.899 11.2018 19.7904 10.6683 18.7384C10.3817 18.1734 10.468 17.514 10.5882 17.0637C7.6707 18.7786 5.71094 21.9482 5.71094 25.5772C5.71094 31.0284 10.13 35.4475 15.5812 35.4475C18.1495 35.4475 20.488 34.4661 22.2439 32.8586C22.2199 32.8622 22.194 32.8688 22.1704 32.8721Z" fill="#FEF156"/>
<path d="M25.4514 25.5772C25.4514 20.126 21.0323 15.7069 15.5811 15.7069C13.5695 15.7069 11.6995 16.3101 10.1392 17.3434C9.97626 18.3491 10.1696 19.8269 12.5176 20.2574C12.5176 20.2574 11.7594 23.3773 15.1316 23.6532L17.0226 26.9285C17.0226 26.9285 15.8572 29.9685 19.4412 30.3503C19.4412 30.3503 18.4752 33.4723 21.7304 33.2951C23.9971 31.4866 25.4514 28.7025 25.4514 25.5772Z" fill="#FFFBB3"/>
<path d="M17.4781 28.9927C17.0986 28.3771 17.1873 27.5842 17.4425 26.895L15.3613 23.2905C15.2432 23.2641 13.8921 23.2948 13.2265 22.3781C12.6145 21.5358 12.8844 20.3577 12.887 20.3472L12.966 20.0219C10.8832 21.0039 9.44141 23.1219 9.44141 25.5772C9.44141 28.9679 12.19 31.7167 15.5809 31.7167C17.2304 31.7167 18.7269 31.0649 19.83 30.0064C19.3926 29.9628 18.0374 29.9 17.4781 28.9927Z" fill="#FEA53D"/>
<path d="M21.7209 25.5772C21.7209 22.1865 18.9721 19.4377 15.5814 19.4377C14.4653 19.4377 13.4198 19.7371 12.518 20.2575C11.6162 20.7779 11.7598 23.3774 15.1319 23.6532L17.023 26.9285C17.023 26.9285 15.8576 29.9685 19.4416 30.3504C20.8316 29.2247 21.7209 27.5051 21.7209 25.5772Z" fill="#FFC242"/>
<path d="M13.6904 25.0045V26.1499C13.6904 26.4712 13.8618 26.7679 14.1399 26.9285L15.1319 27.5012C15.4101 27.6618 15.7528 27.6618 16.031 27.5012L17.023 26.9285C17.3011 26.7679 17.4725 26.4712 17.4725 26.1499V25.0045C17.4725 24.6832 17.3011 24.3865 17.023 24.2259L16.031 23.6532C15.7528 23.4926 15.4101 23.4926 15.1319 23.6532L14.1399 24.2259C13.8618 24.3865 13.6904 24.6832 13.6904 25.0045Z" fill="#FEF156"/>
<path d="M76.7328 4.44128H58.0089C57.2749 4.75686 56.4521 5.51997 56.4521 7.35929V15.0311C56.4521 15.0311 56.508 16.9059 58.0653 17.6845L61.0156 35.4474C61.0156 35.4474 58.799 37.0699 61.0156 39.2865C63.2321 41.5031 60.6467 42.7042 60.6467 42.7042V45.8911C60.6467 45.8911 60.6877 48.5428 62.8193 49.7096H76.7328C77.7944 49.7096 78.6631 48.8409 78.6631 47.7793V6.37159C78.6631 5.30994 77.7944 4.44128 76.7328 4.44128Z" fill="#FEF156"/>
<path d="M58.1818 4.44128H49.9235C48.8618 4.44128 47.9932 5.30994 47.9932 6.37159V47.7794C47.9932 48.8411 48.8618 49.7097 49.9235 49.7097H62.9922C60.8606 48.5428 60.8197 45.8913 60.8197 45.8913V42.7042C60.8197 42.7042 63.4051 41.5031 61.1885 39.2865C58.9719 37.0699 61.1885 35.4474 61.1885 35.4474L58.2383 17.6845C56.6809 16.9057 56.6251 15.0311 56.6251 15.0311C56.6251 15.0311 56.6251 10.6788 56.6251 7.35929C56.6251 5.51997 57.4479 4.75686 58.1818 4.44128Z" fill="#FFC242"/>
<path d="M63.4818 20.1651C63.4818 20.1651 63.0212 18.3183 61.769 16.6228C60.5265 14.9408 57.8654 15.716 57.7413 17.8035C57.6651 19.0844 58.6833 20.1651 59.9667 20.1651H63.4818Z" fill="#02C0FC"/>
<path d="M63.1748 20.1651C63.1748 20.1651 63.6354 18.3183 64.8877 16.6228C66.1302 14.9408 68.7913 15.716 68.9154 17.8035C68.9916 19.0844 67.9734 20.1651 66.6901 20.1651H63.1748Z" fill="#2FD0E2"/>
<path d="M67.3161 58.0597L63.3007 55.4991C62.5496 55.0201 61.5665 55.5634 61.5723 56.4541V61.6661C61.5665 62.5568 62.5496 63.1001 63.3007 62.6211L67.3161 60.0605C68.0277 59.6069 68.0359 58.5187 67.3161 58.0597Z" fill="#3F57A0"/>
<path d="M11.4606 58.0597L15.476 55.4991C16.2271 55.0201 17.2102 55.5634 17.2044 56.4541V61.6661C17.2102 62.5568 16.2271 63.1001 15.476 62.6211L11.4606 60.0605C10.7491 59.6069 10.7408 58.5187 11.4606 58.0597Z" fill="#3F57A0"/>
<path d="M15.2557 40.8587C15.2557 39.5976 16.2875 38.5659 17.5486 38.5659H12.2274C10.9663 38.5659 9.93457 39.5976 9.93457 40.8587C9.93457 42.1198 10.9663 43.1515 12.2274 43.1515H17.5486C16.2876 43.1515 15.2557 42.1198 15.2557 40.8587Z" fill="#47CB8F"/>
<path d="M20.9624 40.8587C20.9624 39.5976 19.9307 38.5659 18.6696 38.5659H17.3758C16.1147 38.5659 15.083 39.5976 15.083 40.8587C15.083 42.1198 16.1149 43.1515 17.3758 43.1515H18.6696C19.9306 43.1515 20.9624 42.1198 20.9624 40.8587Z" fill="#94DC79"/>
<path d="M61.3179 23.3715H54.8506V34.5861C54.8506 35.0618 55.2361 35.4474 55.7119 35.4474H61.3179V23.3715Z" fill="#E3379F"/>
<path d="M65.3389 23.3715V35.4474H70.9449C71.4205 35.4474 71.8062 35.0618 71.8062 34.5861V23.3715H65.3389Z" fill="#FE3D97"/>
<path d="M55.5878 29.8066H37.5023C36.2398 30.5006 34.9986 31.7037 34.9986 33.7576V39.0881C34.9986 39.0881 34.9505 41.9107 35.7335 42.6938C36.5165 43.4768 38.0414 59.0601 38.0414 59.0601C38.0414 59.0601 34.1548 62.5361 36.7629 66.7291C39.371 70.9222 37.0187 73.1727 37.0187 73.1727C37.0187 73.1727 35.8665 74.767 36.3693 77.1691C37.3653 77.2482 38.372 77.2894 39.3882 77.2894C46.1273 77.2894 52.4511 75.5143 57.9205 72.4085V32.1394C57.9207 30.8563 56.8708 29.8066 55.5878 29.8066Z" fill="#E8F8FC"/>
<path d="M35.1524 33.7576C35.1524 31.7037 36.3935 30.5004 37.656 29.8066H23.1892C21.9061 29.8066 20.8564 30.8563 20.8564 32.1395V72.4088C25.5438 75.0705 30.8591 76.7536 36.5253 77.1809C36.0164 74.7722 37.1724 73.173 37.1724 73.173C37.1724 73.173 39.5248 70.9225 36.9167 66.7294C34.3086 62.5364 38.1951 59.0604 38.1951 59.0604C38.1951 59.0604 36.6703 43.4771 35.8873 42.6941C35.1042 41.911 35.1524 39.0884 35.1524 39.0884C35.1524 39.0884 35.1524 37.9375 35.1524 33.7576Z" fill="#ADE9F7"/>
<path d="M38.8651 69.951C38.8651 68.179 40.3149 66.7292 42.0869 66.7292H34.8624C33.0904 66.7292 31.6406 68.179 31.6406 69.951C31.6406 71.723 33.0904 73.1728 34.8624 73.1728H42.0869C40.3149 73.1728 38.8651 71.723 38.8651 69.951Z" fill="#47CB8F"/>
<path d="M47.1361 69.951C47.1361 68.179 45.6863 66.7292 43.9143 66.7292H41.9337C40.1617 66.7292 38.7119 68.179 38.7119 69.951C38.7119 71.723 40.1617 73.1728 41.9337 73.1728H43.9143C45.6863 73.1728 47.1361 71.723 47.1361 69.951Z" fill="#94DC79"/>
<path d="M61.1885 23.3715H65.4676V35.4474H61.1885V23.3715Z" fill="#02C0FC"/>
<path d="M60.8728 19.4205H54.7966C54.3685 19.4205 54.0215 19.7676 54.0215 20.1956V22.7696C54.0215 23.1977 54.3685 23.5447 54.7966 23.5447H60.8728V19.4205Z" fill="#FE3D97"/>
<path d="M71.8605 19.4205H65.7842V23.5446H71.8605C72.2885 23.5446 72.6355 23.1975 72.6355 22.7695V20.1954C72.6354 19.7676 72.2883 19.4205 71.8605 19.4205Z" fill="#FD77A6"/>
<path d="M60.7627 19.4205H65.8948V23.5446H60.7627V19.4205Z" fill="#3FEADD"/>
<path d="M25.8031 12.6984H22.8309C21.5285 12.6984 20.4629 11.6327 20.4629 10.3303C20.4629 9.02798 21.5285 7.96234 22.8309 7.96234H25.8031C27.1054 7.96234 28.1711 9.02798 28.1711 10.3303C28.1711 11.6327 27.1054 12.6984 25.8031 12.6984Z" fill="#3FEADD"/>
<path d="M74.1214 12.6984H71.1493C69.8469 12.6984 68.7812 11.6327 68.7812 10.3303C68.7812 9.02798 69.8469 7.96234 71.1493 7.96234H74.1214C75.4238 7.96234 76.4894 9.02798 76.4894 10.3303C76.4894 11.6327 75.4238 12.6984 74.1214 12.6984Z" fill="#FFFBB3"/>
<path d="M51.8701 37.9565H49.2351C48.0805 37.9565 47.1357 37.0117 47.1357 35.8571C47.1357 34.7025 48.0805 33.7578 49.2351 33.7578H51.8701C53.0247 33.7578 53.9694 34.7025 53.9694 35.8571C53.9694 37.0117 53.0247 37.9565 51.8701 37.9565Z" fill="#C09AFC"/>
<path d="M33.7783 48.4031L33.8789 48.1525H27.4817C27.256 48.1525 27.0339 48.1875 26.82 48.2481C26.7833 48.5999 26.8806 48.9626 27.1196 49.2507L37.7124 62.0129C38.0815 62.4575 38.5835 62.7117 39.1056 62.7796L33.7783 48.4031Z" fill="#1D8DF2"/>
<path d="M51.9573 48.2481C51.7434 48.1874 51.5213 48.1525 51.2956 48.1525H44.8984L44.999 48.4031L39.6719 62.7796C40.194 62.7117 40.6959 62.4575 41.0651 62.0129L51.6578 49.2507C51.8967 48.9626 51.9939 48.5999 51.9573 48.2481Z" fill="#3FEADD"/>
<path d="M45.0809 48.1525H33.6953L33.5957 48.4006L38.9118 62.747C39.2252 62.8167 39.5511 62.8167 39.8645 62.747L45.1806 48.4006L45.0809 48.1525Z" fill="#02C0FC"/>
<path d="M44.9972 48.4006H51.9679C51.9707 48.0965 51.8712 47.7915 51.6689 47.5407L50.9897 46.6986L48.3471 43.422C47.9755 42.9615 47.4155 42.6936 46.8238 42.6936H42.7061L44.9972 48.4006Z" fill="#64F9EA"/>
<path d="M36.0695 42.6937H31.9518C31.36 42.6937 30.8001 42.9614 30.4285 43.4222L27.7859 46.6987L27.1067 47.5408C26.9043 47.7917 26.8051 48.0966 26.8077 48.4007H33.7784L36.0695 42.6937Z" fill="#02C0FC"/>
<path d="M35.8868 42.6937L33.5957 48.4006H45.1806L42.8896 42.6937H35.8868Z" fill="#3FEADD"/>
<path d="M63.1356 40.8587C63.1356 39.5976 64.1673 38.5659 65.4284 38.5659H60.1073C58.8462 38.5659 57.8145 39.5976 57.8145 40.8587C57.8145 42.1198 58.8462 43.1515 60.1073 43.1515H65.4284C64.1675 43.1515 63.1356 42.1198 63.1356 40.8587Z" fill="#47CB8F"/>
<path d="M68.8423 40.8587C68.8423 39.5976 67.8106 38.5659 66.5495 38.5659H65.2557C63.9946 38.5659 62.9629 39.5976 62.9629 40.8587C62.9629 42.1198 63.9946 43.1515 65.2557 43.1515H66.5495C67.8106 43.1515 68.8423 42.1198 68.8423 40.8587Z" fill="#94DC79"/>
</g>
<defs>
<clipPath id="clip0_69_697">
<rect width="78.55" height="78.55" fill="white" transform="translate(0.113281 0.426758)"/>
</clipPath>
</defs>
</svg>
