<svg width="79" height="80" viewBox="0 0 79 80" fill="none" xmlns="http://www.w3.org/2000/svg">
<g clip-path="url(#clip0_65_295)">
<path d="M13.4668 68.8884H65.0835C72.336 62.0359 76.8628 52.3287 76.8628 41.5635C76.8628 20.8044 60.0342 3.97583 39.2751 3.97583C18.5159 3.97583 1.6875 20.8044 1.6875 41.5635C1.6875 52.3289 6.21425 62.0359 13.4668 68.8884Z" fill="#FEF156"/>
<path d="M9.87305 27.3673V36.1282C9.87305 37.7917 11.234 39.1527 12.8975 39.1527H13.8002V24.3428H12.8975C11.234 24.3428 9.87305 25.7037 9.87305 27.3673Z" fill="#1D2E79"/>
<path d="M9.87305 14.7869V16.9099C9.87305 18.5734 11.234 19.9344 12.8975 19.9344H13.8002V11.7625H12.8975C11.234 11.7625 9.87305 13.1234 9.87305 14.7869Z" fill="#1D2E79"/>
<path d="M56.3848 5.23086C55.4718 4.5098 55.0186 3.74623 55.0376 2.9615C55.0689 1.67616 56.3656 0.735559 56.3786 0.726354L56.5032 0.606841C56.432 0.605 56.3613 0.601318 56.2897 0.601318H34.6761C34.6761 0.601318 31.5311 3.13364 34.6761 5.35129C34.6761 5.35129 34.5993 5.43276 34.477 5.58142H56.2895C56.457 5.58142 56.6218 5.59339 56.7837 5.61456C56.6533 5.46651 56.5204 5.33795 56.3848 5.23086Z" fill="#3F57A0"/>
<path d="M64.9679 21.4392C64.2326 22.2827 63.4606 22.6969 62.6636 22.6742C61.5094 22.6391 60.6472 21.6772 60.4835 21.4812C60.4634 21.1885 60.3501 19.6221 60.1035 17.5721V72.8534C61.8749 71.6718 63.5415 70.3456 65.0836 68.8885V21.3083C65.045 21.3521 65.0057 21.3959 64.9679 21.4392Z" fill="#3F57A0"/>
<path d="M56.2898 0.601318C56.2898 0.601318 53.1263 2.85227 56.2898 5.35129C56.3795 5.42217 56.4671 5.50318 56.5532 5.59155C58.5334 5.72747 60.1033 7.38071 60.1033 9.39493V18.9406C60.2664 20.4992 60.3334 21.5401 60.3334 21.5401C60.3334 21.5401 62.5568 24.4394 65.0834 21.5401V9.39493C65.0834 4.55843 61.1263 0.601318 56.2898 0.601318Z" fill="#4B67AA"/>
<path d="M34.8299 0.601318H22.2604C17.4239 0.601318 13.4668 4.55843 13.4668 9.39493V68.8886C15.009 70.3456 16.6755 71.6719 18.4469 72.8535V9.39478C18.4469 7.29203 20.1575 5.58127 22.2603 5.58127H34.6308C34.7529 5.4326 34.8299 5.35114 34.8299 5.35114C31.6849 3.13364 34.8299 0.601318 34.8299 0.601318Z" fill="#2A428B"/>
<path d="M36.6709 17.4187C36.7824 17.4918 36.8957 17.564 37.0123 17.6347C36.8502 18.0362 36.4274 19.2992 36.9213 20.5406C37.2741 21.4275 38.0174 22.1043 39.1316 22.5536L41.0688 42.3976C40.8451 42.7123 39.7161 44.4149 40.0886 46.2518C40.3189 47.3871 41.0787 48.3348 42.3472 49.0682C44.7921 50.4822 46.4554 53.082 46.5852 55.6919C46.6799 57.5986 46.0194 60.4278 42.3345 63.0788L42.3101 63.1006C42.267 63.1485 41.2541 64.2895 41.4247 65.6153C41.522 66.3721 41.9847 67.0275 42.8003 67.5634C45.2092 69.1464 44.9257 70.1892 44.8955 70.2789C44.7454 70.5115 43.1462 73.0823 44.0802 75.7183C44.4622 76.7961 45.2137 77.7224 46.3235 78.4908C51.4354 77.5207 56.1809 75.5163 60.3336 72.7023C60.3336 70.6839 60.3336 35.1377 60.3336 17.4186L36.6709 17.4187Z" fill="#E8F8FC"/>
<path d="M18.2168 72.7024C24.5066 76.9642 31.8287 79.1513 39.2753 79.1513C41.7594 79.1513 44.1868 78.9094 46.5362 78.4494C41.7769 75.2812 45.0324 70.35 45.0324 70.35C45.0324 70.35 45.5694 69.1994 42.8846 67.4351C40.1998 65.6708 42.4243 63.2034 42.4243 63.2034C49.5326 58.0895 46.6689 51.3902 42.4243 48.9355C38.1797 46.4808 41.2273 42.4409 41.2273 42.4409L39.2753 22.4453C35.5638 21.0133 37.2064 17.5721 37.2064 17.5721C37.121 17.5216 37.0387 17.4701 36.9565 17.4187H18.2168V72.7024Z" fill="#ADE9F7"/>
<path d="M56.2892 5.35132C55.7653 5.35132 44.1659 5.35132 34.6487 5.35132C34.3052 5.9182 32.3758 9.31088 33.1761 12.7349C33.634 14.6939 34.8917 16.3198 36.9126 17.5721H60.3327C60.3327 11.0246 60.3327 9.97442 60.3327 9.39496C60.3327 7.17086 58.5132 5.35132 56.2892 5.35132Z" fill="#FE3D97"/>
<path d="M34.8298 5.35132C28.2773 5.35132 22.6673 5.35132 22.2603 5.35132C20.0363 5.35132 18.2168 7.17086 18.2168 9.39496V17.5721H37.2064C29.7383 13.1592 34.8298 5.35132 34.8298 5.35132Z" fill="#E51E82"/>
<path d="M48.2298 38.5536C46.7018 38.9168 45.4479 38.7644 44.5038 38.0997C43.0352 37.0658 42.8028 35.1135 42.8007 35.0939L42.7841 34.9445L42.637 34.915C39.1507 34.2177 37.7428 30.9093 37.459 30.1362C38.0162 29.8424 39.7895 28.814 40.0115 27.5158C40.1074 26.9555 39.9086 26.4239 39.4206 25.9361C38.842 25.3575 38.5636 24.761 38.5926 24.1632C38.6372 23.2459 39.3977 22.6104 39.4051 22.6044L39.5906 22.4532C39.4855 22.4501 39.381 22.4452 39.2753 22.4452C33.3992 22.4452 28.6357 27.2087 28.6357 33.0849C28.6357 38.9609 33.3992 43.7244 39.2753 43.7244C43.1709 43.7244 46.5758 41.6297 48.4296 38.5061L48.2298 38.5536Z" fill="#FFC242"/>
<path d="M39.2749 22.4453C39.2749 22.4453 37.2719 24.0784 39.2749 26.0813C41.2778 28.0842 37.2061 30.0341 37.2061 30.0341C37.2061 30.0341 38.4894 34.295 42.5962 35.1164C42.5962 35.1164 43.1258 39.9776 48.277 38.7533C49.3127 37.1119 49.9144 35.1692 49.9144 33.0848C49.9144 27.2088 45.151 22.4453 39.2749 22.4453Z" fill="#FEF156"/>
<path d="M37.7354 38.7533V39.6069C37.7354 40.4576 38.4248 41.1469 39.2754 41.1469C40.1261 41.1469 40.8154 40.4575 40.8154 39.6069V38.7533H37.7354Z" fill="#FC753F"/>
<path d="M40.8154 27.6649V26.5627C40.8154 25.712 40.1259 25.0227 39.2754 25.0227C38.4247 25.0227 37.7354 25.7122 37.7354 26.5627V27.6649H40.8154Z" fill="#FC753F"/>
<path d="M39.2852 39.4943C38.0525 39.4943 37.2812 39.3506 36.1173 38.5887C35.4056 38.1231 35.2061 37.1685 35.6719 36.4568C36.1375 35.7448 37.0921 35.5456 37.8038 36.0114C38.3894 36.3946 38.5457 36.4203 39.3788 36.4137C40.0575 36.4092 40.3281 35.8767 40.3808 35.5628C40.4579 35.1032 40.1951 34.9143 39.9561 34.8163L37.8148 34.3352C37.7553 34.322 37.6966 34.3049 37.639 34.2847C35.8261 33.6436 34.8184 31.9603 35.1319 30.0962C35.4629 28.1276 37.1531 26.689 39.1511 26.6758C40.4478 26.6692 41.2334 26.7961 42.4329 27.5809C43.1446 28.0466 43.344 29.0011 42.8782 29.7128C42.4126 30.4245 41.4577 30.6237 40.7463 30.1582C40.1604 29.7748 40.002 29.7509 39.1715 29.7559C38.4928 29.7604 38.2222 30.2929 38.1695 30.607C38.0921 31.0664 38.355 31.2553 38.594 31.3533L40.7353 31.8345C40.7948 31.8476 40.8536 31.8647 40.9111 31.8849C42.7244 32.5261 43.732 34.2091 43.4186 36.0734C43.0875 38.0421 41.3973 39.4807 39.3993 39.4938C39.3608 39.4942 39.3228 39.4943 39.2852 39.4943Z" fill="#FC753F"/>
<path d="M57.1732 10.7856C57.1732 9.73022 56.3179 8.87476 55.2624 8.87476H48.11C47.0547 8.87476 46.1992 9.73006 46.1992 10.7856C46.1992 11.8409 47.0547 12.6964 48.11 12.6964H55.2624C56.3179 12.6962 57.1732 11.8409 57.1732 10.7856Z" fill="#FD77A6"/>
<path d="M31.6426 56.2532C31.6426 54.9551 32.6946 53.903 33.9926 53.903H48.4615C49.7596 53.903 50.8115 54.9549 50.8115 56.2532C50.8115 57.5512 49.7596 58.6032 48.4615 58.6032H33.9926C32.6946 58.6032 31.6426 57.5511 31.6426 56.2532Z" fill="#E51E82"/>
<path d="M50.5632 54.5913C49.6453 53.6734 48.1574 53.6734 47.2397 54.5913L41.0195 60.8114C40.1016 61.7293 40.1016 63.217 41.0195 64.1349C41.9374 65.0528 43.4252 65.0528 44.343 64.1349L50.5632 57.9147C51.4811 56.997 51.4811 55.5092 50.5632 54.5913Z" fill="#FE3D97"/>
<path d="M41.0194 48.3709C41.9373 47.453 43.4251 47.453 44.3429 48.3709L50.563 54.5911C51.4809 55.509 51.4809 56.9967 50.563 57.9146C49.6451 58.8325 48.1573 58.8325 47.2395 57.9146L41.0194 51.6944C40.1016 50.7765 40.1016 49.2888 41.0194 48.3709Z" fill="#FD77A6"/>
<path d="M46.9072 68.7915C46.9072 67.4934 45.8553 66.4414 44.5572 66.4414H30.0883C28.7903 66.4414 27.7383 67.4934 27.7383 68.7915C27.7383 70.0895 28.7903 71.1415 30.0883 71.1415H44.5572C45.8553 71.1415 46.9072 70.0895 46.9072 68.7915Z" fill="#27A6FF"/>
<path d="M27.9863 67.1298C28.9042 66.2119 30.3919 66.2119 31.3098 67.1298L37.5299 73.35C38.4478 74.2679 38.4478 75.7558 37.5299 76.6735C36.6121 77.5914 35.1242 77.5914 34.2065 76.6735L27.9863 70.4533C27.0684 69.5354 27.0684 68.0476 27.9863 67.1298Z" fill="#02C0FC"/>
<path d="M37.5299 60.9094C36.6121 59.9915 35.1244 59.9915 34.2065 60.9094L27.9863 67.1296C27.0684 68.0475 27.0684 69.5351 27.9863 70.453C28.9042 71.3709 30.392 71.3709 31.3098 70.453L37.5299 64.2329C38.4478 63.3151 38.4478 61.8273 37.5299 60.9094Z" fill="#58D4FA"/>
</g>
<defs>
<clipPath id="clip0_65_295">
<rect width="78.55" height="78.55" fill="white" transform="translate(0 0.601318)"/>
</clipPath>
</defs>
</svg>
