<svg width="93" height="92" viewBox="0 0 93 92" fill="none" xmlns="http://www.w3.org/2000/svg">
<g clip-path="url(#clip0_14_358)">
<path d="M77.1765 12.8512L74.4188 13.3684L73.2284 9.77589C66.1233 4.85911 57.5034 1.97638 48.2089 1.97638C23.8952 1.9762 4.18506 21.6863 4.18506 46C4.18506 70.3137 23.8952 90.0238 48.2089 90.0238C49.4665 90.0238 50.7108 89.9681 51.9417 89.8648L62.4696 80.7961L72.1916 82.9207C84.2551 75.0686 92.2327 61.4668 92.2327 46C92.2327 32.7791 86.4034 20.9208 77.1765 12.8512Z" fill="#FEF156"/>
<path d="M26.1563 39.7551L18.2222 27.5556L3.80783 40.5477C-0.271614 44.2247 -0.948497 50.375 2.23359 54.8512C5.57991 59.5583 12.0336 60.8068 16.8939 57.6872C21.4952 54.7362 21.1877 54.9254 21.4075 54.7982C21.6388 54.6643 21.8759 54.5546 22.1164 54.467L26.1563 39.7551Z" fill="#391A6F"/>
<path d="M51.1101 74.7698C51.1108 75.0303 51.0885 75.2957 51.0411 75.5636C50.9998 75.7974 51.0781 75.4186 49.8726 80.7792C49.1285 84.083 49.9845 87.3865 51.9413 89.8646C59.3694 89.2407 66.2721 86.7736 72.1914 82.9206L77.7328 69.2255L63.8979 65.8177L51.1101 74.7698Z" fill="#5A3F8F"/>
<path d="M73.2281 9.77573C73.0301 10.6918 72.9798 11.5126 72.9347 12.2551C72.8443 13.7411 72.773 14.9148 71.5211 16.7027C70.2694 18.4904 69.1907 18.959 67.8253 19.5522C66.2439 20.2389 64.2758 21.0939 62.3326 23.869C61.6563 24.835 61.8909 26.1665 62.8569 26.8428C63.8229 27.5191 65.1544 27.2845 65.8308 26.3185C67.0827 24.5308 68.1611 24.0621 69.5266 23.469C71.108 22.7822 73.0761 21.9273 75.0193 19.152C76.8377 16.5552 77.0684 14.5128 77.1762 12.8511C75.9213 11.7535 74.6028 10.727 73.2281 9.77573Z" fill="#FE3D97"/>
<path d="M56.1854 51.5983C61.6398 39.1733 58.5183 25.7895 58.5183 25.7895C56.9081 24.925 55.2302 24.1788 53.4968 23.5597C45.4221 20.6668 43.4116 20.0019 40.834 18.9247C35.4286 16.6657 29.1567 17.6999 24.7532 21.6689L18.2223 27.5554C16.6881 31.6755 13.9671 42.5928 22.1167 54.4669C24.499 53.5988 27.2133 54.9475 27.8627 57.5137L28.6223 60.5144C30.2795 67.0624 36.4847 71.4073 43.2046 70.7252L43.7864 70.6661C43.7864 70.6664 50.731 64.0236 56.1854 51.5983Z" fill="#5A3F8F"/>
<path d="M65.1677 23.8409C63.2093 22.4696 60.5099 22.9456 59.1387 24.904L58.5186 25.7896L59.9994 31.2221L65.6106 30.7557L66.2307 29.87C67.6019 27.9114 67.1261 25.2121 65.1677 23.8409Z" fill="#391A6F"/>
<path d="M73.3147 54.8129L75.2897 41.787C74.0092 40.2572 72.2786 38.1502 69.4229 34.7117C66.387 31.0482 62.6797 28.0237 58.518 25.7895C58.5174 25.7898 52.6812 28.8997 54.7467 33.6806L51.7635 37.9408C51.7635 37.9408 45.4608 37.0544 42.565 41.1901C39.6691 45.3258 35.1336 50.4609 40.5534 55.924L42.4793 60.8176C42.4793 60.8176 37.8733 66.7794 43.7861 70.6662L46.2701 70.4141C48.9056 70.1466 51.1034 72.2335 51.11 74.7698C65.0566 78.3678 74.3857 72.0764 77.7327 69.2255L73.3147 54.8129Z" fill="#775BBC"/>
<path d="M42.034 65.2999C46.1177 64.8936 49.0988 61.2537 48.6925 57.17C48.2862 53.0863 44.6463 50.1052 40.5626 50.5116C36.4789 50.9179 33.4978 54.5577 33.9042 58.6414C34.3105 62.7251 37.9503 65.7062 42.034 65.2999Z" fill="#391A6F"/>
<path d="M78.1097 45.0256C77.21 44.0499 76.4276 43.1464 75.29 41.7872C73.2105 42.6183 68.1316 45.2884 70.322 50.9355L71.5053 58.2795C71.5053 58.2795 67.3857 66.4177 77.733 69.2255L81.0308 61.0751C83.2545 55.5797 82.0811 49.3323 78.1097 45.0256Z" fill="#856BD6"/>
<path d="M42.3648 57.8265L43.7376 54.4016C41.8132 53.0709 39.1728 53.542 37.829 55.4611C36.4802 57.3872 36.9483 60.042 38.8746 61.3908C40.7358 62.694 43.2773 62.3005 44.6632 60.5346L42.3648 57.8265Z" fill="#02C0FC"/>
<path d="M72.3594 55.8889L71.6905 52.0957C71.0058 48.2123 67.3026 45.6192 63.4192 46.304L59.626 46.9728C55.7426 47.6576 53.1495 51.3608 53.8343 55.2442L54.5031 59.0374C55.1879 62.9208 58.8911 65.5139 62.7745 64.8291L66.5677 64.1603C70.4511 63.4757 73.0441 59.7725 72.3594 55.8889Z" fill="#391A6F"/>
<path d="M59.0863 55.089C60.5095 54.8951 61.5061 53.5842 61.3123 52.1609C61.1184 50.7377 59.8074 49.7411 58.3842 49.935C56.9609 50.1288 55.9643 51.4398 56.1582 52.863C56.3521 54.2863 57.663 55.2829 59.0863 55.089Z" fill="#02C0FC"/>
<path d="M69.5057 60.2433C70.3817 59.1059 70.1698 57.4736 69.0324 56.5975C67.8949 55.7214 66.2626 55.9333 65.3866 57.0708C64.5105 58.2082 64.7224 59.8405 65.8598 60.7166C66.9973 61.5927 68.6296 61.3808 69.5057 60.2433Z" fill="#6AD9FB"/>
<path d="M60.5206 62.4906C61.9352 62.2407 62.8794 60.8914 62.6295 59.4767C62.3796 58.0621 61.0303 57.1179 59.6156 57.3678C58.201 57.6177 57.2568 58.967 57.5067 60.3817C57.7566 61.7963 59.1059 62.7405 60.5206 62.4906Z" fill="#02C0FC"/>
<path d="M66.6417 53.7424C68.0563 53.4925 69.0005 52.1431 68.7506 50.7285C68.5007 49.3138 67.1514 48.3696 65.7367 48.6195C64.3221 48.8694 63.3779 50.2188 63.6278 51.6334C63.8777 53.0481 65.227 53.9923 66.6417 53.7424Z" fill="#6AD9FB"/>
<path d="M45.3257 36.9597L44.6569 33.1665C43.9721 29.2831 40.2689 26.6901 36.3855 27.3748L32.5923 28.0436C28.7089 28.7284 26.1158 32.4316 26.8006 36.315L27.4694 40.1082C28.1542 43.9916 31.8574 46.5847 35.7408 45.8999L39.534 45.2311C43.4174 44.5463 46.0104 40.8431 45.3257 36.9597Z" fill="#391A6F"/>
<path d="M32.1612 36.1328C33.5758 35.883 34.5201 34.5336 34.2702 33.1189C34.0203 31.7043 32.6709 30.7601 31.2563 31.01C29.8416 31.2599 28.8974 32.6093 29.1473 34.0239C29.3972 35.4385 30.7466 36.3827 32.1612 36.1328Z" fill="#FE3D97"/>
<path d="M41.9267 37.5685C43.1031 38.3922 43.389 40.0137 42.5653 41.1903C41.7416 42.3667 40.1201 42.6526 38.9435 41.8289C37.7671 41.0052 37.4812 39.3837 38.3049 38.2071C39.1288 37.0307 40.7503 36.7448 41.9267 37.5685Z" fill="#FD77A6"/>
<path d="M30.8713 39.5179C31.6952 38.3415 33.3165 38.0556 34.4931 38.8793C35.6695 39.703 35.9554 41.3245 35.1317 42.5011C34.308 43.6775 32.6865 43.9634 31.51 43.1397C30.3335 42.3159 30.0477 40.6944 30.8713 39.5179Z" fill="#FE3D97"/>
<path d="M39.5958 34.8192C41.0104 34.5693 41.9546 33.2199 41.7047 31.8053C41.4548 30.3906 40.1055 29.4464 38.6908 29.6963C37.2762 29.9462 36.332 31.2956 36.5819 32.7102C36.8318 34.1249 38.1811 35.0691 39.5958 34.8192Z" fill="#FD77A6"/>
<path d="M59.485 36.9984L54.747 33.6808C53.5706 32.8571 51.9491 33.143 51.1252 34.3194C50.3016 35.4958 50.5874 37.1173 51.7639 37.941L56.5019 41.2586C57.6783 42.0823 59.2998 41.7964 60.1235 40.62C60.9473 39.4436 60.6614 37.8221 59.485 36.9984Z" fill="#FE3D97"/>
<path d="M43.7587 54.4157C43.7517 54.4108 43.7447 54.4065 43.7377 54.4016C42.7503 54.4029 41.7791 54.8685 41.1696 55.7387C40.176 57.1577 40.5208 59.1138 41.9399 60.1073C42.7645 60.6848 43.7702 60.8093 44.6633 60.5346C44.7116 60.4729 44.7587 60.41 44.8042 60.3452C46.1531 58.4191 45.685 55.7644 43.7587 54.4157Z" fill="#6AD9FB"/>
</g>
<defs>
<clipPath id="clip0_14_358">
<rect width="92" height="92" fill="white" transform="translate(0.232422)"/>
</clipPath>
</defs>
</svg>
