<svg width="93" height="92" viewBox="0 0 93 92" fill="none" xmlns="http://www.w3.org/2000/svg">
<g clip-path="url(#clip0_14_272)">
<path d="M92.2324 46C92.2324 71.4051 71.6375 92 46.2324 92C20.8273 92 0.232422 71.4051 0.232422 46C0.232422 20.5949 20.8273 0 46.2324 0C71.6375 0 92.2324 20.5949 92.2324 46Z" fill="#F0FAA0"/>
<path d="M31.8574 59.8359V70.9766C31.8574 71.4727 31.4551 71.875 30.959 71.875H11.1934C10.6972 71.875 10.2949 71.4727 10.2949 70.9766V59.8359C10.2949 59.3398 10.6972 58.9375 11.1934 58.9375H30.959C31.4551 58.9375 31.8574 59.3398 31.8574 59.8359ZM30.959 43.125H11.1934C10.6972 43.125 10.2949 43.5273 10.2949 44.0234V55.1641C10.2949 55.6602 10.6972 56.0625 11.1934 56.0625H30.959C31.4551 56.0625 31.8574 55.6602 31.8574 55.1641V44.0234C31.8574 43.5273 31.4551 43.125 30.959 43.125ZM55.3965 58.9375H35.6309C35.1347 58.9375 34.7324 59.3398 34.7324 59.8359V70.9766C34.7324 71.4727 35.1347 71.875 35.6309 71.875H55.3965C55.8926 71.875 56.2949 71.4727 56.2949 70.9766V59.8359C56.2949 59.3398 55.8926 58.9375 55.3965 58.9375ZM55.3965 43.125H35.6309C35.1347 43.125 34.7324 43.5273 34.7324 44.0234V55.1641C34.7324 55.6602 35.1347 56.0625 35.6309 56.0625H55.3965C55.8926 56.0625 56.2949 55.6602 56.2949 55.1641V44.0234C56.2949 43.5273 55.8926 43.125 55.3965 43.125ZM81.2715 58.9375H61.5059C61.0097 58.9375 60.6074 59.3398 60.6074 59.8359V70.9766C60.6074 71.4727 61.0097 71.875 61.5059 71.875H81.2715C81.7676 71.875 82.1699 71.4727 82.1699 70.9766V59.8359C82.1699 59.3398 81.7676 58.9375 81.2715 58.9375ZM81.2715 43.125H61.5059C61.0097 43.125 60.6074 43.5273 60.6074 44.0234V55.1641C60.6074 55.6602 61.0097 56.0625 61.5059 56.0625H81.2715C81.7676 56.0625 82.1699 55.6602 82.1699 55.1641V44.0234C82.1699 43.5273 81.7676 43.125 81.2715 43.125Z" fill="#EBF582"/>
<path d="M81.5522 75.4688C73.1141 85.5711 60.4249 92 46.2326 92C32.0404 92 19.3512 85.5711 10.9131 75.4688H81.5522Z" fill="#F2C230"/>
<path d="M74.8027 4.49219V27.8516C74.8027 28.3477 74.4004 28.75 73.9043 28.75H46.9512C46.4551 28.75 46.0527 28.3477 46.0527 27.8516V4.49219C46.0527 3.99607 46.4551 3.59375 46.9512 3.59375H73.9043C74.4004 3.59375 74.8027 3.99607 74.8027 4.49219Z" fill="#D29650"/>
<path d="M80.1934 47.168L35.2715 53.9062V26.9531H80.1934V47.168Z" fill="#AA6432"/>
<path d="M54.1387 10.7812H46.0527V7.1875H54.1387C54.6348 7.1875 55.0371 7.58982 55.0371 8.08594V9.88281C55.0371 10.3789 54.6348 10.7812 54.1387 10.7812Z" fill="#F7D139"/>
<path d="M72.1075 80.4102C72.1075 81.4026 71.3031 82.207 70.3107 82.207H52.3419C51.3495 82.207 50.545 81.4026 50.545 80.4102C50.545 79.4177 51.3495 78.6133 52.3419 78.6133H70.3107C71.3031 78.6133 72.1075 79.4177 72.1075 80.4102ZM36.17 78.6133H13.8013C15.0832 79.8882 16.4382 81.0894 17.8624 82.207H36.17C37.1624 82.207 37.9669 81.4026 37.9669 80.4102C37.9669 79.4177 37.1624 78.6133 36.17 78.6133Z" fill="#E3A600"/>
<path d="M52.3418 43.125H35.2715V32.3438H52.3418C52.8379 32.3438 53.2402 32.7461 53.2402 33.2422V42.2266C53.2402 42.7227 52.8379 43.125 52.3418 43.125Z" fill="#FF6633"/>
<path d="M87.7402 13.9258H40.6605C40.6585 13.9258 40.6564 13.9258 40.6544 13.9258H24.0962L22.6396 8.09941C22.4224 7.23027 21.6054 6.67036 20.7407 6.74691C20.6855 6.7417 20.6296 6.73828 20.573 6.73828H6.48555C5.51308 6.73828 4.72461 7.54274 4.72461 8.53516C4.72461 9.52757 5.5129 10.332 6.48555 10.332H19.4937L20.9373 16.1068L28.0067 53.3977L24.5826 63.6701C24.2687 64.6115 24.7776 65.6291 25.7191 65.943C25.9076 66.0059 26.0992 66.0357 26.2876 66.0357C27.04 66.0357 27.7411 65.5595 27.992 64.8065L31.166 55.2845L87.9675 48.052C88.8649 47.9378 89.5375 47.1743 89.5375 46.2695V35.5106V35.5102L89.5371 15.7227C89.5371 14.7302 88.7327 13.9258 87.7402 13.9258ZM24.8627 17.5195H39.0444L39.9477 26.1014L26.5642 26.4949L24.8627 17.5195ZM27.2421 30.0703L40.3252 29.6856L41.189 37.8907L28.9348 38.9979L27.2421 30.0703ZM31.3313 51.6408L29.607 42.5455L41.565 41.4649L42.4689 50.0514C42.4748 50.1082 42.4836 50.1643 42.4946 50.2192L31.3313 51.6408ZM42.6579 17.5195H56.8361C56.8361 17.5546 56.8349 17.5896 56.837 17.625L57.3057 25.5907L43.5502 25.9952L42.6579 17.5195ZM43.9274 29.5796L57.5166 29.18L57.94 36.377L44.7681 37.5673L43.9274 29.5796ZM46.0477 49.7668C46.0461 49.7362 46.0459 49.7059 46.0427 49.6752L45.1444 41.1414L58.1511 39.9661L58.6334 48.1643L46.0477 49.7668ZM60.4308 17.5195H73.0059V25.1291L60.8994 25.4851L60.4308 17.5195ZM61.1105 29.0742L73.0059 28.7243V35.0153L61.5211 36.0532L61.1105 29.0742ZM62.2066 47.7094L61.7321 39.6427L73.0059 38.6238V46.2695C73.0059 46.2913 73.0084 46.3123 73.0091 46.3339L62.2066 47.7094ZM85.9434 44.6868L76.5996 45.8766V38.2991L85.9434 37.4548V44.6868ZM85.9434 33.8465L76.5996 34.6908V28.6188L85.9434 28.3441V33.8465ZM85.9434 24.7485L76.5996 25.0233V17.5195H85.9434V24.7485Z" fill="#414669"/>
<path d="M80.1934 61.9922V65.5859C80.1934 66.0821 79.791 66.4844 79.2949 66.4844H25.3887C24.8926 66.4844 24.4902 66.0821 24.4902 65.5859V61.9922C24.4902 61.4961 24.8926 61.0938 25.3887 61.0938H79.2949C79.791 61.0938 80.1934 61.4961 80.1934 61.9922ZM14.3828 5.39062H6.74609C4.88525 5.39062 3.37695 6.8991 3.37695 8.75977C3.37695 10.6204 4.88543 12.1289 6.74609 12.1289H14.3828C16.2435 12.1289 17.752 10.6204 17.752 8.75977C17.752 6.8991 16.2435 5.39062 14.3828 5.39062Z" fill="#FF6633"/>
<path d="M73.0059 61.543V74.1211C73.0059 74.6172 72.6035 75.0195 72.1074 75.0195H68.5137C68.0176 75.0195 67.6152 74.6172 67.6152 74.1211V61.543C67.6152 61.0469 68.0176 60.6445 68.5137 60.6445H72.1074C72.6035 60.6445 73.0059 61.0469 73.0059 61.543ZM37.9668 60.6445H34.373C33.8769 60.6445 33.4746 61.0469 33.4746 61.543V74.1211C33.4746 74.6172 33.8769 75.0195 34.373 75.0195H37.9668C38.4629 75.0195 38.8652 74.6172 38.8652 74.1211V61.543C38.8652 61.0469 38.4629 60.6445 37.9668 60.6445Z" fill="#FF5019"/>
<path d="M76.5996 75.918C76.5996 79.3913 73.7839 82.207 70.3105 82.207C66.8372 82.207 64.0215 79.3913 64.0215 75.918C64.0215 72.4446 66.8372 69.6289 70.3105 69.6289C73.7839 69.6289 76.5996 72.4446 76.5996 75.918ZM36.1699 69.6289C32.6966 69.6289 29.8809 72.4446 29.8809 75.918C29.8809 79.3913 32.6966 82.207 36.1699 82.207C39.6433 82.207 42.459 79.3913 42.459 75.918C42.459 72.4446 39.6433 69.6289 36.1699 69.6289Z" fill="#501E0F"/>
<path d="M73.9043 75.918C73.9043 77.9028 72.2954 79.5117 70.3105 79.5117C68.3257 79.5117 66.7168 77.9028 66.7168 75.918C66.7168 73.9331 68.3257 72.3242 70.3105 72.3242C72.2952 72.3242 73.9043 73.9331 73.9043 75.918ZM36.1699 72.3242C34.1851 72.3242 32.5762 73.9331 32.5762 75.918C32.5762 77.9028 34.1851 79.5117 36.1699 79.5117C38.1547 79.5117 39.7637 77.9028 39.7637 75.918C39.7637 73.9331 38.1546 72.3242 36.1699 72.3242Z" fill="#B9783D"/>
</g>
<defs>
<clipPath id="clip0_14_272">
<rect width="92" height="92" fill="white" transform="translate(0.232422)"/>
</clipPath>
</defs>
</svg>
