<svg width="46" height="46" viewBox="0 0 46 46" fill="none" xmlns="http://www.w3.org/2000/svg">
<circle cx="22.8296" cy="22.8296" r="22.8296" fill="#045AF9"/>
<path d="M23.0238 8C14.7264 8 8 14.7264 8 23.0238C8 31.3212 14.7264 38.0476 23.0238 38.0476C31.3213 38.0476 38.0477 31.3212 38.0477 23.0238C38.0405 14.7294 31.3183 8.00713 23.0238 8ZM23.0238 36.7519C15.442 36.7519 9.29572 30.6056 9.29572 23.0238C9.29572 15.442 15.442 9.29571 23.0238 9.29571C30.6056 9.29571 36.7519 15.442 36.7519 23.0238C36.7448 30.6027 30.6027 36.7448 23.0238 36.7519Z" fill="white"/>
<path d="M31.8622 20.6955C31.7503 20.582 31.6004 20.5138 31.4412 20.5038L26.0057 19.7134L23.6021 14.7897C23.4425 14.4695 23.0536 14.3393 22.7333 14.4989C22.6073 14.5617 22.5052 14.6638 22.4425 14.7897L20.013 19.7199L14.5969 20.5038C14.2428 20.5551 13.9974 20.8839 14.0488 21.238C14.0695 21.3804 14.1369 21.5119 14.2406 21.6116L18.1731 25.447L17.1883 30.863C17.1297 31.216 17.3683 31.5497 17.7212 31.6083C17.8602 31.6314 18.0028 31.6086 18.1277 31.5433L23.0191 28.9907L27.8845 31.5498C28.1922 31.7323 28.5897 31.6308 28.7722 31.3231C28.8543 31.1847 28.8819 31.0207 28.8498 30.863L27.9234 25.447L31.8559 21.6116C32.1106 21.3604 32.1134 20.9502 31.8622 20.6955ZM26.7183 24.7537C26.5641 24.903 26.4937 25.1189 26.5305 25.3303L27.2949 29.7876L23.2912 27.6821C23.1026 27.583 22.8773 27.583 22.6887 27.6821L18.6849 29.7876L19.4494 25.3303C19.4861 25.1189 19.4157 24.903 19.2615 24.7537L16.0222 21.5987L20.4989 20.9508C20.7096 20.9192 20.8912 20.7859 20.9848 20.5945L23.0191 16.5454L25.0209 20.601C25.1145 20.7924 25.2961 20.9256 25.5068 20.9573L29.9835 21.6052L26.7183 24.7537Z" fill="white"/>
</svg>
