<svg width="46" height="46" viewBox="0 0 46 46" fill="none" xmlns="http://www.w3.org/2000/svg">
<circle cx="22.8296" cy="22.8296" r="22.8296" fill="#045AF9"/>
<path d="M23.3264 36.1852C22.1773 36.2135 21.0628 35.8252 20.2274 35.1054C19.392 34.3855 18.9038 33.3929 18.8701 32.3454C18.8074 30.9353 18.9126 28.8665 17.8289 28.357C16.1507 27.2912 14.8889 25.7654 14.2266 24.0013C13.5643 22.2372 13.5361 20.3266 14.1459 18.5468C14.7557 16.767 15.9719 15.2108 17.6178 14.104C19.2638 12.9973 21.2538 12.3977 23.299 12.3922C25.3442 12.3867 27.3381 12.9757 28.9912 14.0736C30.6443 15.1715 31.8704 16.7212 32.4917 18.4977C33.113 20.2741 33.097 22.1849 32.4461 23.9525C31.7952 25.7201 30.5433 27.2526 28.872 28.3274C28.5724 28.5355 28.3284 28.8027 28.1583 29.109C27.9882 29.4153 27.8964 29.7527 27.8898 30.096L27.7837 32.3271C27.7538 33.3776 27.2674 34.3742 26.4315 35.0977C25.5956 35.8213 24.4787 36.2124 23.3264 36.1852ZM20.8365 31.034C20.7101 32.9546 21.3662 34.3344 23.3255 34.3512C23.6408 34.3645 23.9558 34.3195 24.2516 34.219C24.5473 34.1185 24.8178 33.9644 25.0466 33.7662C25.2754 33.568 25.4579 33.3296 25.583 33.0654C25.7082 32.8013 25.7736 32.5168 25.7751 32.229L25.8321 31.034H20.8365ZM20.6273 29.2001H26.0039C26.2382 28.2465 26.8458 27.4036 27.713 26.8293C28.8467 26.0974 29.7397 25.0972 30.2956 23.9366C30.8516 22.776 31.0495 21.4991 30.8679 20.2435C30.6348 18.4902 29.6617 16.8887 28.1549 15.7787C26.6481 14.6687 24.7262 14.1376 22.797 14.2981C20.8652 14.3786 19.0444 15.1439 17.7226 16.4308C16.4008 17.7176 15.6826 19.4243 15.7211 21.1869C15.7246 22.2941 16.019 23.3843 16.5797 24.3664C17.1404 25.3485 17.951 26.1938 18.9437 26.8315C19.3876 27.0999 19.7661 27.4487 20.0557 27.8562C20.3453 28.2637 20.5399 28.7211 20.6273 29.2001ZM32.0505 30.0324C31.5438 30.0824 31.0726 29.5041 30.7402 29.2282C30.6426 29.1408 30.5655 29.0361 30.5137 28.9206C30.4619 28.8051 30.4364 28.6812 30.4388 28.5564C30.4412 28.4316 30.4715 28.3086 30.5277 28.1948C30.5839 28.0811 30.665 27.9789 30.7659 27.8946C30.8668 27.8103 30.9855 27.7456 31.1147 27.7045C31.2439 27.6633 31.381 27.6466 31.5175 27.6553C31.6541 27.664 31.7872 27.698 31.9089 27.7551C32.0306 27.8122 32.1383 27.8913 32.2254 27.9876L32.7547 28.4608C32.8941 28.5895 32.989 28.7526 33.0276 28.93C33.0661 29.1074 33.0467 29.2912 32.9717 29.4586C32.8967 29.626 32.7694 29.7696 32.6056 29.8716C32.4418 29.9736 32.2488 30.0295 32.0505 30.0324ZM14.6023 30.0324C14.404 30.0295 14.211 29.9736 14.0472 29.8716C13.8834 29.7696 13.7562 29.626 13.6811 29.4586C13.6061 29.2912 13.5867 29.1074 13.6253 28.93C13.6638 28.7526 13.7587 28.5895 13.8981 28.4608L14.4618 27.9563C14.5987 27.8214 14.7766 27.7269 14.9728 27.6849C15.1689 27.6429 15.3744 27.6554 15.5628 27.7206C15.7511 27.7859 15.9138 27.901 16.0298 28.0512C16.1459 28.2014 16.2101 28.3798 16.2141 28.5634C16.2141 28.8127 16.1056 29.0518 15.9126 29.2283C15.5779 29.5042 15.1107 30.0819 14.6023 30.0324ZM35.6611 22.0788H34.8086C34.5443 22.0754 34.2921 21.9773 34.1065 21.8057C33.9209 21.6341 33.8169 21.4028 33.8169 21.1619C33.8169 20.9209 33.9209 20.6896 34.1065 20.518C34.2921 20.3464 34.5443 20.2483 34.8086 20.2449H35.6611C35.9254 20.2483 36.1776 20.3464 36.3631 20.518C36.5487 20.6896 36.6528 20.9209 36.6528 21.1618C36.6528 21.4028 36.5488 21.6341 36.3632 21.8057C36.1776 21.9773 35.9254 22.0754 35.6611 22.0788ZM11.8442 22.0788H10.9917C10.7274 22.0754 10.4752 21.9773 10.2896 21.8057C10.104 21.6341 10 21.4028 10 21.1619C10 20.9209 10.104 20.6896 10.2896 20.518C10.4752 20.3464 10.7274 20.2483 10.9917 20.2449H11.8443C12.1085 20.2483 12.3607 20.3464 12.5463 20.518C12.7319 20.6896 12.8359 20.9209 12.8359 21.1619C12.8359 21.4028 12.7319 21.6341 12.5463 21.8057C12.3607 21.9773 12.1085 22.0754 11.8442 22.0788ZM31.4445 14.6777C31.2469 14.6749 31.0546 14.6194 30.8912 14.5181C30.7279 14.4168 30.6005 14.2742 30.525 14.1078C30.4494 13.9413 30.4288 13.7584 30.4659 13.5815C30.5029 13.4045 30.5959 13.2414 30.7334 13.112L31.3394 12.5599C31.5294 12.3936 31.7833 12.3019 32.0467 12.3044C32.3101 12.3068 32.5619 12.4034 32.748 12.5732C32.9342 12.7431 33.0399 12.9728 33.0424 13.2129C33.045 13.453 32.9441 13.6844 32.7616 13.8575C32.4264 14.1395 31.9598 14.7278 31.4445 14.6777ZM15.2083 14.6777C14.6948 14.7284 14.2241 14.1393 13.8912 13.8575C13.7085 13.6844 13.6075 13.4529 13.61 13.2127C13.6124 12.9725 13.7182 12.7428 13.9044 12.5728C14.0907 12.4029 14.3426 12.3064 14.6061 12.304C14.8695 12.3016 15.1235 12.3935 15.3135 12.56L15.9195 13.112C16.0569 13.2413 16.1499 13.4045 16.1869 13.5815C16.2239 13.7584 16.2034 13.9413 16.1278 14.1077C16.0522 14.2741 15.9249 14.4168 15.7615 14.518C15.5982 14.6193 15.4059 14.6748 15.2083 14.6777ZM23.3264 11.6108C23.1943 11.6108 23.0635 11.5871 22.9415 11.541C22.8194 11.4949 22.7085 11.4274 22.6151 11.3422C22.5217 11.2571 22.4476 11.156 22.3971 11.0447C22.3466 10.9335 22.3206 10.8142 22.3206 10.6938V9.91696C22.3206 9.67377 22.4266 9.44054 22.6152 9.26857C22.8038 9.09661 23.0597 9 23.3264 9C23.5932 9 23.849 9.09661 24.0376 9.26857C24.2262 9.44054 24.3322 9.67377 24.3322 9.91696V10.6938C24.3322 10.8142 24.3062 10.9335 24.2557 11.0447C24.2052 11.156 24.1311 11.2571 24.0377 11.3422C23.9443 11.4274 23.8334 11.4949 23.7113 11.541C23.5893 11.5871 23.4585 11.6108 23.3264 11.6108Z" fill="white"/>
</svg>
