<svg width="47" height="46" viewBox="0 0 47 46" fill="none" xmlns="http://www.w3.org/2000/svg">
<circle cx="23.2032" cy="23.1781" r="22.8296" fill="#045AF9"/>
<path d="M30.8567 20.0104C30.6252 19.5709 30.2045 19.2637 29.713 19.1786H29.5287L23.4983 18.9045L24.9161 10.3409C24.987 9.84465 24.7365 9.35792 24.2922 9.13102C23.7156 8.83333 23.0115 9.06017 22.7138 9.63674L15.1568 24.0843C14.9394 24.5332 14.9488 25.0578 15.1804 25.5021C15.412 25.9416 15.8326 26.2488 16.3242 26.3339H16.5084L22.553 26.608L21.1352 35.181C21.0974 35.6252 21.3148 36.0553 21.6976 36.2822C22.2506 36.613 22.9689 36.4334 23.2998 35.8805L30.8567 21.4282C31.0836 20.984 31.0836 20.4594 30.8567 20.0104Z" fill="white"/>
</svg>
