<svg width="46" height="46" viewBox="0 0 46 46" fill="none" xmlns="http://www.w3.org/2000/svg">
<circle cx="22.8296" cy="22.8296" r="22.8296" fill="#045AF9"/>
<mask id="mask0_27_46" style="mask-type:luminance" maskUnits="userSpaceOnUse" x="8" y="8" width="31" height="31">
<path d="M38.0186 38.0183V8.02906H8.0293V38.0183H38.0186Z" fill="white" stroke="white" stroke-width="0.0586868"/>
</mask>
<g mask="url(#mask0_27_46)">
<path d="M23.0362 33.5874C17.2116 33.5874 12.4725 28.8483 12.4725 23.0238C12.4725 17.1992 17.2116 12.4601 23.0362 12.4601C28.8607 12.4601 33.5998 17.1992 33.5998 23.0238C33.5998 28.8483 28.8607 33.5874 23.0362 33.5874Z" stroke="white" stroke-width="1.17374" stroke-miterlimit="10" stroke-linecap="round" stroke-linejoin="round"/>
<path d="M12.3242 34.145C12.7711 34.5919 13.4964 34.5919 13.9434 34.145C14.3902 33.6981 14.3903 32.9727 13.9434 32.5258C13.4964 32.0789 12.7711 32.079 12.3242 32.5258C11.8773 32.9728 11.8773 33.6981 12.3242 34.145Z" fill="white" stroke="white" stroke-width="0.0586868"/>
<path d="M13.9637 32.5055C14.4221 32.9639 14.4221 33.7071 13.9637 34.1654C13.5053 34.6238 12.7621 34.6238 12.3038 34.1654C11.8454 33.7071 11.8454 32.9639 12.3038 32.5055C12.7621 32.0471 13.5053 32.0471 13.9637 32.5055Z" stroke="white" stroke-width="1.17374" stroke-miterlimit="10" stroke-linecap="round" stroke-linejoin="round"/>
<path d="M31.8213 13.5214C32.2682 13.9683 32.9935 13.9683 33.4404 13.5214C33.8873 13.0745 33.8873 12.3491 33.4404 11.9022C32.9935 11.4553 32.2682 11.4554 31.8213 11.9022C31.3743 12.3492 31.3743 13.0745 31.8213 13.5214Z" fill="white" stroke="white" stroke-width="0.0586868"/>
<path d="M33.4607 11.8819C33.9191 12.3403 33.9191 13.0835 33.4607 13.5418C33.0023 14.0002 32.2592 14.0002 31.8008 13.5418C31.3424 13.0835 31.3424 12.3403 31.8008 11.8819C32.2592 11.4235 33.0023 11.4235 33.4607 11.8819Z" stroke="white" stroke-width="1.17374" stroke-miterlimit="10" stroke-linecap="round" stroke-linejoin="round"/>
<path d="M23.0176 33.587V12.4598" stroke="white" stroke-width="1.17374" stroke-miterlimit="10" stroke-linecap="round" stroke-linejoin="round"/>
<path d="M28.3156 23.0237C28.3156 28.8578 25.9509 33.5873 23.0338 33.5873C20.1167 33.5873 17.752 28.8578 17.752 23.0237C17.752 17.1896 20.1167 12.4601 23.0338 12.4601C25.9509 12.4601 28.3156 17.1896 28.3156 23.0237Z" stroke="white" stroke-width="1.17374" stroke-miterlimit="10" stroke-linecap="round" stroke-linejoin="round"/>
<path d="M36.0311 16.7561C36.9489 18.6527 37.4638 20.7793 37.4638 23.0238C37.4638 30.9844 30.9874 37.4608 23.0268 37.4608C19.5721 37.4608 16.3969 36.2411 13.9093 34.2096" stroke="white" stroke-width="1.17374" stroke-miterlimit="10" stroke-linecap="round" stroke-linejoin="round"/>
<path d="M9.89434 29.002C9.06181 27.1794 8.59766 25.1547 8.59766 23.0236C8.59766 15.063 15.074 8.58663 23.0346 8.58663C26.4237 8.58663 29.5437 9.76042 32.0096 11.7228" stroke="white" stroke-width="1.17374" stroke-miterlimit="10" stroke-linecap="round" stroke-linejoin="round"/>
<path d="M13.0632 26.545H32.9837" stroke="white" stroke-width="1.17374" stroke-miterlimit="10" stroke-linecap="round" stroke-linejoin="round"/>
<path d="M13.0632 19.5025H32.9837" stroke="white" stroke-width="1.17374" stroke-miterlimit="10" stroke-linecap="round" stroke-linejoin="round"/>
</g>
</svg>
