<svg width="141" height="141" viewBox="0 0 141 141" fill="none" xmlns="http://www.w3.org/2000/svg">
<g filter="url(#filter0_i_31_7)">
<circle cx="70.1392" cy="70.8901" r="70" fill="url(#paint0_linear_31_7)"/>
</g>
<path d="M68.2633 89.8701C64.3699 89.8701 61.3166 89.0435 59.1033 87.3901C56.9166 85.7368 55.6766 83.3635 55.3833 80.2701H62.7833C62.9699 81.4701 63.5033 82.3768 64.3833 82.9901C65.2899 83.5768 66.5566 83.8701 68.1833 83.8701C69.8899 83.8701 71.2099 83.4835 72.1433 82.7101C73.0766 81.9368 73.5433 80.8568 73.5433 79.4701C73.5433 78.2168 73.0899 77.2301 72.1833 76.5101C71.3033 75.7901 70.1033 75.4301 68.5833 75.4301H63.5033V69.6701H68.6233C69.9033 69.6701 70.9033 69.3635 71.6233 68.7501C72.3699 68.1101 72.7433 67.2435 72.7433 66.1501C72.7433 64.9768 72.3299 64.0568 71.5033 63.3901C70.7033 62.6968 69.6099 62.3501 68.2233 62.3501C66.6766 62.3501 65.4766 62.6701 64.6233 63.3101C63.7699 63.9235 63.2366 64.8835 63.0233 66.1901H55.9433C56.0499 64.2168 56.6233 62.5101 57.6633 61.0701C58.7033 59.6035 60.1433 58.4835 61.9833 57.7101C63.8233 56.9101 65.9699 56.5101 68.4233 56.5101C70.7433 56.5101 72.7566 56.8701 74.4633 57.5901C76.1966 58.3101 77.5299 59.3368 78.4633 60.6701C79.3966 61.9768 79.8633 63.5101 79.8633 65.2701C79.8633 66.6035 79.4366 67.8701 78.5833 69.0701C77.7299 70.2435 76.5566 71.1901 75.0633 71.9101V72.1501C76.9033 72.7368 78.3299 73.7101 79.3433 75.0701C80.3833 76.4035 80.9033 77.9501 80.9033 79.7101C80.9033 81.7368 80.3833 83.5235 79.3433 85.0701C78.3033 86.5901 76.8366 87.7768 74.9433 88.6301C73.0499 89.4568 70.8233 89.8701 68.2633 89.8701Z" fill="white"/>
<defs>
<filter id="filter0_i_31_7" x="0.13916" y="0.890137" width="140" height="140" filterUnits="userSpaceOnUse" color-interpolation-filters="sRGB">
<feFlood flood-opacity="0" result="BackgroundImageFix"/>
<feBlend mode="normal" in="SourceGraphic" in2="BackgroundImageFix" result="shape"/>
<feColorMatrix in="SourceAlpha" type="matrix" values="0 0 0 0 0 0 0 0 0 0 0 0 0 0 0 0 0 0 127 0" result="hardAlpha"/>
<feOffset/>
<feGaussianBlur stdDeviation="15.75"/>
<feComposite in2="hardAlpha" operator="arithmetic" k2="-1" k3="1"/>
<feColorMatrix type="matrix" values="0 0 0 0 1 0 0 0 0 1 0 0 0 0 1 0 0 0 0.41 0"/>
<feBlend mode="normal" in2="shape" result="effect1_innerShadow_31_7"/>
</filter>
<linearGradient id="paint0_linear_31_7" x1="140.139" y1="33.909" x2="0.139167" y2="140.89" gradientUnits="userSpaceOnUse">
<stop stop-color="#6A4C00"/>
<stop offset="1" stop-color="#F3B61F"/>
</linearGradient>
</defs>
</svg>
