<svg width="79" height="79" viewBox="0 0 79 79" fill="none" xmlns="http://www.w3.org/2000/svg">
<path d="M72.1501 40.8894C71.5169 58.9442 56.3659 73.0678 38.3087 72.434C20.2588 71.7997 6.13482 56.6478 6.77017 38.594C7.40108 20.5378 22.5519 6.41333 40.6036 7.04721C58.6593 7.68022 72.7831 22.8341 72.1497 40.8898L72.1499 40.8894L72.1501 40.8894Z" fill="#F7931A"/>
<path d="M52.6048 32.1825C52.3372 27.7877 48.6081 26.1868 43.8493 25.6011L44.0624 19.5258L40.3642 19.3966L40.157 25.3119C39.1847 25.2777 38.1904 25.2621 37.2023 25.2471L37.4118 19.2926L33.7158 19.1628L33.5015 25.2365C32.7004 25.2248 31.9134 25.2122 31.1468 25.1857L31.147 25.1667L26.0466 24.9858L25.909 28.9356C25.909 28.9356 28.6417 28.9795 28.5946 29.0279C30.0923 29.0808 30.5494 29.9677 30.6652 30.723L30.4226 37.6442C30.5258 37.6483 30.6605 37.6573 30.8126 37.6839C30.6893 37.6797 30.5578 37.6744 30.4219 37.6709L30.0806 47.3668C29.9986 47.8358 29.6951 48.578 28.6484 48.5429C28.6945 48.5864 25.9603 48.448 25.9603 48.448L25.0704 52.8387L29.8831 53.0075C30.7787 53.0401 31.6593 53.0862 32.5244 53.1218L32.3105 59.2664L36.0046 59.3965L36.2176 53.3168C37.2313 53.3735 38.2124 53.4159 39.1709 53.4488L38.957 59.5002L42.6553 59.6295L42.8714 53.4958C49.1014 53.3573 53.5077 51.9439 54.2528 46.1241C54.8539 41.4383 52.7162 39.2631 49.2168 38.2918C51.3994 37.2751 52.8074 35.3986 52.6061 32.1827L52.6049 32.1821L52.6048 32.1825ZM46.9699 45.1394C46.8107 49.7314 38.9665 48.9333 36.4601 48.8477L36.7468 40.7064C39.2537 40.7952 47.1382 40.3499 46.97 45.1394L46.9699 45.1394ZM45.6528 33.5928C45.5052 37.7703 38.9651 37.0529 36.8775 36.9797L37.1369 29.5962C39.2245 29.6693 45.8054 29.2357 45.6531 33.5928L45.6528 33.5928Z" fill="white"/>
</svg>
