<svg width="46" height="46" viewBox="0 0 46 46" fill="none" xmlns="http://www.w3.org/2000/svg">
<ellipse cx="23.1435" cy="23.1781" rx="22.83" ry="22.8296" fill="#045AF9"/>
<path d="M34.6172 16.0945L23.5417 9.70014C23.2954 9.55792 22.992 9.55792 22.7457 9.70014L11.6701 16.0945C11.4238 16.2367 11.2721 16.4995 11.2721 16.7838V29.5726C11.2721 29.8569 11.4238 30.1197 11.6701 30.2619L22.7457 36.6563C22.992 36.7985 23.2954 36.7985 23.5417 36.6563L34.6172 30.2619C34.8635 30.1197 35.0152 29.8569 35.0152 29.5726V16.7838C35.0152 16.4995 34.8636 16.2367 34.6172 16.0945ZM33.4232 29.113L23.1437 35.0478L12.8641 29.113V17.2434L23.1437 11.3086L33.4232 17.2434V29.113Z" fill="white"/>
<path d="M19.3636 19.8246C18.924 19.8246 18.5677 20.1809 18.5677 20.6205V23.8024L17.1143 20.3144C16.9907 20.0178 16.7009 19.8246 16.3796 19.8246H15.527C15.0874 19.8246 14.731 20.1809 14.731 20.6205V25.736C14.7701 26.791 16.2842 26.7902 16.3229 25.736V22.5542L17.7763 26.0422C17.8999 26.3388 18.1897 26.532 18.511 26.532H19.3636C19.8032 26.532 20.1596 26.1756 20.1596 25.736V20.6205C20.1596 20.1809 19.8032 19.8246 19.3636 19.8246Z" fill="white"/>
<path d="M21.5515 20.6205V25.736C21.5907 26.791 23.1047 26.7902 23.1435 25.736V24.4005H24.8487C25.9037 24.3614 25.9029 22.8474 24.8487 22.8086H23.1435V21.4165H25.7013C26.7563 21.3774 26.7555 19.8633 25.7013 19.8246H22.3475C21.9079 19.8246 21.5515 20.1809 21.5515 20.6205Z" fill="white"/>
<path d="M27.833 21.4165H28.7421V25.736C28.7813 26.791 30.2953 26.7902 30.3341 25.736V21.4165H31.2433C32.2983 21.3774 32.2975 19.8633 31.2433 19.8246H27.8329C26.7779 19.8637 26.7787 21.3777 27.833 21.4165Z" fill="white"/>
</svg>
