<svg width="46" height="46" viewBox="0 0 46 46" fill="none" xmlns="http://www.w3.org/2000/svg">
<ellipse cx="23.1435" cy="23.1781" rx="22.83" ry="22.8296" fill="#045AF9"/>
<path d="M27.8957 18.6659L29.4794 20.2495L22.8094 26.9195L18.0355 22.1457L19.6191 20.562L22.8094 23.7523L27.8957 18.6659ZM36.6209 25.4115C35.8206 26.2386 35.4471 27.3888 35.6084 28.5284C35.8901 30.5208 34.5411 32.3783 32.5587 32.7255C31.4253 32.9243 30.447 33.6349 29.9078 34.6518C29.2391 35.9118 27.9484 36.6347 26.6094 36.6347C26.059 36.6347 25.5001 36.5126 24.9737 36.255C24.4569 36.0025 23.8958 35.8759 23.3352 35.8759C22.7747 35.8759 22.2136 36.0025 21.6967 36.255C21.1697 36.5126 20.6114 36.6347 20.061 36.6347C18.722 36.6347 17.4307 35.9118 16.7627 34.6518C16.2234 33.6354 15.2451 32.9243 14.1117 32.7255C12.1293 32.3777 10.7803 30.5208 11.062 28.5284C11.2233 27.3888 10.8498 26.2386 10.0496 25.4115C8.65015 23.965 8.65015 21.6697 10.0496 20.2232C10.8498 19.3961 11.2233 18.2459 11.062 17.1063C10.7803 15.1139 12.1293 13.2564 14.1117 12.9093C15.2451 12.7105 16.2234 11.9998 16.7627 10.9829C17.4313 9.72294 18.722 9 20.061 9C20.6114 9 21.1703 9.12208 21.6967 9.37967C22.2136 9.63222 22.7747 9.75878 23.3352 9.75878C23.8958 9.75878 24.4569 9.63222 24.9737 9.37967C25.5007 9.12208 26.059 9 26.6094 9C27.9484 9 29.2397 9.72294 29.9078 10.9829C30.447 11.9993 31.4253 12.7105 32.5587 12.9093C34.5411 13.257 35.8901 15.1139 35.6084 17.1063C35.4471 18.2459 35.8206 19.3961 36.6209 20.2232C38.0203 21.6697 38.0203 23.965 36.6209 25.4115ZM35.0109 21.7811C33.7213 20.4478 33.1305 18.6301 33.3903 16.7933C33.5034 15.9925 32.9681 15.2556 32.1718 15.1162C30.3445 14.7958 28.7984 13.672 27.9288 12.0334C27.6695 11.5446 27.1638 11.2405 26.6089 11.2405C26.3826 11.2405 26.1631 11.2915 25.9565 11.3928C25.1445 11.7898 24.2379 11.9993 23.3341 11.9993C22.4303 11.9993 21.5237 11.7893 20.7117 11.3928C20.505 11.292 20.2855 11.2405 20.0599 11.2405C19.5049 11.2405 18.9992 11.5446 18.74 12.0334C17.8709 13.672 16.3242 14.7953 14.497 15.1162C13.7001 15.2562 13.1648 15.9925 13.2784 16.7933C13.5383 18.6301 12.9475 20.4478 11.6578 21.7811C11.0956 22.3624 11.0956 23.2729 11.6578 23.8547C12.9475 25.1881 13.5383 27.0058 13.2784 28.8425C13.1653 29.6433 13.7007 30.3802 14.497 30.5197C16.3242 30.84 17.8703 31.9639 18.74 33.6024C18.9992 34.0913 19.5049 34.3953 20.0599 34.3953C20.2861 34.3953 20.5056 34.3444 20.7122 34.243C21.5242 33.846 22.4308 33.6366 23.3346 33.6366C24.2385 33.6366 25.1451 33.8465 25.9571 34.243C26.1637 34.3438 26.3832 34.3953 26.6094 34.3953C27.1638 34.3953 27.6695 34.0913 27.9293 33.6024C28.799 31.9639 30.3451 30.8405 32.1723 30.5197C32.9692 30.3797 33.5045 29.6433 33.3909 28.8425C33.131 27.0058 33.7218 25.1881 35.0115 23.8547C35.5737 23.2735 35.5737 22.3629 35.0115 21.7811H35.0109Z" fill="white"/>
</svg>
