<svg width="46" height="46" viewBox="0 0 46 46" fill="none" xmlns="http://www.w3.org/2000/svg">
<circle cx="22.8296" cy="22.8296" r="22.8296" fill="#045AF9"/>
<path d="M22.8296 36.3913C30.3198 36.3913 36.3917 30.3193 36.3917 22.8292C36.3917 15.3391 30.3198 9.26717 22.8296 9.26717C15.3395 9.26717 9.26758 15.3391 9.26758 22.8292C9.26758 30.3193 15.3395 36.3913 22.8296 36.3913Z" stroke="white" stroke-width="1.27846" stroke-miterlimit="10" stroke-linecap="round" stroke-linejoin="round"/>
<path d="M17.2659 20.4742C17.8683 21.0766 18.2409 21.9089 18.2409 22.8282C18.2409 23.7475 17.8683 24.5798 17.2659 25.1822" stroke="white" stroke-width="1.27846" stroke-miterlimit="10" stroke-linecap="round" stroke-linejoin="round"/>
<path d="M19.6575 18.2516C20.8286 19.4228 21.5531 21.0408 21.5531 22.8279C21.5531 24.491 20.9258 26.0076 19.8948 27.154" stroke="white" stroke-width="1.27846" stroke-miterlimit="10" stroke-linecap="round" stroke-linejoin="round"/>
<path d="M22.4331 16.3561C23.9864 18.0657 24.933 20.3363 24.933 22.828C24.933 25.3198 23.9863 27.5904 22.4331 29.2999" stroke="white" stroke-width="1.27846" stroke-miterlimit="10" stroke-linecap="round" stroke-linejoin="round"/>
<path d="M24.9699 14.1129C27.094 16.3986 28.393 19.4616 28.393 22.828C28.393 26.1957 27.0931 29.2598 24.9675 31.5458" stroke="white" stroke-width="1.27846" stroke-miterlimit="10" stroke-linecap="round" stroke-linejoin="round"/>
</svg>
