<svg width="46" height="46" viewBox="0 0 46 46" fill="none" xmlns="http://www.w3.org/2000/svg">
<circle cx="22.8296" cy="22.8296" r="22.8296" fill="#045AF9"/>
<path d="M22.501 11.8496C23.7666 11.8496 24.9973 12.2586 25.999 13.0117C27.0007 13.7649 27.7171 14.8208 28.0352 16.0137C28.3532 17.2066 28.2548 18.4683 27.7549 19.6006C27.3006 20.6294 26.5382 21.4966 25.5723 22.0947C26.758 22.4781 27.8571 23.0785 28.8105 23.8662C29.333 23.471 29.9097 23.1491 30.5244 22.9121C29.8984 22.4336 29.4221 21.7917 29.1562 21.0566C28.8579 20.2313 28.8397 19.3342 29.1045 18.498C29.3692 17.6622 29.9023 16.9317 30.625 16.4131C31.3478 15.8945 32.2225 15.6143 33.1201 15.6143C34.0178 15.6143 34.8924 15.8944 35.6152 16.4131C36.3381 16.9318 36.872 17.6621 37.1367 18.498C37.4015 19.3342 37.3833 20.2313 37.085 21.0566C36.819 21.7923 36.3416 22.4344 35.7148 22.9131C36.9726 23.4004 38.0617 24.2308 38.8486 25.3076C39.6911 26.4606 40.1465 27.84 40.1504 29.2549C40.1504 29.437 40.0755 29.6109 39.9443 29.7383C39.8133 29.8655 39.6365 29.9365 39.4531 29.9365C39.2697 29.9365 39.0929 29.8655 38.9619 29.7383C38.8308 29.6109 38.7559 29.437 38.7559 29.2549L38.7422 28.874C38.677 27.9875 38.3898 27.1271 37.9033 26.3691C37.3473 25.5031 36.5524 24.8047 35.6084 24.3535C34.6644 23.9023 33.6089 23.7166 32.5615 23.8174C31.5697 23.9128 30.6244 24.2632 29.8184 24.8281C31.3937 26.5564 32.2661 28.7867 32.2637 31.1006C32.2637 31.2826 32.1896 31.4566 32.0586 31.584C31.9276 31.7112 31.7508 31.7822 31.5674 31.7822C31.3839 31.7822 31.2072 31.7112 31.0762 31.584C30.9456 31.4572 30.8708 31.2847 30.8701 31.1035C30.8308 28.9745 29.9324 26.9447 28.3672 25.4512C26.8019 23.9576 24.6949 23.1202 22.499 23.1201C20.303 23.1201 18.1953 23.9575 16.6299 25.4512C15.0646 26.9447 14.1663 28.9744 14.127 31.1035C14.1262 31.2847 14.0514 31.4572 13.9209 31.584C13.7899 31.7112 13.6131 31.7822 13.4297 31.7822C13.2464 31.7821 13.0694 31.7112 12.9385 31.584C12.8403 31.4885 12.7742 31.3669 12.7471 31.2354L12.7334 31.1006C12.731 28.7869 13.6027 26.5563 15.1777 24.8281C14.3719 24.2643 13.4275 23.9143 12.4365 23.8193C11.3895 23.719 10.3342 23.9043 9.39062 24.3555C8.44705 24.8066 7.65253 25.5053 7.09668 26.3711C6.54102 27.2367 6.24622 28.2355 6.24414 29.2549L6.23047 29.3896C6.20332 29.5212 6.13637 29.6428 6.03809 29.7383C5.9071 29.8655 5.73027 29.9365 5.54688 29.9365C5.36348 29.9365 5.18665 29.8655 5.05566 29.7383C4.92453 29.6109 4.84963 29.437 4.84961 29.2549C4.85365 27.8397 5.30939 26.4606 6.15234 25.3076C6.93958 24.2309 8.0283 23.3992 9.28613 22.9121C8.65942 22.4334 8.18229 21.7912 7.91602 21.0557C7.61712 20.2298 7.59847 19.332 7.86328 18.4951C8.12808 17.6583 8.66226 16.9265 9.38574 16.4072C10.1091 15.8882 10.9845 15.6084 11.8828 15.6084C12.7811 15.6085 13.6566 15.8881 14.3799 16.4072C15.1033 16.9264 15.6366 17.6583 15.9014 18.4951C16.1662 19.332 16.1475 20.2298 15.8486 21.0557C15.5822 21.7917 15.1039 22.4333 14.4766 22.9121C15.0916 23.1491 15.6686 23.4708 16.1914 23.8662C17.1447 23.0785 18.244 22.4782 19.4297 22.0947C18.4641 21.4966 17.7022 20.6291 17.248 19.6006C16.7481 18.4684 16.6488 17.2066 16.9668 16.0137C17.2849 14.8207 18.0021 13.7649 19.0039 13.0117C20.0055 12.2586 21.2355 11.8497 22.501 11.8496ZM12.4365 17.0273C11.8909 16.921 11.3249 16.9739 10.8105 17.1797C10.2963 17.3854 9.85717 17.7343 9.54785 18.1816C9.23863 18.6289 9.0729 19.1545 9.07129 19.6924C9.07061 20.0503 9.14265 20.4051 9.2832 20.7363C9.42374 21.0674 9.6299 21.369 9.89062 21.623C10.1515 21.8772 10.4619 22.0798 10.8037 22.2178C11.1455 22.3557 11.5125 22.4264 11.8828 22.4268C12.4393 22.4267 12.9831 22.2666 13.4453 21.9668C13.9074 21.667 14.267 21.2414 14.4795 20.7441C14.6919 20.2469 14.7481 19.6997 14.6406 19.1719C14.5331 18.6441 14.267 18.1583 13.875 17.7764C13.4829 17.3944 12.9821 17.1337 12.4365 17.0273ZM33.667 17.0186C33.1208 16.913 32.5543 16.9669 32.04 17.1738C31.5261 17.3807 31.0876 17.7306 30.7793 18.1787C30.4709 18.627 30.3066 19.1541 30.3066 19.6924C30.3074 20.4139 30.6023 21.1066 31.1289 21.6182C31.6556 22.1298 32.3706 22.4172 33.1172 22.418C33.6741 22.418 34.2182 22.2581 34.6807 21.958C35.1431 21.6579 35.5036 21.2321 35.7158 20.7344C35.928 20.2367 35.9831 19.6892 35.875 19.1611C35.7669 18.6331 35.5002 18.1472 35.1074 17.7656C34.7146 17.384 34.2131 17.1241 33.667 17.0186ZM23.3506 13.2998C22.5119 13.1365 21.6422 13.2178 20.8516 13.5342C20.061 13.8507 19.385 14.3877 18.9092 15.0762C18.4334 15.7647 18.1788 16.5749 18.1768 17.4033V17.4131L18.1816 17.6211C18.2358 18.6564 18.684 19.6393 19.4434 20.377C20.2535 21.1638 21.3525 21.607 22.5 21.6084L22.8193 21.5977C23.5624 21.5443 24.2802 21.3049 24.9023 20.9014C25.6132 20.4403 26.1671 19.7851 26.4941 19.0195C26.821 18.2542 26.9067 17.4121 26.7412 16.5996C26.5756 15.7869 26.1658 15.0386 25.5625 14.4512C24.9592 13.8638 24.1893 13.4632 23.3506 13.2998Z" fill="white" stroke="white" stroke-width="0.3"/>
</svg>
