<svg width="79" height="80" viewBox="0 0 79 80" fill="none" xmlns="http://www.w3.org/2000/svg">
<path d="M5.36865 59.7074C1.95737 53.887 0.00195312 47.11 0.00195312 39.8764C0.00195312 21.5736 12.5209 6.19491 29.4632 1.83592C29.9997 1.69783 30.5408 3.28472 31.086 3.16904C33.7286 2.60826 36.4694 2.31323 39.2791 2.31323C49.5953 2.31323 58.9827 4.57672 65.9913 11.0814C73.72 18.2542 78.5562 28.5005 78.5562 39.8764C78.5562 49.8419 74.8448 58.9407 68.7288 65.8658C68.4385 66.1942 5.47513 59.889 5.36865 59.7074Z" fill="#00429C"/>
<path d="M72.5552 37.6941C72.5552 55.2198 58.3477 69.4272 40.822 69.4272C23.2963 69.4272 9.08887 55.2198 9.08887 37.6941C9.08887 20.1684 23.2963 5.96094 40.822 5.96094C58.3477 5.96094 72.5552 20.1684 72.5552 37.6941Z" fill="#0055CA"/>
<path d="M67.5779 4.05139V66.4566C67.2515 66.7955 66.9192 67.1286 66.5811 67.4557C66.53 67.5051 66.4786 68.2115 66.4272 68.2606C61.5289 72.9468 55.4196 76.3779 48.6162 78.0369C48.0232 78.1816 47.4249 76.0879 46.8217 76.2053C44.3807 76.6802 41.8589 76.9289 39.279 76.9289C37.5927 76.9289 35.9312 76.8225 34.3008 76.6163V4.05139C34.3008 2.78041 35.3312 1.75 36.6022 1.75H65.2766C66.5475 1.75 67.5779 2.78041 67.5779 4.05139Z" fill="white"/>
<path d="M38.3396 76.9289H31.233C29.9621 76.9289 28.9316 75.8984 28.9316 74.6275V4.05139C28.9316 2.78041 29.9621 1.75 31.233 1.75H38.3396C37.0686 1.75 36.0382 2.78041 36.0382 4.05139V74.6275C36.0382 75.8984 37.0686 76.9289 38.3396 76.9289Z" fill="#C9F0FF"/>
<path d="M38.8609 7.42664H34.2581C33.6226 7.42664 33.1074 6.91143 33.1074 6.27594C33.1074 5.64045 33.6226 5.12524 34.2581 5.12524H38.8609C39.4964 5.12524 40.0116 5.64045 40.0116 6.27594C40.0116 6.91143 39.4964 7.42664 38.8609 7.42664ZM62.8296 6.27594C62.8296 5.64045 62.3144 5.12524 61.6789 5.12524H61.643C61.0075 5.12524 60.4923 5.64045 60.4923 6.27594C60.4923 6.91143 61.0075 7.42664 61.643 7.42664H61.6789C62.3144 7.42664 62.8296 6.91143 62.8296 6.27594ZM58.155 6.27594C58.155 5.64045 57.6398 5.12524 57.0043 5.12524H56.9684C56.3329 5.12524 55.8177 5.64045 55.8177 6.27594C55.8177 6.91143 56.3329 7.42664 56.9684 7.42664H57.0043C57.6398 7.42664 58.155 6.91143 58.155 6.27594Z" fill="#9AE7FD"/>
<path d="M62.8301 13.6404V23.2854L62.5575 23.5315L62.5184 25.6991L62.8301 26.54V33.9752L62.6229 34.0724L62.613 36.4716C62.613 36.5775 62.8087 36.8613 62.7698 36.9531C62.6534 37.2285 62.3808 37.4216 62.063 37.4216H37.6665C37.2429 37.4216 36.8994 37.0781 36.8994 36.6545V13.6404C36.8994 13.2168 37.2429 12.8733 37.6665 12.8733H62.063C62.4866 12.8733 62.8301 13.2168 62.8301 13.6404Z" fill="#64DCFC"/>
<path d="M38.3631 37.4215H34.4458C34.0222 37.4215 33.6787 37.078 33.6787 36.6544V30.4635L34.0525 29.3551L33.8958 27.5924L33.6787 27.2088V16.8176L34.0785 16.3107V14.561L33.6787 13.8362V13.6404C33.6787 13.2168 34.0222 12.8733 34.4458 12.8733H38.3631C37.9395 12.8733 37.596 13.2168 37.596 13.6404V36.6544C37.596 37.078 37.9395 37.4215 38.3631 37.4215Z" fill="#00D1FC"/>
<path d="M62.0626 49.3121H34.4458C34.0222 49.3121 33.6787 48.9685 33.6787 48.5449V42.4079C33.6787 41.9843 34.0222 41.6407 34.4458 41.6407H62.0626C62.4862 41.6407 62.8297 41.9843 62.8297 42.4079V48.5449C62.8297 48.9685 62.4862 49.3121 62.0626 49.3121ZM62.0626 60.0519H34.4458C34.0222 60.0519 33.6787 59.7084 33.6787 59.2848V53.1477C33.6787 52.7241 34.0222 52.3806 34.4458 52.3806H62.0626C62.4862 52.3806 62.8297 52.7241 62.8297 53.1477V59.2848C62.8297 59.7084 62.4862 60.0519 62.0626 60.0519ZM62.0626 70.7917H34.4458C34.0222 70.7917 33.6787 70.4482 33.6787 70.0246V63.8876C33.6787 63.4639 34.0222 63.1204 34.4458 63.1204H62.0626C62.4862 63.1204 62.8297 63.4639 62.8297 63.8876V70.0246C62.8297 70.4482 62.4862 70.7917 62.0626 70.7917Z" fill="#64DCFC"/>
<path d="M24.3186 23.889C24.3186 24.5245 23.8034 25.0397 23.1679 25.0397H4.0097L6.36065 27.3907C6.81004 27.8401 6.81004 28.5687 6.36065 29.0179C6.13604 29.2425 5.84146 29.355 5.54703 29.355C5.25261 29.355 4.95803 29.2427 4.73341 29.0179L0.469852 24.7542C0.0204661 24.3048 0.0204661 23.5762 0.469852 23.127L4.73341 18.8634C5.1828 18.414 5.91142 18.414 6.36065 18.8634C6.81004 19.3128 6.81004 20.0414 6.36065 20.4906L4.11311 22.7382H23.1679C23.8034 22.7383 24.3186 23.2535 24.3186 23.889Z" fill="#FF7117"/>
<path d="M23.9815 33.96L19.718 38.2237C19.4934 38.4483 19.1988 38.5608 18.9044 38.5608C18.6099 38.5608 18.3154 38.4485 18.0907 38.2237C17.6414 37.7743 17.6414 37.0457 18.0907 36.5965L20.3383 34.3489H1.28351C0.648018 34.3489 0.132812 33.8337 0.132812 33.1982C0.132812 32.5627 0.648018 32.0475 1.28351 32.0475H20.4417L18.0907 29.6966C17.6414 29.2472 17.6414 28.5186 18.0907 28.0693C18.5401 27.62 19.2687 27.62 19.718 28.0693L23.9815 32.3329C24.4311 32.7821 24.4311 33.5108 23.9815 33.96Z" fill="white"/>
<path d="M62.8297 33.9751V36.6543C62.8297 36.766 62.8058 36.8722 62.7628 36.968L51.8487 27.4673L49.9443 29.182C49.518 29.5661 48.8739 29.5773 48.4345 29.2081L33.6787 16.8174V13.8362C33.7373 13.8698 33.7938 13.9091 33.8473 13.954L49.1481 26.8022L51.0659 25.0754C51.4978 24.6863 52.1526 24.6807 52.5914 25.0627L62.8297 33.9751Z" fill="#FF7117"/>
<path d="M51.7065 6.27601C51.7065 6.91151 51.1913 7.42671 50.5558 7.42671H45.953C45.3175 7.42671 44.8023 6.91151 44.8023 6.27601C44.8023 5.64052 45.3175 5.12532 45.953 5.12532H50.5558C51.1913 5.12532 51.7065 5.64052 51.7065 6.27601ZM69.0437 12.0295C69.6792 12.0295 70.1944 11.5143 70.1944 10.8788V6.27601C70.1944 5.64052 69.6792 5.12532 69.0437 5.12532C68.9344 5.12532 68.8287 5.14051 68.7287 5.16904V4.05133C68.7287 2.14777 67.1801 0.599243 65.2766 0.599243H31.2322C29.3287 0.599243 27.7801 2.14777 27.7801 4.05133V5.16904C27.6799 5.14066 27.5744 5.12532 27.4651 5.12532C26.8297 5.12532 26.3145 5.64052 26.3145 6.27601V10.8788C26.3145 11.5143 26.8297 12.0295 27.4651 12.0295C27.5744 12.0295 27.6801 12.0143 27.7801 11.9858V77.4434C28.5378 77.6751 29.3052 77.8843 30.0815 78.0706V4.05133C30.0815 3.41676 30.5978 2.90064 31.2322 2.90064H65.2766C65.911 2.90064 66.4273 3.41676 66.4273 4.05133V68.2605C67.2276 67.4949 67.9953 66.6959 68.7287 65.8655V20.3524C68.8289 20.3808 68.9344 20.3961 69.0437 20.3961C69.6792 20.3961 70.1944 19.8809 70.1944 19.2454V14.6427C70.1944 14.0072 69.6792 13.492 69.0437 13.492C68.9344 13.492 68.8287 13.5071 68.7287 13.5357V11.9858C68.8287 12.0143 68.9344 12.0295 69.0437 12.0295Z" fill="#0396FD"/>
<path d="M62.8297 23.2855V26.5401L59.5413 23.2517L57.4754 25.3176C57.026 25.767 56.2974 25.767 55.8482 25.3176L50.8623 20.3317L42.4742 28.7199C42.0248 29.1692 41.2962 29.1692 40.8469 28.7199L38.1347 26.0076L33.6787 30.4635V27.2089L37.3209 23.5667C37.7703 23.1173 38.4989 23.1173 38.9481 23.5667L41.6604 26.279L50.0485 17.8909C50.4979 17.4415 51.2265 17.4415 51.6758 17.8909L56.6617 22.8768L58.7275 20.8109C59.1769 20.3615 59.9055 20.3613 60.3548 20.8109L62.8297 23.2855Z" fill="#0396FD"/>
<path d="M59.7204 46.6213H37.2142C36.5787 46.6213 36.0635 46.1061 36.0635 45.4706C36.0635 44.8352 36.5787 44.3199 37.2142 44.3199H59.7206C60.3561 44.3199 60.8713 44.8352 60.8713 45.4706C60.8713 46.1061 60.3559 46.6213 59.7204 46.6213ZM59.7204 65.8113H53.4316C52.7961 65.8113 52.2809 66.3265 52.2809 66.962C52.2809 67.5975 52.7961 68.1127 53.4316 68.1127H59.7204C60.3559 68.1127 60.8711 67.5975 60.8711 66.962C60.8711 66.3265 60.3559 65.8113 59.7204 65.8113ZM59.7204 55.0656H56.0953C55.4598 55.0656 54.9446 55.5808 54.9446 56.2163C54.9446 56.8518 55.4598 57.367 56.0953 57.367H59.7204C60.3559 57.367 60.8711 56.8518 60.8711 56.2163C60.8711 55.5808 60.3559 55.0656 59.7204 55.0656Z" fill="#00AAF2"/>
<path d="M48.6159 78.0369C45.6231 78.7666 42.4961 79.1535 39.2786 79.1535C27.9441 79.1535 17.7308 74.3524 10.5618 66.6728C10.3866 66.485 10.2131 64.8071 10.0416 64.6159C9.69836 64.2336 9.36236 63.8444 9.03418 63.4487V43.5586C9.03418 41.8639 10.408 40.4901 12.1027 40.4901H46.2482C47.9429 40.4901 49.3167 41.8639 49.3167 43.5586V76.085C49.3167 76.8265 49.0537 77.5065 48.6159 78.0369Z" fill="#FF7117"/>
<path d="M8.43669 40.4901H13.6303C11.9356 40.4901 10.5618 41.8639 10.5618 43.5586V66.6728C8.58597 64.5563 6.84136 62.2209 5.36816 59.7074V43.5586C5.36816 41.8639 6.74194 40.4901 8.43669 40.4901Z" fill="#FF5F00"/>
<path d="M54.5107 59.8218C54.5107 62.5757 52.2782 64.8082 49.5243 64.8082H31.544C28.7901 64.8082 26.5576 62.5757 26.5576 59.8218C26.5576 57.068 28.7901 54.8354 31.544 54.8354H49.5243C52.2782 54.8354 54.5107 57.068 54.5107 59.8218Z" fill="#FF9D5C"/>
<path d="M33.9172 64.8082H30.0391C27.2852 64.8082 25.0527 62.5757 25.0527 59.8218C25.0527 57.068 27.2852 54.8354 30.0391 54.8354H33.9172C31.1634 54.8354 28.9309 57.068 28.9309 59.8218C28.9309 62.5757 31.1634 64.8082 33.9172 64.8082Z" fill="#FF8835"/>
<path d="M33.1078 59.8217C33.1078 61.5164 31.734 62.8902 30.0392 62.8902C28.3445 62.8902 26.9707 61.5164 26.9707 59.8217C26.9707 58.127 28.3445 56.7532 30.0392 56.7532C31.7338 56.7532 33.1078 58.127 33.1078 59.8217Z" fill="#FFC143"/>
</svg>
