<svg width="47" height="46" viewBox="0 0 47 46" fill="none" xmlns="http://www.w3.org/2000/svg">
<circle cx="23.2032" cy="23.1781" r="22.8296" fill="#045AF9"/>
<path fill-rule="evenodd" clip-rule="evenodd" d="M13.2508 13.3574C13.3779 13.1986 13.6096 12.9412 13.9434 12.6181C14.4901 12.0891 15.1332 11.5619 15.8707 11.0702C17.9815 9.66298 20.437 8.81631 23.2034 8.81631C25.9698 8.81631 28.4252 9.66298 30.5361 11.0702C31.2736 11.5619 31.9167 12.0891 32.4634 12.6181C32.7972 12.9411 33.0289 13.1986 33.156 13.3574C33.2758 13.5072 33.3411 13.6934 33.3411 13.8852V29.0905C33.3411 29.8268 32.9036 30.6849 32.3099 31.1167L23.7003 37.3782C23.4041 37.5937 23.0027 37.5937 22.7065 37.3782L14.0969 31.1168C13.5014 30.6836 13.0657 29.8264 13.0657 29.0906V13.8852C13.0657 13.6933 13.131 13.5072 13.2508 13.3574ZM14.7553 29.0905C14.7553 29.2863 14.9327 29.6354 15.0907 29.7503L23.2034 35.6504L31.316 29.7503C31.4728 29.6362 31.6515 29.2859 31.6515 29.0905V14.2029C31.547 14.0897 31.4259 13.9653 31.2884 13.8323C30.812 13.3713 30.2473 12.9084 29.5989 12.4761C27.7496 11.2433 25.6114 10.506 23.2034 10.506C20.7954 10.506 18.6572 11.2433 16.8079 12.4761C16.1594 12.9084 15.5947 13.3713 15.1184 13.8323C14.9809 13.9653 14.8598 14.0897 14.7553 14.2029V29.0905ZM20.8439 22.1583L22.3586 23.6729L26.4076 19.6239C26.7376 19.2939 27.2725 19.2939 27.6024 19.6239C27.9323 19.9538 27.9323 20.4887 27.6024 20.8186L22.9559 25.4651C22.6259 25.795 22.091 25.795 21.7612 25.4651L19.6491 23.353C19.3192 23.0231 19.3192 22.4882 19.6491 22.1583C19.9791 21.8284 20.514 21.8284 20.8439 22.1583Z" fill="white"/>
</svg>
