<svg width="13" height="13" viewBox="0 0 13 13" fill="none" xmlns="http://www.w3.org/2000/svg">
<path d="M12.4394 0.171631H1.36248C1.10771 0.171631 0.90094 0.3784 0.90094 0.633169C0.90094 0.887939 1.10771 1.09471 1.36248 1.09471H11.325L1.03617 11.3838C0.85594 11.564 0.85594 11.8562 1.03617 12.0364C1.1264 12.1266 1.24432 12.1716 1.36248 12.1716C1.48063 12.1716 1.59879 12.1266 1.68879 12.0364L11.9779 1.74732V11.7101C11.9779 11.9649 12.1846 12.1716 12.4394 12.1716C12.6942 12.1716 12.9009 11.9649 12.9009 11.7101V0.633169C12.9009 0.3784 12.6942 0.171631 12.4394 0.171631Z" fill="black"/>
</svg>
