<svg width="66" height="66" viewBox="0 0 66 66" fill="none" xmlns="http://www.w3.org/2000/svg">
<g clip-path="url(#clip0_1_538)">
<path d="M33.2478 0.123535C51.2954 0.123535 65.9229 14.7538 65.9229 32.7983C65.9229 50.8457 51.2954 65.473 33.2478 65.473C15.2031 65.473 0.572632 50.8442 0.572632 32.7983C0.572632 14.7538 15.2031 0.123535 33.2478 0.123535Z" fill="#F5AC37"/>
<path d="M34.4523 35.108H46.8683C47.133 35.108 47.258 35.108 47.2771 34.761C47.3786 33.4979 47.3786 32.2275 47.2771 30.963C47.2771 30.7174 47.1551 30.616 46.8889 30.616H22.1789C21.8731 30.616 21.7908 30.7174 21.7908 31.0041V34.6389C21.7908 35.108 21.7908 35.108 22.2804 35.108H34.4523ZM45.8905 26.368C45.9258 26.2754 45.9258 26.1739 45.8905 26.0828C45.6832 25.6314 45.4376 25.2006 45.1524 24.7962C44.723 24.1051 44.2172 23.4685 43.6408 22.8965C43.3688 22.5509 43.0541 22.2407 42.7012 21.9775C40.9338 20.4733 38.8326 19.4087 36.5741 18.8735C35.4345 18.6177 34.27 18.4956 33.1025 18.5059H22.1363C21.8305 18.5059 21.7893 18.628 21.7893 18.8941V26.1431C21.7893 26.4489 21.7893 26.5312 22.1775 26.5312H45.7435C45.7435 26.5312 45.9479 26.4901 45.989 26.368H45.8891H45.8905ZM45.8905 39.3559C45.5435 39.3177 45.1936 39.3177 44.8465 39.3559H22.1995C21.8937 39.3559 21.7908 39.3559 21.7908 39.7646V46.8519C21.7908 47.1783 21.7908 47.2606 22.1995 47.2606H32.6555C33.1554 47.2989 33.6554 47.2636 34.145 47.1592C35.6625 47.0504 37.1549 46.721 38.5783 46.1784C39.0958 45.9991 39.5958 45.7653 40.0678 45.4844H40.2104C42.6615 44.2096 44.6525 42.2069 45.9082 39.7485C45.9082 39.7485 46.0508 39.4397 45.8905 39.3588V39.3559ZM17.6869 50.9351V50.8131V46.0549V44.4419V39.6426C17.6869 39.3765 17.6869 39.3368 17.3604 39.3368H12.9287C12.6831 39.3368 12.5817 39.3368 12.5817 39.0103V35.13H17.3193C17.584 35.13 17.6869 35.13 17.6869 34.783V30.9439C17.6869 30.6983 17.6869 30.638 17.3604 30.638H12.9287C12.6831 30.638 12.5817 30.638 12.5817 30.3116V26.718C12.5817 26.493 12.5817 26.4327 12.9081 26.4327H17.2987C17.6045 26.4327 17.6869 26.4327 17.6869 26.0446V15.0373C17.6869 14.7109 17.6869 14.6285 18.0956 14.6285H33.4113C34.5229 14.6727 35.6272 14.7947 36.7197 14.9961C38.9708 15.4123 41.1338 16.2165 43.1115 17.3649C44.4231 18.1369 45.6303 19.0691 46.7051 20.1425C47.5138 20.982 48.2432 21.8907 48.8901 22.8582C49.5327 23.839 50.0665 24.8874 50.4855 25.9828C50.537 26.2681 50.8105 26.4607 51.0957 26.4121H54.7511C55.2202 26.4121 55.2202 26.4121 55.2408 26.8621V30.2116C55.2408 30.538 55.1187 30.6204 54.7908 30.6204H51.9721C51.6868 30.6204 51.6045 30.6204 51.6251 30.988C51.7368 32.2319 51.7368 33.4803 51.6251 34.7242C51.6251 35.0712 51.6251 35.1124 52.0147 35.1124H55.2393C55.3819 35.2962 55.2393 35.48 55.2393 35.6652C55.2599 35.902 55.2599 36.1416 55.2393 36.3784V38.8501C55.2393 39.1971 55.1378 39.3 54.8305 39.3H50.9707C50.7017 39.2485 50.4399 39.4206 50.3782 39.6882C49.4592 42.0776 47.9888 44.2199 46.089 45.9373C45.395 46.5622 44.6657 47.1504 43.904 47.6929C43.0865 48.1634 42.291 48.6531 41.4529 49.0413C39.9104 49.7353 38.293 50.247 36.6329 50.5719C35.0567 50.8542 33.4583 50.9822 31.8541 50.9601H17.681V50.9395L17.6869 50.9351Z" fill="#FEFEFD"/>
</g>
<defs>
<clipPath id="clip0_1_538">
<rect width="65.3502" height="65.3495" fill="white" transform="translate(0.572998 0.126221)"/>
</clipPath>
</defs>
</svg>
