<svg width="93" height="92" viewBox="0 0 93 92" fill="none" xmlns="http://www.w3.org/2000/svg">
<g clip-path="url(#clip0_14_286)">
<path d="M3.48392 57.2572L5.9663 64.2212C7.63003 67.8753 9.77963 71.2607 12.3308 74.2977L15.7048 77.8915C23.6023 85.4091 34.2885 90.0238 46.0526 90.0238C57.8167 90.0238 68.5029 85.4091 76.4006 77.8915L79.7746 74.2977C82.3259 71.2607 84.4755 67.8753 86.1391 64.2212L88.6215 57.2572C89.5693 53.6637 90.0766 49.8913 90.0766 46C90.0766 21.6863 70.3665 1.9762 46.0528 1.9762C21.7391 1.9762 2.02881 21.6863 2.02881 46C2.02881 49.8913 2.53607 53.6637 3.48392 57.2572Z" fill="#1D2E79"/>
<path d="M68.7214 28.081L50.2364 17.4088C47.6475 15.914 44.4577 15.914 41.8688 17.4088L34.475 21.6777C34.4259 22.3673 34.5016 23.1784 34.9355 23.8722C35.4178 24.6434 36.2458 25.1194 37.3992 25.2901C36.8332 26.8462 34.9125 33.4088 41.1759 36.9984C41.1121 37.5026 41.0318 38.8646 41.8222 39.8843C42.3365 40.5477 43.114 40.9335 44.1353 41.0324L45.777 51.4073C45.6514 51.851 45.0945 54.2863 47.6392 55.3197C47.5063 56.2708 47.1526 59.9984 49.2261 62.9956C50.4995 64.8363 52.4446 66.033 55.0107 66.5559C54.8702 67.1269 54.6699 68.4043 55.3306 69.4449C55.6973 70.0221 56.2712 70.4283 57.0353 70.6661L68.7214 63.9192C71.3104 62.4243 72.9053 59.662 72.9053 56.6725V35.3276C72.9053 32.3382 71.3104 29.5758 68.7214 28.081Z" fill="#2FD0E2"/>
<path d="M55.351 66.3466C46.1862 64.6909 47.9396 55.1452 47.9396 55.1452C45.1095 54.1474 46.0529 51.4257 46.0529 51.4257L44.3683 40.7795C40.7296 40.5774 41.4708 36.8548 41.4708 36.8548C34.2833 32.8852 37.777 25.0634 37.777 25.0634C34.9166 24.8055 34.6181 22.8539 34.7615 21.5122L23.384 28.081C20.7951 29.5758 19.2002 32.3382 19.2002 35.3276V56.6722C19.2002 59.6616 20.7951 62.4242 23.384 63.9188L41.8689 74.5912C44.4578 76.086 47.6476 76.086 50.2365 74.5912L57.3585 70.4794C54.1794 69.6923 55.351 66.3466 55.351 66.3466Z" fill="#27A6FF"/>
<path d="M66.4298 32.05L47.945 21.378C47.3613 21.0409 46.7069 20.8725 46.0527 20.8725C45.3982 20.8725 44.744 21.0409 44.1604 21.378L37.388 25.288C37.3919 25.2885 37.3953 25.2896 37.3993 25.2901C36.8333 26.8462 34.9126 33.4088 41.1759 36.9984C41.1122 37.5026 41.0318 38.8646 41.8223 39.8843C42.3365 40.5477 43.1141 40.9335 44.1354 41.0324L45.777 51.4073C45.6514 51.851 45.0946 54.2863 47.6393 55.3197C47.5063 56.2708 47.1527 59.9984 49.2261 62.9956C50.4969 64.8323 52.4366 66.0276 54.9948 66.5523L66.4301 59.95C67.5974 59.2762 68.3224 58.0202 68.3224 56.6725V35.3276C68.3222 33.9798 67.597 32.7241 66.4298 32.05Z" fill="#AE79FD"/>
<path d="M47.9395 55.1452C45.1094 54.1474 46.0528 51.4257 46.0528 51.4257L44.3682 40.7795C40.7295 40.5774 41.4707 36.8548 41.4707 36.8548C34.2832 32.8852 37.7769 25.0634 37.7769 25.0634L25.6755 32.0501C24.5084 32.7242 23.7832 33.98 23.7832 35.3278V56.6725C23.7832 58.0202 24.5082 59.2762 25.6755 59.95L44.1605 70.6224C45.3276 71.296 46.7778 71.2962 47.9452 70.6224L55.3509 66.3467C46.1861 64.6909 47.9395 55.1452 47.9395 55.1452Z" fill="#9C58FE"/>
<path d="M59.441 36.8548H40.9341C41.0137 36.903 41.0936 36.9509 41.1761 36.9982C41.1123 37.5024 41.032 38.8644 41.8225 39.8842C42.3367 40.5476 43.1142 40.9333 44.1356 41.0322L45.7772 51.4072C45.6581 51.8274 45.1539 54.0353 47.2663 55.1452H59.4414C61.6889 55.1452 63.5276 53.3064 63.5276 51.0589V40.9411C63.5273 38.6937 61.6885 36.8548 59.441 36.8548Z" fill="#9C58FE"/>
<path d="M32.6644 36.8548C30.4169 36.8548 28.5781 38.6935 28.5781 40.9411V51.0589C28.5781 53.3063 30.4169 55.1452 32.6644 55.1452H47.9393C45.1092 54.1474 46.0526 51.4257 46.0526 51.4257L44.368 40.7795C40.7293 40.5774 41.4705 36.8548 41.4705 36.8548H32.6644Z" fill="#8A37FF"/>
<path d="M34.1413 52.005C33.4381 52.005 32.8682 51.435 32.8682 50.7319V41.2855C32.8682 40.7283 33.2306 40.236 33.7623 40.0701C34.2949 39.9046 34.8722 40.1036 35.1888 40.5621L39.4647 46.7538L39.4117 41.2803C39.4048 40.5774 39.9692 40.0019 40.6725 39.995H40.6851C41.3825 39.995 41.951 40.5569 41.9578 41.2559L42.0462 50.4009C42.0462 51.0911 41.6588 51.6503 41.0592 51.8375C40.4716 52.0206 39.8515 51.7938 39.481 51.2584L35.4143 45.3695V50.7321C35.4143 51.4352 34.8445 52.005 34.1413 52.005Z" fill="#FEF156"/>
<path d="M45.0094 51.9705C44.3063 51.9705 43.7363 51.4005 43.7363 50.6974V41.3028C43.7363 40.5997 44.3061 40.0297 45.0094 40.0297H48.8172C49.5203 40.0297 50.0903 40.5997 50.0903 41.3028C50.0903 42.0059 49.5203 42.5759 48.8172 42.5759H46.2825V50.6974C46.2825 51.4005 45.7125 51.9705 45.0094 51.9705Z" fill="#FEF156"/>
<path d="M48.5146 47.1841H45.0094C44.3063 47.1841 43.7363 46.6142 43.7363 45.9111C43.7363 45.2079 44.3061 44.638 45.0094 44.638H48.5146C49.2177 44.638 49.7877 45.2079 49.7877 45.9111C49.7877 46.6142 49.2177 47.1841 48.5146 47.1841Z" fill="#FEF156"/>
<path d="M57.9642 42.5412H52.7374C52.0343 42.5412 51.4644 41.9712 51.4644 41.2681C51.4644 40.565 52.0343 39.995 52.7374 39.995H57.9642C58.6673 39.995 59.2373 40.565 59.2373 41.2681C59.2373 41.9712 58.6673 42.5412 57.9642 42.5412Z" fill="#FEF156"/>
<path d="M55.34 52.005C54.6369 52.005 54.0669 51.435 54.0669 50.7319V41.5702C54.0669 40.867 54.6369 40.2971 55.34 40.2971C56.0431 40.2971 56.6131 40.867 56.6131 41.5702V50.7319C56.6131 51.4352 56.0433 52.005 55.34 52.005Z" fill="#FEF156"/>
<path d="M48.6663 31.6992H43.4396C42.7365 31.6992 42.1665 31.1293 42.1665 30.4261C42.1665 29.723 42.7365 29.153 43.4396 29.153H48.6663C49.3695 29.153 49.9394 29.723 49.9394 30.4261C49.9394 31.1293 49.3695 31.6992 48.6663 31.6992Z" fill="#C09AFC"/>
<path d="M48.6663 62.847H43.4396C42.7365 62.847 42.1665 62.277 42.1665 61.5739C42.1665 60.8708 42.7365 60.3008 43.4396 60.3008H48.6663C49.3695 60.3008 49.9394 60.8708 49.9394 61.5739C49.9394 62.277 49.3695 62.847 48.6663 62.847Z" fill="#C09AFC"/>
<path d="M67.3975 21.8207C66.9667 21.8207 66.535 21.6671 66.191 21.355C65.4558 20.6883 65.4002 19.552 66.0669 18.8169L69.8011 14.6984C70.1418 14.3227 70.6252 14.1085 71.1323 14.1085H88.7853C89.7775 14.1085 90.5822 14.9132 90.5822 15.9054C90.5822 16.8976 89.7775 17.7023 88.7853 17.7023H71.9286L68.7291 21.2308C68.3746 21.6218 67.8869 21.8207 67.3975 21.8207Z" fill="#1D8DF2"/>
<path d="M71.9286 74.2977L68.7291 70.7692C68.0627 70.0341 66.9261 69.9784 66.191 70.645C65.4558 71.3117 65.4002 72.448 66.0669 73.1831L69.8011 77.3016C70.1418 77.6773 70.6252 77.8915 71.1323 77.8915H76.4007C77.5913 76.7582 78.7167 75.5572 79.7747 74.2977H71.9286Z" fill="#1D8DF2"/>
<path d="M88.785 47.7969H78.4307C77.4384 47.7969 76.6338 46.9922 76.6338 46C76.6338 45.0078 77.4384 44.2031 78.4307 44.2031H88.785C89.7772 44.2031 90.5819 45.0078 90.5819 46C90.5819 46.9922 89.7774 47.7969 88.785 47.7969Z" fill="#1D8DF2"/>
<path d="M88.7852 32.7497H76.9033C75.9111 32.7497 75.1064 31.945 75.1064 30.9528C75.1064 29.9606 75.9111 29.1559 76.9033 29.1559H88.7852C89.7774 29.1559 90.582 29.9606 90.582 30.9528C90.582 31.945 89.7776 32.7497 88.7852 32.7497Z" fill="#1D8DF2"/>
<path d="M91.9843 31.5642C92.3209 29.4878 90.9105 27.5316 88.8341 27.195C86.7577 26.8584 84.8015 28.2688 84.4649 30.3452C84.1283 32.4217 85.5387 34.3778 87.6151 34.7144C89.6916 35.051 91.6477 33.6406 91.9843 31.5642Z" fill="#FEF156"/>
<path d="M88.2438 49.8092C90.3475 49.8092 92.053 48.1038 92.053 46C92.053 43.8962 90.3475 42.1908 88.2438 42.1908C86.14 42.1908 84.4346 43.8962 84.4346 46C84.4346 48.1038 86.14 49.8092 88.2438 49.8092Z" fill="#3FEADD"/>
<path d="M84.7938 61.0474C84.7938 60.3975 84.9574 59.7858 85.2444 59.2505H76.9033C75.9111 59.2505 75.1064 60.0552 75.1064 61.0474C75.1064 62.0396 75.9111 62.8443 76.9033 62.8443H85.245C84.9575 62.309 84.7938 61.6975 84.7938 61.0474Z" fill="#1D8DF2"/>
<path d="M88.2438 57.2382C86.14 57.2382 84.4346 58.9436 84.4346 61.0474C84.4346 62.3728 85.1122 63.5389 86.1393 64.2214C87.1536 61.9933 87.9865 59.6656 88.6216 57.2574C88.4973 57.245 88.3713 57.2382 88.2438 57.2382Z" fill="#FEF156"/>
<path d="M88.2438 19.7146C90.3475 19.7146 92.053 18.0092 92.053 15.9054C92.053 13.8016 90.3475 12.0962 88.2438 12.0962C86.14 12.0962 84.4346 13.8016 84.4346 15.9054C84.4346 18.0092 86.14 19.7146 88.2438 19.7146Z" fill="#3FEADD"/>
<path d="M24.7082 21.8207C24.2187 21.8207 23.731 21.622 23.3765 21.2308L20.177 17.7023H3.32031C2.3279 17.7023 1.52344 16.8976 1.52344 15.9054C1.52344 14.9132 2.3279 14.1085 3.32031 14.1085H20.9734C21.4804 14.1085 21.964 14.3227 22.3045 14.6984L26.0387 18.8169C26.7054 19.552 26.6497 20.6883 25.9146 21.355C25.5707 21.6669 25.1385 21.8207 24.7082 21.8207Z" fill="#1D8DF2"/>
<path d="M23.3766 70.7694L20.1771 74.2979H12.3311C13.3891 75.5573 14.5143 76.7584 15.705 77.8917H20.9735C21.4806 77.8917 21.9641 77.6775 22.3046 77.3017L26.0389 73.1833C26.7055 72.4482 26.6498 71.3119 25.9147 70.6452C25.18 69.9784 24.0433 70.0341 23.3766 70.7694Z" fill="#1D8DF2"/>
<path d="M13.6746 47.7969H3.32031C2.3279 47.7969 1.52344 46.9922 1.52344 46C1.52344 45.0078 2.3279 44.2031 3.32031 44.2031H13.6746C14.6669 44.2031 15.4715 45.0078 15.4715 46C15.4715 46.9922 14.6669 47.7969 13.6746 47.7969Z" fill="#1D8DF2"/>
<path d="M15.2021 32.7497H3.32031C2.3279 32.7497 1.52344 31.945 1.52344 30.9528C1.52344 29.9606 2.3279 29.1559 3.32031 29.1559H15.2021C16.1944 29.1559 16.999 29.9606 16.999 30.9528C16.999 31.945 16.1944 32.7497 15.2021 32.7497Z" fill="#1D8DF2"/>
<path d="M4.46543 34.7103C6.54185 34.3737 7.95224 32.4175 7.61564 30.3411C7.27904 28.2647 5.3229 26.8543 3.24649 27.1909C1.17008 27.5275 -0.240314 29.4837 0.0962874 31.5601C0.432889 33.6365 2.38902 35.0469 4.46543 34.7103Z" fill="#FEF156"/>
<path d="M3.86193 49.8092C5.96569 49.8092 7.67112 48.1038 7.67112 46C7.67112 43.8962 5.96569 42.1908 3.86193 42.1908C1.75817 42.1908 0.0527344 43.8962 0.0527344 46C0.0527344 48.1038 1.75817 49.8092 3.86193 49.8092Z" fill="#3FEADD"/>
<path d="M15.202 59.2503H6.86089C7.14803 59.7858 7.31155 60.3973 7.31155 61.0472C7.31155 61.6973 7.14767 62.3088 6.86035 62.8441H15.202C16.1942 62.8441 16.9989 62.0394 16.9989 61.0472C16.9989 60.055 16.1942 59.2503 15.202 59.2503Z" fill="#1D8DF2"/>
<path d="M3.86177 57.2382C3.73419 57.2382 3.60823 57.245 3.48389 57.2572C4.11908 59.6654 4.95193 61.9933 5.96627 64.2212C6.99318 63.5389 7.67096 62.3726 7.67096 61.0472C7.67078 58.9436 5.96555 57.2382 3.86177 57.2382Z" fill="#FEF156"/>
<path d="M3.86193 19.7146C5.96569 19.7146 7.67112 18.0092 7.67112 15.9054C7.67112 13.8016 5.96569 12.0962 3.86193 12.0962C1.75817 12.0962 0.0527344 13.8016 0.0527344 15.9054C0.0527344 18.0092 1.75817 19.7146 3.86193 19.7146Z" fill="#3FEADD"/>
</g>
<defs>
<clipPath id="clip0_14_286">
<rect width="92" height="92" fill="white" transform="translate(0.0527344)"/>
</clipPath>
</defs>
</svg>
