<svg width="66" height="66" viewBox="0 0 66 66" fill="none" xmlns="http://www.w3.org/2000/svg">
<g clip-path="url(#clip0_1_546)">
<path d="M32.7926 29.7167C40.9644 29.7167 47.5889 23.0923 47.5889 14.9206C47.5889 6.74896 40.9644 0.124512 32.7926 0.124512C24.6209 0.124512 17.9963 6.74896 17.9963 14.9206C17.9963 23.0923 24.6209 29.7167 32.7926 29.7167Z" fill="#88BDF3"/>
<path d="M32.7929 65.4736C40.9646 65.4736 47.5891 58.8491 47.5891 50.6775C47.5891 42.5058 40.9646 35.8813 32.7929 35.8813C24.6211 35.8813 17.9966 42.5058 17.9966 50.6775C17.9966 58.8491 24.6211 65.4736 32.7929 65.4736Z" fill="#3075EE"/>
<path d="M50.6714 47.5987C58.8431 47.5987 65.4677 40.9742 65.4677 32.8026C65.4677 24.6309 58.8431 18.0065 50.6714 18.0065C42.4996 18.0065 35.8751 24.6309 35.8751 32.8026C35.8751 40.9742 42.4996 47.5987 50.6714 47.5987Z" fill="#5795F1"/>
<path d="M14.9136 47.5987C23.0853 47.5987 29.7099 40.9742 29.7099 32.8026C29.7099 24.6309 23.0853 18.0065 14.9136 18.0065C6.74183 18.0065 0.11731 24.6309 0.11731 32.8026C0.11731 40.9742 6.74183 47.5987 14.9136 47.5987Z" fill="#205FEC"/>
<path d="M29.3105 29.3194C26.6732 28.6781 24.2631 27.3238 22.3439 25.4047C20.4247 23.4855 19.0704 21.0754 18.4291 18.4381C21.0617 19.0891 23.4666 20.4467 25.3843 22.3643C27.3019 24.2819 28.6595 26.6868 29.3105 29.3194Z" fill="#134BEF"/>
<path d="M18.3969 47.196C19.0381 44.5587 20.3925 42.1486 22.3117 40.2295C24.2309 38.3103 26.641 36.956 29.2783 36.3147C28.6273 38.9473 27.2697 41.3522 25.352 43.2698C23.4344 45.1874 21.0295 46.545 18.3969 47.196Z" fill="#0932E8"/>
<path d="M36.2762 36.2887C38.9136 36.93 41.3237 38.2843 43.2429 40.2035C45.1621 42.1226 46.5164 44.5327 47.1577 47.17C44.525 46.519 42.1201 45.1614 40.2025 43.2438C38.2849 41.3262 36.9273 38.9213 36.2762 36.2887Z" fill="#164BEA"/>
<path d="M47.1892 18.4071C46.5479 21.0444 45.1936 23.4545 43.2744 25.3736C41.3552 27.2928 38.9451 28.6471 36.3077 29.2884C36.9588 26.6558 38.3164 24.2509 40.234 22.3333C42.1516 20.4157 44.5565 19.0581 47.1892 18.4071Z" fill="#3170F1"/>
</g>
<defs>
<clipPath id="clip0_1_546">
<rect width="65.3502" height="65.3495" fill="white" transform="translate(0.117188 0.126221)"/>
</clipPath>
</defs>
</svg>
