<svg width="93" height="92" viewBox="0 0 93 92" fill="none" xmlns="http://www.w3.org/2000/svg">
<g clip-path="url(#clip0_14_397)">
<path d="M46.2325 91.9993C71.5381 91.9993 92.0523 71.4448 92.0523 46.0896C92.0523 20.7343 71.5381 0.179871 46.2325 0.179871C20.9268 0.179871 0.412598 20.7343 0.412598 46.0896C0.412598 71.4448 20.9268 91.9993 46.2325 91.9993Z" fill="#FE3F4E"/>
<path d="M52.8619 91.5192C56.2059 90.3476 58.6115 87.1562 58.6115 83.411C58.6115 65.694 58.6115 25.8045 58.6115 8.58832C58.6115 3.85267 54.7662 -0.000183105 50.0397 -0.000183105H17.8596C13.1329 0.000176269 9.2876 3.85303 9.2876 8.58868C9.2876 11.2951 9.2876 70.352 9.2876 73.2443V73.2453C19.3842 87.0117 36.0743 93.957 52.8619 91.5192Z" fill="#666666"/>
<path d="M9.2876 8.58869V73.2443C10.7246 75.2039 12.3133 77.0445 14.036 78.7499V8.58869C14.036 3.85304 17.8813 0.000183105 22.6078 0.000183105H17.8596C13.1329 0.000183105 9.2876 3.85304 9.2876 8.58869Z" fill="#5A5B5B"/>
<path d="M50.0396 4.75867H45.6242C45.0576 4.75867 44.5985 5.21885 44.5985 5.7863V7.10071C44.5985 8.32007 43.6027 9.31787 42.3857 9.31787H25.5132C24.2962 9.31787 23.3004 8.32025 23.3004 7.10071V6.19185C23.3004 5.40033 22.66 4.75867 21.8699 4.75867H17.8593C15.748 4.75867 14.0366 6.47342 14.0366 8.5887V78.7506C17.4025 82.0824 21.28 84.8963 25.5415 87.0617H50.0396C52.1508 87.0617 53.8621 85.3469 53.8621 83.2316V8.5887C53.8621 6.47342 52.1508 4.75867 50.0396 4.75867Z" fill="#F9F6ED"/>
<path d="M17.8593 4.75866C15.748 4.75866 14.0366 6.47342 14.0366 8.58869V78.7506C15.4675 80.1669 16.9909 81.4896 18.5969 82.7086V8.58869C18.5969 6.58824 20.1282 4.94823 22.0801 4.77573C21.8577 4.74285 22.094 4.76585 17.8593 4.75866Z" fill="#EAE4D6"/>
<path d="M39.5151 6.14442H32.2942C31.5303 6.14442 30.9111 5.52414 30.9111 4.75867C30.9111 3.9932 31.5303 3.37292 32.2942 3.37292H39.5151C40.2789 3.37292 40.8981 3.9932 40.8981 4.75867C40.8981 5.52414 40.2789 6.14442 39.5151 6.14442Z" fill="#7F7E7D"/>
<path d="M27.1771 5.91099C26.1871 5.2589 26.427 3.6649 27.6731 3.40004C28.5209 3.22484 29.3273 3.88268 29.3273 4.75793C29.3273 5.40157 28.884 5.97837 28.2134 6.11781C28.125 6.13452 27.4585 6.10163 27.1771 5.91099Z" fill="#7F7E7D"/>
<path d="M22.9347 83.0494H19.2351C18.8955 83.0494 18.6177 82.7716 18.6177 82.432V78.7227C18.6177 78.3831 18.8955 78.1053 19.2351 78.1053H22.9347C23.2743 78.1053 23.5521 78.3831 23.5521 78.7227V82.432C23.5521 82.7716 23.2743 83.0494 22.9347 83.0494Z" fill="#0EB0FF"/>
<path d="M31.6471 83.0494H27.9475C27.6079 83.0494 27.3301 82.7716 27.3301 82.432V78.7227C27.3301 78.3831 27.6079 78.1053 27.9475 78.1053H31.6471C31.9867 78.1053 32.2645 78.3831 32.2645 78.7227V82.432C32.2645 82.7716 31.9865 83.0494 31.6471 83.0494Z" fill="#FFC30A"/>
<path d="M40.3595 83.0494H36.6599C36.3203 83.0494 36.0425 82.7716 36.0425 82.432V78.7227C36.0425 78.3831 36.3203 78.1053 36.6599 78.1053H40.3595C40.6991 78.1053 40.9769 78.3831 40.9769 78.7227V82.432C40.9769 82.7716 40.6991 83.0494 40.3595 83.0494Z" fill="#E0D5BD"/>
<path d="M49.0719 83.0494H45.3723C45.0327 83.0494 44.7549 82.7716 44.7549 82.432V78.7227C44.7549 78.3831 45.0327 78.1053 45.3723 78.1053H49.0719C49.4115 78.1053 49.6893 78.3831 49.6893 78.7227V82.432C49.6893 82.7716 49.4115 83.0494 49.0719 83.0494Z" fill="#FE3F4E"/>
<path d="M92.0364 61.4311C92.0364 57.8224 92.0364 40.1067 92.0364 37.0891V33.7072V26.0345C92.0364 25.0155 91.2026 24.1818 90.1836 24.1818H89.5256C86.8822 24.1818 31.2944 24.1818 28.4167 24.1818C27.3977 24.1818 26.564 25.0155 26.564 26.0345V33.7072C26.564 36.0727 26.564 38.1054 26.564 40.4709V61.4311C26.564 62.4501 27.3977 63.2838 28.4167 63.2838H37.2972H38.0215C38.8939 63.2838 88.3846 63.2838 90.1838 63.2838C91.2027 63.2838 92.0364 62.4501 92.0364 61.4311Z" fill="#0EB0FF"/>
<path d="M92.0364 61.4311C92.0364 57.8224 92.0364 40.1067 92.0364 37.0891V33.7072V26.0345C92.0364 25.0155 91.2026 24.1818 90.1836 24.1818H89.5256C86.8822 24.1818 31.2944 24.1818 28.4167 24.1818C27.3977 24.1818 26.564 25.0155 26.564 26.0345V33.7072C26.564 36.0727 26.564 38.1054 26.564 40.4709V61.4311C26.564 62.4501 27.3977 63.2838 28.4167 63.2838H37.2972H38.0215C38.8939 63.2838 88.3846 63.2838 90.1838 63.2838C91.2027 63.2838 92.0364 62.4501 92.0364 61.4311Z" fill="#0EB0FF"/>
<path d="M36.3091 61.4311C36.3091 56.9829 36.3091 30.4606 36.3091 26.0347C36.3091 25.0157 37.1429 24.1819 38.1619 24.1819C35.1983 24.1819 31.371 24.1819 28.4167 24.1819C27.3977 24.1819 26.564 25.0157 26.564 26.0347C26.564 27.6357 26.564 60.6229 26.564 61.4311C26.564 62.4501 27.3977 63.2838 28.4167 63.2838H37.2972H38.0215H38.1619C37.1429 63.2838 36.3091 62.4501 36.3091 61.4311Z" fill="#009CF7"/>
<path d="M76.7921 55.1774C75.3568 52.6915 76.0276 49.5692 78.2485 47.8712C76.4903 46.5237 74.0244 46.2852 71.9866 47.4618C69.2852 49.0215 68.3596 52.4758 69.9193 55.1774C71.479 57.8788 74.9333 58.8044 77.6347 57.2447C77.8501 57.1204 78.053 56.9826 78.2456 56.8354C77.673 56.3968 77.1752 55.841 76.7921 55.1774Z" fill="#FE3F4E"/>
<path d="M72.7939 54.4587C71.2342 51.7572 72.1598 48.3028 74.8612 46.7431C74.8826 46.7307 74.9049 46.7208 74.9264 46.7088C73.9292 46.687 72.9136 46.9265 71.9866 47.4618C69.2852 49.0215 68.3596 52.4758 69.9193 55.1774C71.4658 57.856 74.8747 58.7871 77.5657 57.2823C75.6579 57.2399 73.8178 56.232 72.7939 54.4587Z" fill="#FA243A"/>
<path d="M86.5747 49.5293C85.015 46.8279 81.5607 45.9023 78.8591 47.462C78.6437 47.5863 78.4408 47.7242 78.2482 47.8713C78.8207 48.3101 79.3186 48.8659 79.7017 49.5295C81.137 52.0155 80.4662 55.1377 78.2451 56.8357C80.0034 58.1832 82.4692 58.4217 84.507 57.2451C87.2088 55.685 88.1344 52.2307 86.5747 49.5293Z" fill="#FFC30A"/>
<path d="M79.7018 49.5293C79.3188 48.8657 78.8208 48.31 78.2484 47.8712C76.0272 49.569 75.3567 52.6914 76.792 55.1774C77.1751 55.841 77.673 56.3968 78.2455 56.8356C80.4664 55.1375 81.1372 52.0153 79.7018 49.5293Z" fill="#FF7110"/>
<path d="M34.1442 54.1349C35.5327 54.1349 36.9218 54.1349 38.3076 54.1349C39.2874 54.1349 40.089 53.3333 40.089 52.3534C40.089 51.3738 39.2874 50.572 38.3076 50.572C37.0404 50.572 35.4304 50.572 34.1442 50.572C33.1646 50.572 32.3628 51.3736 32.3628 52.3534C32.363 53.3333 33.1646 54.1349 34.1442 54.1349Z" fill="#E6E6E6"/>
<path d="M35.4342 52.3534C35.4342 51.3738 36.2358 50.572 37.2156 50.572C36.0192 50.572 34.6678 50.572 34.1442 50.572C33.1646 50.572 32.3628 51.3736 32.3628 52.3534C32.3628 53.3333 33.1644 54.1349 34.1442 54.1349C34.6705 54.1349 36.0081 54.1349 37.2156 54.1349C36.2358 54.1349 35.4342 53.3333 35.4342 52.3534Z" fill="#CCCCCC"/>
<path d="M44.8937 54.1349C49.4863 54.1349 48.3435 54.1349 49.0571 54.1349C50.0369 54.1349 50.8385 53.3333 50.8385 52.3534C50.8385 51.3738 50.0369 50.572 49.0571 50.572H48.4046C47.671 50.572 45.3852 50.572 44.8937 50.572C43.9141 50.572 43.1123 51.3736 43.1123 52.3534C43.1123 53.3333 43.9139 54.1349 44.8937 54.1349Z" fill="#E6E6E6"/>
<path d="M46.1837 52.3534C46.1837 51.3738 46.9853 50.572 47.9651 50.572C46.7688 50.572 45.4173 50.572 44.8937 50.572C43.9141 50.572 43.1123 51.3736 43.1123 52.3534C43.1123 53.3333 43.9139 54.1349 44.8937 54.1349C45.42 54.1349 46.7576 54.1349 47.9651 54.1349C46.9853 54.1349 46.1837 53.3333 46.1837 52.3534Z" fill="#CCCCCC"/>
<path d="M55.6432 54.1349H55.9805C57.4072 54.1349 58.4072 54.1349 59.8066 54.1349C60.7864 54.1349 61.588 53.3333 61.588 52.3534C61.588 51.3738 60.7864 50.572 59.8066 50.572C58.3141 50.572 57.1429 50.572 55.6432 50.572C54.6634 50.572 53.8618 51.3736 53.8618 52.3534C53.8618 53.3333 54.6636 54.1349 55.6432 54.1349Z" fill="#E6E6E6"/>
<path d="M56.9332 52.3534C56.9332 51.3738 57.7348 50.572 58.7146 50.572C57.5183 50.572 56.1668 50.572 55.6432 50.572C54.6634 50.572 53.8618 51.3736 53.8618 52.3534C53.8618 53.3333 54.6634 54.1349 55.6432 54.1349C56.1695 54.1349 57.5071 54.1349 58.7146 54.1349C57.735 54.1349 56.9332 53.3333 56.9332 52.3534Z" fill="#CCCCCC"/>
<path d="M41.6206 39.0288H34.1142C33.1509 39.0288 32.3628 38.2407 32.3628 37.2774V33.5429C32.3628 32.5796 33.1509 31.7915 34.1142 31.7915H41.6206C42.5839 31.7915 43.372 32.5796 43.372 33.5429V37.2774C43.3719 38.2407 42.5838 39.0288 41.6206 39.0288Z" fill="#FFC30A"/>
<path d="M37.2143 37.2774V33.5429C37.2143 32.5796 38.0025 31.7915 38.9658 31.7915H34.1142C33.1509 31.7915 32.3628 32.5796 32.3628 33.5429V37.2774C32.3628 38.2407 33.1509 39.0288 34.1142 39.0288H38.9658C38.0025 39.0288 37.2143 38.2407 37.2143 37.2774Z" fill="#FFA01A"/>
<path d="M87.3325 28.2229C86.6653 28.2229 86.1196 28.7686 86.1196 29.4358V41.9239C86.1196 42.5909 86.6653 43.1368 87.3325 43.1368C87.9995 43.1368 88.5454 42.5909 88.5454 41.9239V29.4358C88.5452 28.7686 87.9995 28.2229 87.3325 28.2229Z" fill="#50D1DC"/>
</g>
<defs>
<clipPath id="clip0_14_397">
<rect width="92" height="92" fill="white" transform="translate(0.232422)"/>
</clipPath>
</defs>
</svg>
