<svg width="66" height="66" viewBox="0 0 66 66" fill="none" xmlns="http://www.w3.org/2000/svg">
<g clip-path="url(#clip0_1_542)">
<path d="M33.0203 65.4741C51.0663 65.4741 65.6955 50.8451 65.6955 32.7994C65.6955 14.7536 51.0663 0.124634 33.0203 0.124634C14.9744 0.124634 0.345215 14.7536 0.345215 32.7994C0.345215 50.8451 14.9744 65.4741 33.0203 65.4741Z" fill="#FF0420"/>
<path d="M23.493 41.4769C21.5455 41.4769 19.951 41.0194 18.7093 40.1046C17.4807 39.1766 16.8665 37.8435 16.8665 36.1313C16.8665 35.7653 16.9057 35.334 16.9841 34.8112C17.1932 33.635 17.4938 32.2234 17.8859 30.5635C18.9969 26.0675 21.8723 23.8195 26.4991 23.8195C27.7538 23.8195 28.8909 24.0286 29.8842 24.4599C30.8776 24.865 31.6618 25.4924 32.2368 26.3289C32.8119 27.1523 33.0995 28.1325 33.0995 29.2696C33.0995 29.6094 33.0603 30.0407 32.9818 30.5635C32.7335 32.0143 32.446 33.4389 32.0931 34.8112C31.518 37.0462 30.5377 38.7322 29.1262 39.8432C27.7277 40.941 25.8456 41.4769 23.493 41.4769ZM23.8459 37.948C24.7608 37.948 25.5319 37.6736 26.1723 37.1377C26.8258 36.6018 27.2964 35.7784 27.5708 34.6544C27.9499 33.1122 28.2374 31.779 28.4335 30.6289C28.4988 30.2891 28.538 29.9362 28.538 29.5702C28.538 28.0802 27.7669 27.3353 26.2115 27.3353C25.2966 27.3353 24.5124 27.6097 23.8589 28.1456C23.2185 28.6815 22.7611 29.5049 22.4866 30.6289C22.186 31.7267 21.8984 33.0599 21.5978 34.6544C21.5325 34.9812 21.4933 35.321 21.4933 35.6869C21.4802 37.203 22.2775 37.948 23.8459 37.948Z" fill="white"/>
<path d="M34.2362 41.2483C34.0532 41.2483 33.9225 41.196 33.818 41.0784C33.7395 40.9477 33.7134 40.8039 33.7395 40.634L37.1247 24.6887C37.1508 24.5058 37.2423 24.362 37.3992 24.2444C37.5429 24.1267 37.6998 24.0745 37.8697 24.0745H44.3916C46.2084 24.0745 47.6591 24.4535 48.757 25.1985C49.868 25.9565 50.43 27.0413 50.43 28.466C50.43 28.8711 50.3777 29.3024 50.2862 29.7468C49.8811 31.6289 49.0576 33.0143 47.8029 33.9161C46.5743 34.8179 44.8883 35.2623 42.7448 35.2623H39.4381L38.3141 40.634C38.2748 40.817 38.1964 40.9608 38.0396 41.0784C37.8958 41.196 37.739 41.2483 37.5691 41.2483H34.2362ZM42.9147 31.8772C43.6074 31.8772 44.1956 31.6942 44.7053 31.3152C45.2281 30.9362 45.5679 30.4003 45.7378 29.6945C45.7901 29.4201 45.8163 29.1717 45.8163 28.9626C45.8163 28.4921 45.6725 28.1261 45.398 27.8778C45.1236 27.6164 44.64 27.4857 43.9734 27.4857H41.0326L40.1047 31.8772H42.9147Z" fill="white"/>
</g>
<defs>
<clipPath id="clip0_1_542">
<rect width="65.3502" height="65.3495" fill="white" transform="translate(0.344971 0.126221)"/>
</clipPath>
</defs>
</svg>
