<svg width="22" height="19" viewBox="0 0 22 19" fill="none" xmlns="http://www.w3.org/2000/svg">
<path fill-rule="evenodd" clip-rule="evenodd" d="M1.49475 8.25567C7.33134 5.71274 11.2234 4.03626 13.1707 3.22634C18.7308 0.913725 19.8862 0.51197 20.6392 0.498674C20.8048 0.495781 21.1751 0.53684 21.415 0.7315C21.7708 1.02025 21.7729 1.647 21.7334 2.06182C21.432 5.22769 20.1283 12.9103 19.465 16.4561C19.1843 17.9565 18.6317 18.4596 18.0968 18.5088C16.9341 18.6158 16.0512 17.7404 14.9251 17.0022C13.163 15.8471 12.1675 15.1281 10.457 14.0009C8.4803 12.6983 9.76174 11.9824 10.8883 10.8123C11.1831 10.5061 16.3058 5.84655 16.405 5.42383C16.4174 5.37097 16.4289 5.17388 16.3118 5.06986C16.1948 4.96585 16.022 5.00135 15.8973 5.02966C15.7206 5.06979 12.9056 6.93044 7.45225 10.6115C6.6532 11.1602 5.92946 11.4276 5.28104 11.4136C4.56614 11.3982 3.19108 11.0094 2.16882 10.6771C0.914989 10.2695 -0.0815394 10.054 0.0052717 9.36185C0.050476 9.00123 0.546941 8.63256 1.49475 8.25567Z" fill="black"/>
</svg>
