<svg width="63" height="63" viewBox="0 0 63 63" fill="none" xmlns="http://www.w3.org/2000/svg">
<g clip-path="url(#clip0_1_556)">
<path d="M45.7483 6.27129C44.1538 7.86569 42.6931 9.59376 41.3946 11.4364L40.9841 11.3027C38.6164 10.5294 36.1627 10.052 33.6899 9.88973C32.9452 9.83244 30.1669 9.83244 29.2599 9.88973C26.5198 10.0711 24.4193 10.4817 22.0325 11.3123C21.937 11.3505 21.8511 11.3791 21.7651 11.4077C20.419 9.57466 18.92 7.85615 17.2683 6.28084C25.1927 2.22323 34.4632 1.73632 42.7599 4.93467C43.6478 5.26883 44.5167 5.66027 45.3664 6.08035L45.7483 6.27129Z" fill="#F00500"/>
<path d="M60.5258 42.4845C59.3228 45.912 57.5183 49.0913 55.1792 51.86C53.9094 53.3493 52.5059 54.7146 50.9974 55.9558C47.4649 58.8009 43.3404 60.8344 38.939 61.9037C34.0698 63.0781 28.9906 63.0781 24.1214 61.9037C19.7105 60.8344 15.5956 58.8009 12.063 55.9558C10.5545 54.7146 9.15104 53.3493 7.88123 51.86C1.15029 43.9071 -0.892864 32.9849 2.53466 23.1417C3.18389 21.3181 3.99542 19.5614 4.96926 17.8906C5.41799 17.1268 5.97175 16.2676 6.23907 15.9143C7.15563 19.8574 8.28222 23.3231 8.7023 24.5738C8.67366 24.6406 8.63548 24.717 8.59729 24.7838C6.37273 29.2901 5.16976 33.6342 4.88334 38.2551C4.88334 38.3123 4.87379 38.3792 4.87379 38.4365C4.79741 39.8208 4.8356 40.4796 5.06473 41.3484C5.78079 44.0694 7.98625 47.0672 11.4424 50.0078C17.1041 54.8196 24.7802 58.2949 30.5946 58.6959C36.6572 59.1064 45.6031 55.5643 51.5607 50.3897C52.4964 49.5591 53.3747 48.6807 54.1958 47.7451C54.7878 47.0577 55.6661 45.8738 55.5993 45.8738C55.5802 45.8738 55.5993 45.8547 55.6375 45.8356C55.6661 45.8165 55.6948 45.7879 55.6757 45.7688C55.6661 45.7592 55.6852 45.7306 55.7139 45.7211C55.7425 45.7115 55.7616 45.6924 55.7521 45.6733C55.7425 45.6542 55.7521 45.6351 55.7903 45.6256C55.8189 45.616 55.8284 45.5874 55.8189 45.5683C55.8093 45.5492 55.8189 45.5301 55.838 45.5301C55.8571 45.5301 55.8762 45.5015 55.8762 45.4824C55.8762 45.4633 55.8953 45.4346 55.9144 45.4346C55.9335 45.4346 55.9526 45.4155 55.9526 45.3964C55.9812 45.3201 56.0289 45.2437 56.0767 45.1769C56.2199 44.9573 56.7927 43.9357 56.8691 43.7639C57.4133 42.5322 57.757 41.4343 57.9193 40.3364C57.9957 39.8113 58.0434 38.847 58.0053 38.6179C57.9957 38.5797 57.9957 38.5128 57.9862 38.4078C57.9671 38.2169 57.9575 37.9304 57.9384 37.644C57.9193 37.2144 57.8811 36.6129 57.8525 36.3169C57.442 31.9825 56.3345 28.4404 54.234 24.6883C54.1481 24.5451 54.0717 24.4019 54.024 24.2873C54.0049 24.2587 53.9953 24.2301 53.9858 24.211C54.2818 23.3231 55.4943 19.6091 56.4586 15.3606L56.4777 15.3797L56.6209 15.5706C56.8691 15.9048 57.5279 16.8977 57.8239 17.3751C59.17 19.571 60.2203 21.9291 60.965 24.3924C62.693 30.3212 62.5498 36.6416 60.5258 42.4845Z" fill="#F00500"/>
<path d="M48.137 31.0759C48.1083 31.2286 47.6596 31.6869 47.2109 32.0211C45.8933 32.9853 43.5351 33.8828 41.1387 34.3124C39.7734 34.5607 38.4082 34.5988 37.9976 34.3984C37.7303 34.2647 37.6921 34.1597 37.7876 33.816C37.9881 33.0999 38.6373 32.317 39.6493 31.5819C40.1649 31.2095 42.2558 29.9398 43.2296 29.4051C44.8336 28.5268 46.132 28.0017 47.0104 27.8775C47.2873 27.8393 47.6214 27.8298 47.7264 27.8775C47.8983 27.9444 48.0892 28.4504 48.1656 29.0614C48.2038 29.386 48.1847 30.8181 48.137 31.0759Z" fill="black"/>
<path d="M25.639 34.2366C25.5817 34.3512 25.2953 34.4753 24.9707 34.5231C24.6461 34.5708 23.6532 34.5421 23.0899 34.4753C21.0658 34.208 18.9177 33.5874 17.3519 32.8236C16.4735 32.394 15.8434 31.9644 15.3756 31.4966L15.1082 31.2197L15.0796 30.8569C15.0319 30.2268 15.0414 29.2338 15.1178 28.8806C15.1655 28.5846 15.2705 28.2982 15.4138 28.0404C15.4901 27.9449 15.4901 27.9449 15.8338 27.9449C16.2539 27.9449 16.6072 28.0118 17.18 28.1932C18.3544 28.556 20.1015 29.4343 22.2306 30.7137C23.9873 31.7639 24.6461 32.2794 25.1521 32.9859C25.4958 33.4251 25.725 34.0457 25.639 34.2366Z" fill="black"/>
<path d="M39.1587 47.5268C39.1587 47.5555 39.0442 48.0137 38.901 48.5579C38.7577 49.1021 38.6432 49.5413 38.6432 49.5604C38.5382 49.5699 38.4427 49.5795 38.3377 49.5699H38.0321L37.612 50.5629C37.3829 51.1071 37.1729 51.6131 37.1442 51.6894L37.0869 51.8231L36.8864 51.4985L36.686 51.1739V48.5293L36.6096 48.5484C36.4473 48.5866 35.292 48.7393 34.786 48.7871C32.6951 48.9971 30.5947 48.9494 28.5133 48.6534C28.1792 48.6057 27.8928 48.5675 27.8832 48.577C27.8737 48.5866 27.8832 49.1976 27.9023 49.9518L27.931 51.3076L27.7687 51.5558C27.6827 51.6895 27.5968 51.804 27.5968 51.8136C27.5682 51.8422 27.4727 51.6895 27.2531 51.2503C27.0144 50.792 26.8426 50.3051 26.7184 49.7991L26.6516 49.5222L26.3556 49.5413L26.0597 49.5699L25.9833 49.2167C25.9451 49.0258 25.8974 48.7298 25.8783 48.5675L25.8496 48.262L25.6014 48.0424C25.4582 47.9183 25.315 47.7941 25.2863 47.7751C25.2386 47.7369 25.2195 47.67 25.2195 47.6127V47.4982L26.4129 47.5077L27.6063 47.5173L27.6445 47.6414L27.6827 47.7655L28.0933 47.7846C28.3224 47.7941 29.048 47.8132 29.6972 47.8323L30.8907 47.861L31.1962 47.3836L31.5112 46.9062H31.9122L31.9027 45.9133L31.8931 44.9204L31.368 44.6913C29.6781 43.9466 28.6852 43.0969 28.3129 42.0658C28.2365 41.8557 28.2365 41.7793 28.2174 40.8246C28.2078 39.8794 28.2078 39.7935 28.2747 39.5835C28.4083 39.1061 28.7807 38.7337 29.258 38.6096C29.4204 38.5619 29.85 38.5619 32.1032 38.5619L34.7574 38.5714L35.0533 38.7147C35.4066 38.8865 35.5689 39.0106 35.7694 39.2779C35.9985 39.5835 36.0654 39.8221 36.0654 40.4045C36.0654 41.2351 36.0081 41.9512 35.9222 42.2376C35.798 42.629 35.6071 43.0014 35.3684 43.3355C34.891 43.9466 34.0222 44.5576 33.2298 44.8345L33.0006 44.9204L33.0102 45.9229L33.0197 46.9253L33.2298 46.9444L33.4398 46.9635L33.7262 47.3932L34.0031 47.8228H35.2825C35.989 47.8228 36.6096 47.8323 36.6669 47.8419C36.7623 47.861 36.7814 47.8514 36.8769 47.6891L36.9915 47.5173H38.0894C38.9105 47.4791 39.1587 47.4982 39.1587 47.5268Z" fill="black"/>
<path d="M34.1215 50.2682C33.9401 50.3732 33.816 50.4209 33.7873 50.4018C33.7587 50.3923 33.625 50.2777 33.4818 50.1727L33.224 49.9627L32.9567 50.2491C32.3743 50.8792 32.3552 50.9079 32.1834 50.9174C31.916 50.946 31.8588 50.8983 31.5342 50.4114C31.3623 50.1632 31.2286 49.9531 31.2286 49.9531C31.2286 49.9531 31.1045 49.934 30.9613 49.9245L30.694 49.8958L30.5699 50.1536L30.4457 50.4114L30.2261 50.3446C30.0543 50.2873 29.8824 50.2204 29.7201 50.1441L29.4337 50.0009V49.4567L31.9733 49.4662L34.513 49.4758L34.5225 49.7335C34.532 50.039 34.5416 50.0295 34.1215 50.2682Z" fill="black"/>
<path d="M57.9931 38.6204C57.9835 38.5822 57.9835 38.5154 57.974 38.4104C55.6826 38.1621 49.1426 38.0094 43.0704 43.0217C43.0704 43.0217 41.1132 34.0472 31.9477 34.0472C22.7822 34.0472 19.3833 43.0217 19.3833 43.0217C14.2468 37.4938 7.3726 37.8948 4.89027 38.2576C4.89027 38.3149 4.88072 38.3817 4.88072 38.439C4.80434 39.8234 4.84253 40.4821 5.07167 41.3509C5.78773 44.0719 7.99319 47.0698 11.4494 50.0104C17.111 54.8222 24.7871 58.2974 30.6015 58.6984C36.6641 59.109 45.6101 55.5669 51.5677 50.3923C52.5033 49.5616 53.3817 48.6833 54.2027 47.7476C54.7947 47.0602 55.6731 45.8764 55.6062 45.8764C55.5871 45.8764 55.6062 45.8573 55.6444 45.8382C55.6731 45.8191 55.7017 45.7904 55.6826 45.7713C55.673 45.7618 55.6922 45.7332 55.7208 45.7236C55.7494 45.7141 55.7685 45.695 55.759 45.6759C55.7494 45.6568 55.759 45.6377 55.7972 45.6281C55.8258 45.6186 55.8354 45.59 55.8258 45.5709C55.8163 45.5518 55.8258 45.5327 55.8449 45.5327C55.864 45.5327 55.8831 45.504 55.8831 45.4849C55.8831 45.4658 55.9022 45.4372 55.9213 45.4372C55.9404 45.4372 55.9595 45.4181 55.9595 45.399C55.9881 45.3226 56.0359 45.2462 56.0836 45.1794C56.2268 44.9598 56.7996 43.9383 56.876 43.7664C57.4202 42.5348 57.7639 41.4369 57.9262 40.3389C57.9835 39.8138 58.0313 38.8495 57.9931 38.6204ZM34.1245 50.2681C33.9431 50.3732 33.819 50.4209 33.7903 50.4018C33.7617 50.3923 33.628 50.2777 33.4848 50.1727L33.227 49.9626L32.9597 50.249C32.3773 50.8792 32.3582 50.9078 32.1864 50.9174C31.919 50.946 31.8618 50.8983 31.5372 50.4114C31.3653 50.1631 31.2316 49.9531 31.2316 49.9531C31.2316 49.9531 31.1075 49.934 30.9643 49.9244L30.697 49.8958L30.5729 50.1536L30.4487 50.4114L30.2291 50.3445C30.0573 50.2872 29.8854 50.2204 29.7231 50.144L29.4367 50.0008V49.4566L31.9763 49.4662L34.5159 49.4757L34.5255 49.7335C34.535 50.039 34.5446 50.0295 34.1245 50.2681ZM38.8982 48.5496C38.755 49.0938 38.6404 49.533 38.6404 49.5521C38.5354 49.5616 38.4399 49.5712 38.3349 49.5616H38.0294L37.6189 50.5641C37.3897 51.1083 37.1797 51.6143 37.151 51.6907L37.0938 51.8244L36.8933 51.4997L36.6928 51.1751V48.5305L36.6164 48.5496C36.4541 48.5878 35.2988 48.7406 34.7928 48.7883C32.7019 48.9983 30.6015 48.9506 28.5202 48.6546C28.186 48.6069 27.8996 48.5687 27.89 48.5783C27.8805 48.5878 27.89 49.1988 27.9091 49.9531L27.9378 51.3088L27.7755 51.557C27.6895 51.6907 27.6036 51.8053 27.6036 51.8148C27.575 51.8434 27.4795 51.6907 27.2599 51.2515C27.0212 50.7932 26.8494 50.3063 26.7252 49.8003L26.6584 49.5234L26.3624 49.5425L26.0665 49.5712L25.9901 49.2179C25.9519 49.027 25.9042 48.731 25.8851 48.5687L25.8564 48.2632L25.6082 48.0436C25.465 47.9195 25.3218 47.7954 25.2931 47.7763C25.2454 47.7381 25.2263 47.6713 25.2263 47.614V47.4994L26.4197 47.509L27.6132 47.5185L27.6513 47.6426L27.6895 47.7667L28.1001 47.7858C28.3292 47.7954 29.0548 47.8145 29.704 47.8336L30.8975 47.8622L31.203 47.3848L31.5181 46.9075H31.9191L31.9095 45.9146L31.8999 44.9216L31.3748 44.6925C29.6849 43.9478 28.692 43.0981 28.3197 42.067C28.2433 41.8569 28.2433 41.7806 28.2242 40.8258C28.2146 39.8807 28.2146 39.7947 28.2815 39.5847C28.4151 39.1073 28.7875 38.735 29.2649 38.6109C29.4272 38.5631 29.8568 38.5631 32.11 38.5631L34.7642 38.5727L35.0601 38.7159C35.4134 38.8877 35.5757 39.0118 35.7762 39.2792C36.0053 39.5847 36.0722 39.8234 36.0722 40.4058C36.0722 41.2364 36.0149 41.9524 35.929 42.2388C35.8049 42.6303 35.6139 43.0026 35.3752 43.3368C34.8978 43.9478 34.029 44.5588 33.2366 44.8357L33.0074 44.9216L33.017 45.9241L33.0266 46.9266L33.2366 46.9457L33.4466 46.9648L33.7331 47.3944L34.0099 47.824H35.2893C35.9958 47.824 36.6164 47.8336 36.6737 47.8431C36.7691 47.8622 36.7882 47.8527 36.8837 47.6904L36.9983 47.5185H38.0962C38.946 47.5185 39.1942 47.5281 39.1942 47.5567C39.1655 47.5472 39.0414 48.015 38.8982 48.5496Z" fill="white"/>
<path d="M57.9161 37.6441C57.897 37.2145 57.8588 36.613 57.8302 36.317C57.4197 31.9826 56.3122 28.4405 54.2117 24.6884C54.1258 24.5452 54.0494 24.402 54.0017 24.2874C53.9826 24.2588 53.973 24.2301 53.9635 24.211C54.2595 23.3231 55.472 19.6092 56.4363 15.3607C57.7443 9.59409 58.5749 2.85368 56.0353 0.829649C56.0353 0.829649 51.6435 0.50504 45.7623 6.27162C44.1678 7.86602 42.7071 9.59409 41.4086 11.4367L40.9981 11.3031C38.6303 10.5297 36.1766 10.0524 33.7038 9.89005C32.9592 9.83277 30.1808 9.83277 29.2738 9.89005C26.5337 10.0715 24.4333 10.482 22.0464 11.3126C21.951 11.3508 21.865 11.3794 21.7791 11.4081C20.4329 9.57499 18.934 7.85648 17.2823 6.28117C11.1624 0.485946 6.60824 0.820101 6.60824 0.820101C3.91586 2.91096 4.83242 9.95689 6.22634 15.9144C7.1429 19.8575 8.26949 23.3231 8.68958 24.5738C8.66094 24.6407 8.62275 24.717 8.58456 24.7839C6.36001 29.2902 5.15703 33.6342 4.87061 38.2551C7.36249 37.8923 14.2271 37.4818 19.3732 43.0193C19.3732 43.0193 22.772 34.0448 31.9376 34.0448C41.1031 34.0448 43.0603 43.0193 43.0603 43.0193C49.1325 38.0069 55.6725 38.1692 57.9639 38.4079C57.9543 38.217 57.9352 37.9305 57.9161 37.6441ZM10.494 20.9745C10.494 20.9745 6.9233 12.0478 7.83985 6.94948C7.99261 6.09022 8.27904 5.33598 8.72777 4.76314C8.72777 4.76314 12.7759 5.16413 19.3063 12.4201C19.3063 12.4201 18.0652 13.0216 16.4039 14.3009C16.4039 14.3009 16.3944 14.3105 16.3848 14.3105C14.5803 15.6948 12.2699 17.8907 10.494 20.9745ZM25.6458 34.2357C25.5885 34.3503 25.3021 34.4744 24.9775 34.5221C24.6529 34.5699 23.66 34.5412 23.0967 34.4744C21.0726 34.2071 18.9244 33.5865 17.3587 32.8227C16.4803 32.3931 15.8502 31.9635 15.3823 31.4956L15.115 31.2188L15.0864 30.856C15.0386 30.2258 15.0482 29.2329 15.1245 28.8797C15.1723 28.5837 15.2773 28.2973 15.4205 28.0395C15.4969 27.944 15.4969 27.944 15.8406 27.944C16.2607 27.944 16.6139 28.0109 17.1868 28.1923C18.3611 28.5551 20.1083 29.4334 22.2374 30.7128C23.9941 31.763 24.6529 32.2785 25.1589 32.985C25.5026 33.4242 25.7317 34.0448 25.6458 34.2357ZM48.1396 31.0756C48.1109 31.2283 47.6622 31.6866 47.2135 32.0207C45.8959 32.985 43.5377 33.8825 41.1413 34.3121C39.776 34.5603 38.4107 34.5985 38.0002 34.398C37.7329 34.2644 37.6947 34.1593 37.7902 33.8156C37.9907 33.0996 38.6399 32.3167 39.6519 31.5816C40.1675 31.2092 42.2584 29.9394 43.2322 29.4048C44.8362 28.5264 46.1346 28.0013 47.013 27.8772C47.2898 27.839 47.624 27.8295 47.729 27.8772C47.9009 27.944 48.0918 28.45 48.1682 29.0611C48.2064 29.3857 48.1873 30.8178 48.1396 31.0756ZM46.5547 14.3009L46.5356 14.2914C44.9316 13.012 43.7287 12.4105 43.7287 12.4105C50.0395 5.15458 53.9444 4.7536 53.9444 4.7536C54.374 5.33598 54.6509 6.08067 54.8037 6.93993C55.6916 12.0382 52.245 20.9745 52.245 20.9745C50.8033 18.4063 48.8652 16.134 46.5547 14.3009Z" fill="#FFA409"/>
<path d="M54.8065 6.94207C54.0618 6.8466 50.5388 6.8275 46.548 14.3031L46.5289 14.2935C44.9249 13.0142 43.7219 12.4127 43.7219 12.4127C50.0328 5.15672 53.9377 4.75574 53.9377 4.75574C54.3768 5.33812 54.6537 6.08281 54.8065 6.94207Z" fill="#FF9300"/>
<path d="M52.2521 20.978C50.8009 18.4002 48.8723 16.1375 46.5522 14.3044C50.5431 6.82884 54.0565 6.84793 54.8108 6.9434C55.6987 12.0512 52.2521 20.978 52.2521 20.978Z" fill="#FF8300"/>
<path d="M54.9516 6.97224C54.9036 6.96266 54.8557 6.95307 54.8077 6.94348L54.9516 6.97224Z" fill="#FF8300"/>
<path d="M19.2989 12.4109C19.2989 12.4109 18.0577 13.0123 16.3965 14.2917C16.3965 14.2917 16.3869 14.3012 16.3774 14.3012C12.2433 6.81613 8.60576 6.84477 7.82288 6.94024C7.97563 6.08098 8.26206 5.32675 8.71079 4.75391C8.72034 4.75391 12.7684 5.15489 19.2989 12.4109Z" fill="#FF9300"/>
<path d="M16.3904 14.301C14.5763 15.6949 12.2659 17.8812 10.4901 20.9745C10.4901 20.9745 6.91932 12.0478 7.83587 6.93999C8.60921 6.84451 12.2563 6.82542 16.3904 14.301Z" fill="#FF8300"/>
<path d="M7.83264 6.93994C7.78515 6.94944 7.72816 6.95894 7.68066 6.96844L7.83264 6.93994Z" fill="#FF8300"/>
<path d="M42.5886 25.9317C42.5886 25.9317 39.5335 26.1227 39.9154 23.7358C40.2973 21.349 42.6841 21.0626 43.3524 21.158C44.0208 21.2535 46.694 22.2083 46.2167 24.2132C45.7393 26.2181 45.071 25.8362 44.6891 25.9317C44.3072 26.0272 42.5886 25.9317 42.5886 25.9317Z" fill="white"/>
<path d="M20.0547 25.9301C20.0547 25.9301 16.9995 26.1211 17.3814 23.7342C17.7633 21.3474 20.1502 21.061 20.8185 21.1565C21.4868 21.2519 24.1601 22.2067 23.6827 24.2116C23.2054 26.2165 22.537 25.8346 22.1551 25.9301C21.7732 26.0256 20.0547 25.9301 20.0547 25.9301Z" fill="white"/>
</g>
<defs>
<clipPath id="clip0_1_556">
<rect width="61.2658" height="61.9621" fill="white" transform="translate(0.88916 0.819824)"/>
</clipPath>
</defs>
</svg>
