<svg width="66" height="58" viewBox="0 0 66 58" fill="none" xmlns="http://www.w3.org/2000/svg">
<g clip-path="url(#clip0_1_587)">
<path fill-rule="evenodd" clip-rule="evenodd" d="M12.5418 0.656399L0.626136 25.6849C0.580794 25.778 0.566425 25.8832 0.585131 25.985C0.603838 26.0869 0.654638 26.18 0.730102 26.251L32.9114 57.088C33.0028 57.1757 33.1246 57.2246 33.2512 57.2246C33.3779 57.2246 33.4996 57.1757 33.591 57.088L65.7723 26.2529C65.8478 26.182 65.8986 26.0888 65.9173 25.9869C65.936 25.8851 65.9216 25.7799 65.8763 25.6869L53.9607 0.658324C53.9222 0.574268 53.8604 0.503061 53.7825 0.453215C53.7047 0.403369 53.6141 0.376991 53.5217 0.377235H12.9846C12.8917 0.376079 12.8005 0.401821 12.7219 0.451356C12.6434 0.500891 12.5808 0.572102 12.5418 0.656399Z" fill="#50AF95"/>
<path fill-rule="evenodd" clip-rule="evenodd" d="M37.3871 28.2557C37.156 28.2731 35.9623 28.3443 33.2997 28.3443C31.1818 28.3443 29.6782 28.2808 29.1506 28.2557C20.9662 27.8957 14.8573 26.471 14.8573 24.7652C14.8573 23.0594 20.9662 21.6366 29.1506 21.2708V26.8368C29.6859 26.8753 31.2184 26.9658 33.3362 26.9658C35.8776 26.9658 37.1502 26.8599 37.3793 26.8387V21.2747C45.5464 21.6386 51.6419 23.0633 51.6419 24.7652C51.6419 26.4672 45.5484 27.8919 37.3793 28.2538L37.3871 28.2557ZM37.3871 20.699V15.7184H48.7848V8.12317H17.7529V15.7184H29.1487V20.6971C19.8861 21.1226 12.9204 22.9574 12.9204 25.156C12.9204 27.3547 19.8861 29.1876 29.1487 29.615V45.5755H37.3851V29.6092C46.6265 29.1837 53.5807 27.3509 53.5807 25.1541C53.5807 22.9574 46.6323 21.1245 37.3851 20.6971L37.3871 20.699Z" fill="white"/>
</g>
<defs>
<clipPath id="clip0_1_587">
<rect width="65.3502" height="56.8475" fill="white" transform="translate(0.576904 0.377197)"/>
</clipPath>
</defs>
</svg>
