<svg width="66" height="76" viewBox="0 0 66 76" fill="none" xmlns="http://www.w3.org/2000/svg">
<g clip-path="url(#clip0_1_527)">
<path d="M26.1198 17.2385C25.3044 17.122 25.2655 17.0832 25.6538 17.0444C26.3916 16.9279 28.1001 17.0832 29.3038 17.355C32.0996 18.0151 34.6235 19.7236 37.3027 22.7134L38.0017 23.5288L39.0112 23.3735C43.3213 22.6746 47.7479 23.2182 51.4367 24.9267C52.4463 25.3926 54.0383 26.3245 54.2324 26.5575C54.3101 26.6352 54.4266 27.14 54.5042 27.6447C54.776 29.4697 54.6595 30.8287 54.0771 31.8771C53.7665 32.4596 53.7665 32.6149 53.9606 33.1196C54.1159 33.5079 54.5819 33.7797 55.009 33.7797C55.9409 33.7797 56.9117 32.3042 57.3776 30.2463L57.5718 29.4309L57.9212 29.8192C59.9015 32.0324 61.4547 35.0999 61.6877 37.2744L61.7654 37.8568L61.4159 37.352C60.8335 36.459 60.2898 35.8765 59.5521 35.3717C58.2319 34.4787 56.834 34.2069 53.1452 34.0127C49.8059 33.8186 47.9032 33.5468 46.0394 32.9255C42.8554 31.8771 41.2245 30.5181 37.458 25.5091C35.7884 23.2959 34.74 22.0922 33.6916 21.0826C31.4006 18.8694 29.1097 17.7045 26.1198 17.2385Z" fill="#FF007A"/>
<path d="M55.0474 22.1695C55.125 20.6939 55.3192 19.7232 55.7463 18.8301C55.9016 18.4807 56.0569 18.17 56.0958 18.17C56.1346 18.17 56.0569 18.4418 55.9404 18.7525C55.6298 19.6067 55.591 20.8104 55.7851 22.1695C56.0569 23.9168 56.1734 24.1497 58.0372 26.0524C58.8915 26.9454 59.9011 28.0715 60.2894 28.5374L60.9495 29.3917L60.2894 28.7704C59.4739 27.9938 57.6101 26.5183 57.183 26.3242C56.9112 26.1689 56.8724 26.1689 56.6782 26.363C56.5229 26.5183 56.4841 26.7513 56.4841 27.8773C56.4452 29.6247 56.2123 30.7119 55.6298 31.8379C55.3192 32.4204 55.2803 32.3039 55.5521 31.6438C55.7463 31.139 55.7851 30.906 55.7851 29.2364C55.7851 25.8582 55.3968 25.0428 53.0282 23.6838C52.4458 23.3343 51.4362 22.8295 50.8538 22.5577C50.2325 22.2859 49.7665 22.053 49.8054 22.053C49.883 21.9753 52.174 22.6354 53.067 23.0237C54.4261 23.5673 54.6591 23.6061 54.8144 23.5673C54.9309 23.4508 55.0085 23.1402 55.0474 22.1695Z" fill="#FF007A"/>
<path d="M27.7115 27.9565C26.0806 25.7044 25.0322 22.2098 25.2652 19.6083L25.3429 18.7928L25.7312 18.8705C26.4301 18.987 27.6338 19.4529 28.2163 19.8024C29.7695 20.7343 30.4684 22.0157 31.1285 25.1997C31.3227 26.1316 31.5945 27.2188 31.7109 27.5682C31.9051 28.1507 32.6429 29.5097 33.2641 30.3639C33.6913 30.9852 33.4195 31.2958 32.4487 31.2182C30.9732 31.0629 28.9929 29.7038 27.7115 27.9565Z" fill="#FF007A"/>
<path d="M53.0675 44.8466C45.3792 41.7403 42.6611 39.061 42.6611 34.518C42.6611 33.8579 42.7 33.3143 42.7 33.3143C42.7388 33.3143 43.0106 33.5473 43.3601 33.8191C44.9132 35.0616 46.6606 35.6052 51.5143 36.3042C54.3488 36.7313 55.9797 37.0419 57.4552 37.5467C62.1536 39.0999 65.0658 42.2839 65.7647 46.5939C65.9589 47.8364 65.8424 50.205 65.5317 51.4475C65.2599 52.4183 64.4834 54.2044 64.2892 54.2432C64.2504 54.2432 64.1727 54.0491 64.1727 53.7385C64.0951 52.1076 63.2796 50.5545 61.9206 49.3508C60.2898 47.9529 58.193 46.9045 53.0675 44.8466Z" fill="#FF007A"/>
<path d="M47.6311 46.127C47.5534 45.5445 47.3592 44.8068 47.2428 44.4961L47.0486 43.9137L47.3981 44.3408C47.9029 44.9233 48.2912 45.6222 48.6406 46.5929C48.9124 47.3307 48.9124 47.5636 48.9124 48.7673C48.9124 49.9322 48.8736 50.204 48.6406 50.8641C48.2523 51.9125 47.7864 52.6503 47.0098 53.4657C45.6119 54.9023 43.7869 55.6789 41.1853 56.0284C40.7194 56.0672 39.3992 56.1837 38.2343 56.2614C35.3221 56.4167 33.3806 56.7273 31.6332 57.3486C31.4003 57.4262 31.1673 57.5039 31.1285 57.4651C31.0508 57.3874 32.2545 56.6885 33.2253 56.2225C34.5843 55.5624 35.9822 55.213 39.0497 54.6694C40.5641 54.4364 42.1172 54.1258 42.5055 53.9704C46.3497 52.7667 48.2523 49.7769 47.6311 46.127Z" fill="#FF007A"/>
<path d="M51.1648 52.3789C50.1552 50.1657 49.9222 48.0689 50.4658 46.0886C50.5435 45.8945 50.6211 45.7003 50.6988 45.7003C50.7765 45.7003 51.0094 45.8168 51.2424 45.9721C51.7084 46.2828 52.6791 46.8264 55.1642 48.1854C58.3094 49.8939 60.0956 51.2141 61.3381 52.7284C62.4253 54.0486 63.0854 55.5629 63.3961 57.4267C63.5902 58.4751 63.4737 60.999 63.2019 62.0474C62.3477 65.3479 60.4062 67.9883 57.5716 69.5026C57.1445 69.7356 56.795 69.8909 56.7562 69.8909C56.7174 69.8909 56.8727 69.5026 57.1057 69.0366C58.0376 67.0564 58.1541 65.1537 57.4552 63.0181C57.028 61.6979 56.1349 60.1059 54.3488 57.4267C52.2132 54.3204 51.7084 53.505 51.1648 52.3789Z" fill="#FF007A"/>
<path d="M22.2368 64.2606C25.1102 61.8532 28.6437 60.1447 31.9054 59.6011C33.3033 59.3681 35.633 59.4458 36.9144 59.7952C38.9724 60.3388 40.8362 61.5037 41.807 62.9404C42.7389 64.3382 43.166 65.5419 43.5931 68.2211C43.7484 69.2695 43.9426 70.3567 43.9814 70.5897C44.292 71.9876 44.9133 73.0748 45.6899 73.6572C46.8936 74.5503 48.9904 74.5891 51.0484 73.8125C51.3979 73.6961 51.7085 73.5796 51.7085 73.6184C51.7862 73.6961 50.7378 74.395 50.0388 74.7444C49.0681 75.2492 48.2915 75.4045 47.2431 75.4045C45.3793 75.4045 43.7873 74.4338 42.5059 72.4923C42.2341 72.1041 41.6905 70.978 41.2245 69.9296C39.8655 66.7845 39.1665 65.8526 37.5745 64.8042C36.1767 63.9111 34.3905 63.717 33.0315 64.3771C31.2453 65.2313 30.7793 67.5222 32.0219 68.9201C32.5267 69.5025 33.4586 69.9685 34.2352 70.0849C35.6719 70.2791 36.9144 69.153 36.9144 67.7164C36.9144 66.7845 36.5649 66.2409 35.633 65.8137C34.3905 65.2701 33.0315 65.8914 33.0703 67.0951C33.0703 67.5999 33.3033 67.9105 33.808 68.1435C34.1187 68.2988 34.1187 68.2988 33.8857 68.26C32.7596 68.027 32.4878 66.6291 33.3809 65.7361C34.4681 64.6489 36.7591 65.1148 37.5357 66.6291C37.8463 67.2504 37.8852 68.493 37.6133 69.2695C36.9532 70.978 35.0894 71.8711 33.1868 71.3663C31.9054 71.0168 31.3618 70.6674 29.8086 69.0754C27.0905 66.2797 26.0421 65.7361 22.1591 65.1536L21.4214 65.0372L22.2368 64.2606Z" fill="#FF007A"/>
<path fill-rule="evenodd" clip-rule="evenodd" d="M1.814 1.78452C10.8613 12.7732 24.8011 29.858 25.5001 30.7899C26.0825 31.5665 25.8495 32.3042 24.8788 32.8479C24.3352 33.1585 23.2091 33.4691 22.6655 33.4691C22.0442 33.4691 21.3065 33.1585 20.8017 32.6537C20.4522 32.3042 18.9379 30.091 15.5208 24.7714C12.9193 20.6943 10.706 17.3162 10.6671 17.2774C10.5118 17.1997 10.5118 17.1997 15.249 25.6645C18.2389 30.9841 19.2097 32.8867 19.2097 33.1197C19.2097 33.6244 19.0543 33.8962 18.4331 34.5952C17.3847 35.76 16.9187 37.0802 16.5692 39.8371C16.181 42.9046 15.1326 45.079 12.1427 48.7678C10.3953 50.9422 10.1235 51.3305 9.69641 52.2236C9.15279 53.3108 8.99747 53.9321 8.91982 55.3299C8.84216 56.8054 8.99747 57.7373 9.4246 59.1352C9.8129 60.3777 10.24 61.1931 11.2884 62.7851C12.1815 64.183 12.7251 65.2314 12.7251 65.6197C12.7251 65.9303 12.8028 65.9303 14.2006 65.6197C17.54 64.8431 20.2969 63.5229 21.8112 61.8921C22.7432 60.8825 22.9761 60.3389 22.9761 58.941C22.9761 58.048 22.9373 57.8538 22.7043 57.3102C22.316 56.456 21.5783 55.7571 19.9863 54.6698C17.8895 53.2332 16.9964 52.0683 16.7634 50.5151C16.5692 49.1949 16.8022 48.3019 17.9671 45.8556C19.1708 43.3317 19.4815 42.2833 19.6756 39.7206C19.7921 38.0898 19.9863 37.4297 20.4522 36.9249C20.957 36.3813 21.3841 36.1872 22.5878 36.0318C24.5681 35.76 25.8495 35.2553 26.8591 34.2845C27.7522 33.4691 28.1405 32.6537 28.1793 31.45L28.2181 30.5569L27.7133 30.0133C25.8883 27.9165 0.610281 0.114868 0.493793 0.114868C0.454963 0.114868 1.07624 0.852622 1.814 1.78452ZM13.7347 56.9996C14.1618 56.2618 13.9288 55.3299 13.2299 54.864C12.5698 54.4369 11.5602 54.631 11.5602 55.2134C11.5602 55.3688 11.6379 55.5241 11.8709 55.6017C12.2203 55.7959 12.2592 55.99 11.9874 56.4171C11.7155 56.8443 11.7155 57.2326 12.065 57.5044C12.6086 57.9315 13.3464 57.6985 13.7347 56.9996Z" fill="#FF007A"/>
<path fill-rule="evenodd" clip-rule="evenodd" d="M29.4593 36.5755C28.5274 36.8473 27.6343 37.8569 27.3625 38.8664C27.2072 39.4877 27.2848 40.6137 27.5566 40.9632C27.9838 41.5068 28.3721 41.6621 29.4593 41.6621C31.5949 41.6621 33.4199 40.7302 33.6141 39.6042C33.8082 38.6723 32.9928 37.3909 31.8667 36.8085C31.2843 36.4978 30.0806 36.3814 29.4593 36.5755ZM31.9444 38.517C32.255 38.051 32.1385 37.5462 31.5561 37.1968C30.5077 36.5367 28.9157 37.0803 28.9157 38.0898C28.9157 38.5946 29.7311 39.1382 30.5077 39.1382C31.0125 39.1382 31.7114 38.8276 31.9444 38.517Z" fill="#FF007A"/>
</g>
<defs>
<clipPath id="clip0_1_527">
<rect width="65.3502" height="75.2509" fill="white" transform="translate(0.492432 0.114868)"/>
</clipPath>
</defs>
</svg>
