<svg width="25" height="19" viewBox="0 0 25 19" fill="none" xmlns="http://www.w3.org/2000/svg">
<path d="M4.18286 2.10213C5.71254 1.40027 7.35289 0.88314 9.06801 0.586936C9.09923 0.581217 9.13044 0.595514 9.14652 0.624061C9.35751 0.999297 9.59118 1.48877 9.75482 1.87352C11.5995 1.59733 13.4348 1.59733 15.2416 1.87352C15.4053 1.48024 15.6475 0.999297 15.8594 0.624061C15.8755 0.596452 15.9067 0.582155 15.9379 0.586936C17.652 0.882156 19.2924 1.39928 20.823 2.10213C20.8363 2.10785 20.8476 2.11736 20.8552 2.12974C23.9666 6.77811 24.819 11.3123 24.4008 15.7901C24.3989 15.812 24.3866 15.833 24.3696 15.8463C22.3168 17.3539 20.3283 18.269 18.3767 18.8757C18.3455 18.8852 18.3124 18.8738 18.2925 18.8481C17.8309 18.2177 17.4194 17.5529 17.0665 16.8539C17.0457 16.813 17.0656 16.7644 17.1082 16.7482C17.7609 16.5006 18.3824 16.1987 18.9803 15.8559C19.0276 15.8283 19.0314 15.7606 18.9879 15.7282C18.8621 15.634 18.7362 15.5358 18.6161 15.4368C18.5943 15.4187 18.564 15.4149 18.5385 15.4263C14.6107 17.2196 10.3584 17.2196 6.47703 15.4263C6.45148 15.4139 6.4212 15.4178 6.39851 15.4358C6.27832 15.5349 6.15251 15.6339 6.02576 15.7282C5.98226 15.7606 5.98512 15.8282 6.03237 15.8558C6.63026 16.2053 7.25178 16.5005 7.90545 16.7472C7.94802 16.7634 7.96695 16.8129 7.94609 16.8538C7.58567 17.5519 7.17415 18.2166 6.72106 18.8471C6.70212 18.8738 6.66809 18.8852 6.63687 18.8757C4.67585 18.269 2.68731 17.3538 0.634508 15.8463C0.616508 15.8329 0.605164 15.8129 0.603289 15.791C0.10285 10.6141 1.44146 6.11713 4.15174 2.13063C4.1583 2.11736 4.16965 2.10785 4.18286 2.10213ZM16.4799 13.0636C17.6624 13.0636 18.6368 11.9779 18.6368 10.6446C18.6368 9.31129 17.6814 8.22567 16.4799 8.22567C15.2691 8.22567 14.3041 9.32086 14.323 10.6446C14.323 11.9779 15.2785 13.0636 16.4799 13.0636ZM8.50517 13.0636C9.68765 13.0636 10.662 11.9779 10.662 10.6446C10.662 9.31129 9.70658 8.22567 8.50517 8.22567C7.2943 8.22567 6.32937 9.32086 6.34826 10.6446C6.34826 11.9779 7.29425 13.0636 8.50517 13.0636Z" fill="black"/>
</svg>
