<svg width="11" height="18" viewBox="0 0 11 18" fill="none" xmlns="http://www.w3.org/2000/svg">
<path d="M9.16215 0.770283C9.60488 0.383134 10.2772 0.428436 10.6642 0.870863C11.0509 1.31359 11.0057 1.98591 10.5633 2.37296L2.96438 9.02165L10.5637 15.6707C11.0065 16.0578 11.0513 16.7301 10.6646 17.1724C10.2776 17.6153 9.60528 17.6605 9.16245 17.2734L0.647969 9.82298C0.533715 9.72306 0.442149 9.59985 0.379413 9.46163C0.316676 9.32342 0.284221 9.17338 0.284221 9.0216C0.284221 8.86981 0.316676 8.71977 0.379413 8.58156C0.442149 8.44334 0.533715 8.32014 0.647969 8.22021L9.16215 0.770283Z" fill="black"/>
</svg>
