<svg width="11" height="18" viewBox="0 0 11 18" fill="none" xmlns="http://www.w3.org/2000/svg">
<path d="M1.83712 0.770283C1.39439 0.383134 0.722067 0.428436 0.335018 0.870863C-0.0516324 1.31359 -0.00643092 1.98591 0.435997 2.37296L8.03489 9.02165L0.435598 15.6707C-0.00722896 16.0578 -0.0520313 16.7301 0.334619 17.1724C0.721668 17.6153 1.39399 17.6605 1.83682 17.2734L10.3513 9.82298C10.4656 9.72306 10.5571 9.59985 10.6199 9.46163C10.6826 9.32342 10.715 9.17338 10.715 9.0216C10.715 8.86981 10.6826 8.71977 10.6199 8.58156C10.5571 8.44334 10.4656 8.32014 10.3513 8.22021L1.83712 0.770283Z" fill="black"/>
</svg>
