<svg width="21" height="21" viewBox="0 0 21 21" fill="none" xmlns="http://www.w3.org/2000/svg">
<g clip-path="url(#clip0_5_195)">
<path d="M20.5273 5.80758C20.2926 4.9241 19.6013 4.22769 18.7229 3.9913C17.132 3.56274 10.7503 3.56274 10.7503 3.56274C10.7503 3.56274 4.36869 3.56274 2.77689 3.9913C1.89936 4.22769 1.20806 4.92325 0.973368 5.80758C0.546509 7.40958 0.546509 10.7513 0.546509 10.7513C0.546509 10.7513 0.546509 14.0931 0.973368 15.6951C1.20806 16.5786 1.89936 17.275 2.77774 17.5114C4.36869 17.9399 10.7503 17.9399 10.7503 17.9399C10.7503 17.9399 17.132 17.9399 18.7237 17.5114C19.6013 17.275 20.2926 16.5794 20.5281 15.6951C20.9541 14.0931 20.9541 10.7513 20.9541 10.7513C20.9541 10.7513 20.9541 7.40958 20.5273 5.80758ZM8.66364 13.7861L8.66364 7.71655L13.9968 10.7513L8.66364 13.7861Z" fill="black"/>
</g>
<defs>
<clipPath id="clip0_5_195">
<rect width="20.4076" height="20.4076" fill="white" transform="translate(0.546204 0.546631)"/>
</clipPath>
</defs>
</svg>
