<svg width="33" height="25" viewBox="0 0 33 25" fill="none" xmlns="http://www.w3.org/2000/svg">
<path d="M7.0685 24.1299C9.36863 23.9946 11.0261 23.1489 12.0408 21.593C13.0556 20.037 13.563 18.2781 13.563 16.3162C13.563 13.9484 13.0894 11.6821 12.1423 9.51726C11.1276 7.28478 9.84219 5.35672 8.28621 3.7331C6.73024 2.10947 5.03896 0.993228 3.21239 0.384369L0.776951 3.7331C1.65642 4.34196 2.53588 5.15377 3.41534 6.16853C4.22715 7.11565 4.97131 8.13041 5.64782 9.21283C6.25668 10.2952 6.69641 11.3777 6.96702 12.4601C5.7493 12.5277 4.70071 12.8322 3.82125 13.3734C2.94178 13.8469 2.26527 14.4896 1.79172 15.3014C1.31816 16.1132 1.08138 17.0942 1.08138 18.2442C1.08138 20.1385 1.65641 21.6268 2.80648 22.7092C3.95655 23.724 5.37722 24.1975 7.0685 24.1299ZM26.1461 24.1299C28.5139 24.0622 30.2051 23.2504 31.2199 21.6944C32.2347 20.0708 32.7421 18.2781 32.7421 16.3162C32.7421 13.9484 32.2685 11.6821 31.3214 9.51726C30.3066 7.28478 29.0212 5.35672 27.4653 3.7331C25.9093 2.10947 24.218 0.993228 22.3914 0.384369L19.956 3.7331C20.8355 4.34196 21.7149 5.15377 22.5944 6.16853C23.4062 7.11565 24.1504 8.13041 24.8269 9.21283C25.4357 10.2952 25.8755 11.3777 26.1461 12.4601C24.9284 12.5277 23.8798 12.8322 23.0003 13.3734C22.1208 13.8469 21.4443 14.4896 20.9708 15.3014C20.4972 16.1132 20.2604 17.0942 20.2604 18.2442C20.2604 20.1385 20.8693 21.593 22.087 22.6077C23.2371 23.6225 24.5901 24.1299 26.1461 24.1299Z" fill="#F3B61F"/>
</svg>
